<svg width="724.12" height="228.6" viewBox="0 0 543.094 171.45" xmlns="http://www.w3.org/2000/svg" xmlns:xlink="http://www.w3.org/1999/xlink"><defs><symbol id="c" overflow="visible"><path d="M.5-4.234C.5-5.25.602-6.07.813-6.688c.207-.62.519-1.097.93-1.433.413-.336.929-.504 1.554-.504.46 0 .867.094 1.215.277.347.188.636.453.863.805.227.348.402.773.531 1.277.13.5.196 1.18.196 2.032 0 1.007-.106 1.82-.313 2.437-.207.621-.516 1.098-.93 1.438-.41.335-.93.507-1.562.507-.828 0-1.477-.297-1.95-.89C.782-1.457.5-2.625.5-4.234zm1.082 0c0 1.41.164 2.347.496 2.812.328.469.734.703 1.219.703s.894-.234 1.223-.703c.332-.469.496-1.406.496-2.812 0-1.414-.164-2.356-.496-2.82-.329-.466-.739-.696-1.23-.696-.485 0-.876.203-1.165.613-.363.524-.543 1.489-.543 2.903z"/></symbol><symbol id="d" overflow="visible"><path d="M1.09 0v-1.203h1.199V0z"/></symbol><symbol id="e" overflow="visible"><path d="M6.04-1.016V0H.362C.355-.254.398-.5.484-.734c.145-.387.38-.766.696-1.141.32-.375.781-.809 1.383-1.3.933-.766 1.562-1.372 1.89-1.821.328-.445.492-.871.492-1.27 0-.418-.148-.77-.449-1.054-.297-.29-.687-.43-1.168-.43-.508 0-.914.148-1.219.453s-.46.727-.46 1.266l-1.087-.11c.075-.808.352-1.425.836-1.847.485-.426 1.137-.637 1.953-.637.825 0 1.477.227 1.957.687a2.25 2.25 0 0 1 .723 1.696c0 .343-.07.683-.21 1.015-.141.332-.376.68-.704 1.047-.324.367-.867.875-1.625 1.516-.633.531-1.039.89-1.219 1.078-.18.191-.328.383-.445.57z"/></symbol><symbol id="f" overflow="visible"><path d="M3.879 0v-2.055H.152v-.968L4.07-8.59h.864v5.567h1.16v.968h-1.16V0zm0-3.023v-3.875L1.187-3.023z"/></symbol><symbol id="g" overflow="visible"><path d="M5.969-6.484l-1.047.078c-.094-.414-.227-.711-.399-.899a1.398 1.398 0 0 0-1.054-.453c-.336 0-.633.094-.883.281-.332.243-.594.594-.79 1.063-.19.465-.288 1.125-.296 1.984.254-.386.563-.672.93-.86a2.513 2.513 0 0 1 1.156-.28c.703 0 1.3.258 1.797.773.492.52.742 1.188.742 2.008 0 .539-.117 1.039-.352 1.504-.23.46-.55.816-.957 1.062a2.617 2.617 0 0 1-1.382.371c-.88 0-1.598-.324-2.153-.972C.727-1.47.453-2.535.453-4.02c0-1.66.305-2.867.918-3.62.535-.657 1.254-.985 2.16-.985.676 0 1.23.187 1.664.57.43.38.688.899.774 1.57zM1.664-2.781c0 .363.078.71.23 1.039.157.332.372.586.649.762.277.171.566.261.871.261.445 0 .828-.18 1.148-.539.32-.36.485-.851.485-1.469 0-.593-.16-1.058-.477-1.402a1.565 1.565 0 0 0-1.195-.512c-.477 0-.883.172-1.21.512-.333.344-.5.793-.5 1.348z"/></symbol><symbol id="h" overflow="visible"><path d="M2.121-4.656c-.437-.16-.762-.39-.973-.688C.938-5.64.832-5.996.832-6.41c0-.625.223-1.152.676-1.574.449-.426 1.047-.64 1.789-.64.75 0 1.355.218 1.812.651.457.438.688.965.688 1.59 0 .399-.106.746-.316 1.043-.208.293-.528.52-.95.684.528.172.926.445 1.203.828.274.383.414.844.414 1.375a2.47 2.47 0 0 1-.78 1.852c-.52.5-1.204.75-2.052.75s-1.53-.254-2.05-.754c-.52-.504-.782-1.13-.782-1.88 0-.558.145-1.027.426-1.402.285-.378.688-.636 1.211-.77zm-.21-1.79c0 .407.128.739.394.997.261.258.601.387 1.015.387.407 0 .742-.13 1-.383.262-.258.39-.57.39-.942 0-.386-.132-.71-.401-.976a1.364 1.364 0 0 0-.997-.395c-.402 0-.738.13-1.003.387a1.245 1.245 0 0 0-.399.926zm-.34 3.97c0 .3.07.59.214.87.14.282.356.5.637.653.281.156.582.234.906.234.504 0 .922-.164 1.25-.488s.492-.738.492-1.238c0-.508-.172-.926-.507-1.258-.34-.332-.762-.5-1.27-.5-.496 0-.906.164-1.234.492-.325.328-.489.742-.489 1.235z"/></symbol><symbol id="i" overflow="visible"><path d="M4.469 0H3.414v-6.719a5.488 5.488 0 0 1-.996.727 7.154 7.154 0 0 1-1.113.543v-1.02a6.295 6.295 0 0 0 1.547-1.008c.441-.394.757-.777.937-1.148h.68z"/></symbol><symbol id="j" overflow="visible"><path d="M.367-1.86l1.047-.163c.059.418.219.742.488.96.266.223.641.336 1.121.336.485 0 .844-.097 1.079-.296.234-.196.351-.43.351-.696a.639.639 0 0 0-.312-.562c-.145-.094-.5-.211-1.078-.356-.774-.195-1.31-.363-1.606-.508-.3-.14-.527-.34-.68-.59a1.558 1.558 0 0 1-.23-.835c0-.278.062-.535.187-.77.13-.238.301-.433.52-.59.164-.12.387-.222.672-.308.281-.082.586-.125.91-.125.488 0 .918.07 1.285.21.371.141.645.333.817.571.175.242.296.562.367.965l-1.031.14c-.047-.32-.184-.57-.41-.75-.223-.18-.544-.27-.95-.27-.484 0-.832.083-1.039.24-.207.16-.312.35-.312.562 0 .136.046.261.132.37a.923.923 0 0 0 .403.282c.105.04.418.129.933.27.746.199 1.266.363 1.559.488.297.129.527.312.695.555.168.242.254.542.254.902 0 .351-.105.683-.308.992-.207.313-.504.55-.887.723A3.277 3.277 0 0 1 3.03.14c-.808 0-1.425-.168-1.851-.504C.758-.7.484-1.195.367-1.86z"/></symbol><symbol id="k" overflow="visible"><path d="M-3.856-8.148a4.003 4.003 0 0 1 1.875.468c.297.153.575.336.833.555.257.219.484.469.68.742.195.278.35.586.46.914.113.332.176.688.184 1.063l2.207.46v1.079L.176-3.328c-.004.36-.059.687-.168.992-.106.3-.262.555-.461.774a2.107 2.107 0 0 1-.75.5c-.3.117-.645.18-1.035.18-.38 0-.743-.044-1.094-.13a4.148 4.148 0 0 1-.98-.363 3.745 3.745 0 0 1-.829-.578A3.639 3.639 0 0 1-6.2-3.644a3.95 3.95 0 0 1-.152-1.067l-2.238-.476v-1.079l2.238.477c.008-.387.07-.727.192-1.023a2.02 2.02 0 0 1 .504-.743c.214-.199.476-.347.78-.445a3.214 3.214 0 0 1 1.02-.148zm.098 1.128c-.543 0-.953.114-1.23.336-.282.227-.442.59-.485 1.094l4.77.985a2.217 2.217 0 0 0-.149-.758 2.335 2.335 0 0 0-.363-.613 2.377 2.377 0 0 0-.523-.465 3.022 3.022 0 0 0-.633-.325 3.486 3.486 0 0 0-.692-.19 3.866 3.866 0 0 0-.695-.063zm-1.656 2.508c.035.41.133.774.289 1.09.16.317.367.582.625.797s.563.375.906.484c.348.11.73.164 1.145.164.547 0 .96-.125 1.242-.378.281-.254.43-.645.445-1.172z"/></symbol><symbol id="l" overflow="visible"><path d="M0-3.352v.79h-5.04c.18.19.364.44.544.75.183.308.316.585.41.831h-.766a4.764 4.764 0 0 0-.757-1.16c-.293-.332-.582-.566-.86-.703v-.508z"/></symbol><symbol id="q" overflow="visible"><path d="M-.762-4.531H0v4.258a1.384 1.384 0 0 1-.55-.09c-.29-.11-.575-.285-.856-.524s-.606-.582-.977-1.035c-.574-.7-1.027-1.172-1.363-1.418-.336-.246-.652-.371-.953-.371-.313 0-.578.113-.793.34-.215.223-.32.515-.32.875 0 .379.113.683.34.914.23.23.546.344.949.348l-.082.812c-.606-.055-1.07-.266-1.387-.629-.317-.363-.477-.851-.477-1.465 0-.617.172-1.105.516-1.464s.765-.543 1.273-.543c.258 0 .512.054.758.16.25.105.512.281.79.523.273.246.651.653 1.132 1.223.398.473.668.777.812.914.141.133.286.242.426.332z"/></symbol><symbol id="m" overflow="visible"><path d="M2.727 0l1.586-7.61h-2.82l.206-.98h6.762l-.203.98H5.46L3.875 0z"/></symbol><symbol id="n" overflow="visible"><path d="M3.352 0h-.79v-5.04c-.19.18-.44.364-.75.544a5.395 5.395 0 0 1-.831.41v-.766c.44-.207.828-.46 1.16-.757.332-.293.566-.582.703-.86h.508z"/></symbol><symbol id="r" overflow="visible"><path d="M4.531-.762V0H.273a1.384 1.384 0 0 1 .09-.55c.11-.29.285-.575.524-.856s.582-.606 1.035-.977c.7-.574 1.172-1.027 1.418-1.363.246-.336.371-.652.371-.953 0-.313-.113-.578-.34-.793-.223-.215-.515-.32-.875-.32-.379 0-.683.113-.914.34-.23.23-.344.546-.348.949l-.812-.082c.055-.606.266-1.07.629-1.387.363-.317.851-.477 1.465-.477.617 0 1.105.172 1.464.516s.543.765.543 1.273c0 .258-.054.512-.16.758-.105.25-.281.512-.523.79-.246.273-.653.651-1.223 1.132-.473.398-.777.668-.914.812a2.87 2.87 0 0 0-.332.426z"/></symbol><clipPath id="a"><path d="M90 15h151v134H90z"/></clipPath><clipPath id="b"><path d="M90 74h217v75H90z"/></clipPath><clipPath id="o"><path d="M378 15h150v134H378z"/></clipPath><clipPath id="p"><path d="M378 15h95v134h-95z"/></clipPath></defs><g clip-path="url(#a)" transform="translate(-53.796 -10.81)"><path d="M95.683 148.12l.062-.023.063-.02.129-.039.254-.082.504-.164 1.011-.332 2.024-.668 4.383-1.504 4.097-1.46 4.016-1.497 4.351-1.7 4.067-1.655 4.406-1.88 4.324-1.94 4.031-1.9 4.375-2.167 4.082-2.129 4.004-2.195 4.344-2.512 4.055-2.477 4.39-2.847 4.313-2.969 4.023-2.937 4.364-3.391 4.07-3.379 4.41-3.914 4.332-4.133 4.043-4.137 4.379-4.828 4.094-4.875 4.008-5.16 4.351-6.082 4.059-6.191 4.402-7.356 4.32-7.969 4.028-8.207 4.37-9.89 4.079-10.328 2.734-7.75" fill="none" stroke="#5c7fb3" stroke-linecap="square" stroke-miterlimit="3.25" stroke-width="1.6"/></g><g clip-path="url(#b)" transform="translate(-53.796 -10.81)"><path d="M95.683 148.12l.062-.023.063-.02.129-.039.254-.082.504-.164 1.011-.324 2.024-.653 4.383-1.41 4.097-1.32 4.016-1.29 4.351-1.402 4.067-1.308 4.406-1.418 4.324-1.39 4.031-1.302 4.375-1.406 4.082-1.316 4.004-1.29 4.344-1.398 4.055-1.304 4.39-1.414 4.313-1.387 4.023-1.293 4.364-1.406 4.07-1.309 4.41-1.422 4.332-1.394 4.043-1.301 4.379-1.41 4.094-1.317 4.008-1.289 4.351-1.402 4.059-1.309 4.402-1.414 4.32-1.39 4.028-1.297 4.37-1.407 4.079-1.312 4-1.29 4.336-1.394 4.05-1.304 4.387-1.414 4.098-1.317 4.02-1.293 4.355-1.406 4.07-1.309 4.406-1.418 4.329-1.39 4.035-1.301 4.379-1.41 4.086-1.313 4.003-1.293 4.348-1.398 4.055-1.305.14-.047.141-.043.285-.093.567-.18 1.128-.363.075-.024.21-.07.282-.09.566-.184.07-.023.07-.02.145-.046.282-.09.28-.094.075-.02.211-.07" fill="none" stroke="#e19c23" stroke-linecap="square" stroke-miterlimit="3.25" stroke-width="1.6"/></g><g fill="none" stroke="#636363" stroke-miterlimit="3.25" stroke-width=".5"><g stroke-linecap="square"><path d="M252.277 137.31H37.587M37.587 137.31V4.62M37.587 4.624h214.69M252.277 4.624v132.69"/></g><path d="M41.887 137.31v-2.543"/></g><g transform="translate(-53.796 -10.81)"><use x="87.18" y="162.12" width="100%" height="100%" xlink:href="#c"/><use x="93.854" y="162.12" width="100%" height="100%" xlink:href="#d"/><use x="97.188" y="162.12" width="100%" height="100%" xlink:href="#c"/></g><g fill="none" stroke="#636363" stroke-miterlimit="3.25" stroke-width=".5"><path d="M52.187 137.31v-1.527M62.497 137.31v-1.527M72.797 137.31v-1.527M83.097 137.31v-2.543"/></g><g transform="translate(-53.796 -10.81)"><use x="128.4" y="162.12" width="100%" height="100%" xlink:href="#c"/><use x="135.074" y="162.12" width="100%" height="100%" xlink:href="#d"/><use x="138.408" y="162.12" width="100%" height="100%" xlink:href="#e"/></g><g fill="none" stroke="#636363" stroke-miterlimit="3.25" stroke-width=".5"><path d="M93.407 137.31v-1.527M103.717 137.31v-1.527M114.017 137.31v-1.527M124.327 137.31v-2.543"/></g><g transform="translate(-53.796 -10.81)"><use x="169.62" y="162.12" width="100%" height="100%" xlink:href="#c"/><use x="176.294" y="162.12" width="100%" height="100%" xlink:href="#d"/><use x="179.628" y="162.12" width="100%" height="100%" xlink:href="#f"/></g><g fill="none" stroke="#636363" stroke-miterlimit="3.25" stroke-width=".5"><path d="M134.627 137.31v-1.527M144.937 137.31v-1.527M155.237 137.31v-1.527M165.547 137.31v-2.543"/></g><g transform="translate(-53.796 -10.81)"><use x="210.84" y="162.12" width="100%" height="100%" xlink:href="#c"/><use x="217.514" y="162.12" width="100%" height="100%" xlink:href="#d"/><use x="220.848" y="162.12" width="100%" height="100%" xlink:href="#g"/></g><g fill="none" stroke="#636363" stroke-miterlimit="3.25" stroke-width=".5"><path d="M175.847 137.31v-1.527M186.157 137.31v-1.527M196.457 137.31v-1.527M206.767 137.31v-2.543"/></g><g transform="translate(-53.796 -10.81)"><use x="252.061" y="162.12" width="100%" height="100%" xlink:href="#c"/><use x="258.735" y="162.12" width="100%" height="100%" xlink:href="#d"/><use x="262.068" y="162.12" width="100%" height="100%" xlink:href="#h"/></g><g fill="none" stroke="#636363" stroke-miterlimit="3.25" stroke-width=".5"><path d="M217.067 137.31v-1.527M227.377 137.31v-1.527M237.677 137.31v-1.527M247.987 137.31v-2.543"/></g><g transform="translate(-53.796 -10.81)"><use x="293.281" y="162.12" width="100%" height="100%" xlink:href="#i"/><use x="299.955" y="162.12" width="100%" height="100%" xlink:href="#d"/><use x="303.289" y="162.12" width="100%" height="100%" xlink:href="#c"/></g><path d="M37.587 137.31h2.543" fill="none" stroke="#636363" stroke-miterlimit="3.25" stroke-width=".5"/><g transform="translate(-53.796 -10.81)"><use x="71.386" y="152.12" width="100%" height="100%" xlink:href="#c"/><use x="78.06" y="152.12" width="100%" height="100%" xlink:href="#d"/><use x="81.394" y="152.12" width="100%" height="100%" xlink:href="#c"/></g><g fill="none" stroke="#636363" stroke-miterlimit="3.25" stroke-width=".5"><path d="M37.587 130.67h1.523M37.587 124.04h1.523M37.587 117.41h1.523M37.587 110.77h2.543"/></g><g transform="translate(-53.796 -10.81)"><use x="71.386" y="125.583" width="100%" height="100%" xlink:href="#c"/><use x="78.06" y="125.583" width="100%" height="100%" xlink:href="#d"/><use x="81.394" y="125.583" width="100%" height="100%" xlink:href="#e"/></g><g fill="none" stroke="#636363" stroke-miterlimit="3.25" stroke-width=".5"><path d="M37.587 104.14h1.523M37.587 97.51h1.523M37.587 90.87h1.523M37.587 84.24h2.543"/></g><g transform="translate(-53.796 -10.81)"><use x="71.386" y="99.046" width="100%" height="100%" xlink:href="#c"/><use x="78.06" y="99.046" width="100%" height="100%" xlink:href="#d"/><use x="81.394" y="99.046" width="100%" height="100%" xlink:href="#f"/></g><g fill="none" stroke="#636363" stroke-miterlimit="3.25" stroke-width=".5"><path d="M37.587 77.6h1.523M37.587 70.967h1.523M37.587 64.335h1.523M37.587 57.698h2.543"/></g><g transform="translate(-53.796 -10.81)"><use x="71.386" y="72.509" width="100%" height="100%" xlink:href="#c"/><use x="78.06" y="72.509" width="100%" height="100%" xlink:href="#d"/><use x="81.394" y="72.509" width="100%" height="100%" xlink:href="#g"/></g><g fill="none" stroke="#636363" stroke-miterlimit="3.25" stroke-width=".5"><path d="M37.587 51.065h1.523M37.587 44.432h1.523M37.587 37.795h1.523M37.587 31.163h2.543"/></g><g transform="translate(-53.796 -10.81)"><use x="71.386" y="45.972" width="100%" height="100%" xlink:href="#c"/><use x="78.06" y="45.972" width="100%" height="100%" xlink:href="#d"/><use x="81.394" y="45.972" width="100%" height="100%" xlink:href="#h"/></g><g fill="none" stroke="#636363" stroke-miterlimit="3.25" stroke-width=".5"><path d="M37.587 24.526h1.523M37.587 17.893h1.523M37.587 11.26h1.523M37.587 4.624h2.543"/></g><g transform="translate(-53.796 -10.81)"><use x="71.386" y="19.435" width="100%" height="100%" xlink:href="#i"/><use x="78.06" y="19.435" width="100%" height="100%" xlink:href="#d"/><use x="81.394" y="19.435" width="100%" height="100%" xlink:href="#c"/></g><g fill="none" stroke="#636363" stroke-miterlimit="3.25" stroke-width=".1"><path d="M41.887 4.624v2.148M83.097 4.624v2.148M124.327 4.624v2.148M165.547 4.624v2.148M206.767 4.624v2.148M247.987 4.624v2.148M52.187 4.624v1.527M62.497 4.624v1.527M72.797 4.624v1.527M93.407 4.624v1.527M103.717 4.624v1.527M114.017 4.624v1.527M134.627 4.624v1.527M144.937 4.624v1.527M155.237 4.624v1.527M175.847 4.624v1.527M186.157 4.624v1.527M196.457 4.624v1.527M217.067 4.624v1.527M227.377 4.624v1.527M237.677 4.624v1.527M252.277 137.31h-2.148M252.277 110.77h-2.148M252.277 84.24h-2.148M252.277 57.698h-2.148M252.277 31.163h-2.148M252.277 4.624h-2.148M252.277 130.67h-1.523M252.277 124.04h-1.523M252.277 117.41h-1.523M252.277 104.14h-1.523M252.277 97.51h-1.523M252.277 90.87h-1.523M252.277 77.6h-1.523M252.277 70.967h-1.523M252.277 64.335h-1.523M252.277 51.065h-1.523M252.277 44.432h-1.523M252.277 37.795h-1.523M252.277 24.526h-1.523M252.277 17.893h-1.523M252.277 11.26h-1.523"/></g><g transform="translate(-53.796 -10.81)"><use x="195.73" y="182.12" width="100%" height="100%" xlink:href="#j"/><use x="62.386" y="88.778" width="100%" height="100%" xlink:href="#k"/><use x="64.386" y="80.778" width="100%" height="100%" xlink:href="#l"/><use x="288.781" y="33.069" width="100%" height="100%" xlink:href="#m"/><use x="296.111" y="35.069" width="100%" height="100%" xlink:href="#n"/></g><g clip-path="url(#o)" transform="translate(-53.796 -10.81)"><path d="M383.183 15.434l.125.125.129.121.254.242.504.489 1.011.976 2.024 1.957 4.383 4.235 4.097 3.953 4.016 3.879 4.351 4.203 4.067 3.925 4.406 4.254 4.324 4.176 4.031 3.895 4.375 4.226 4.082 3.942 4.004 3.867 4.344 4.191 4.055 3.914 4.39 4.243 4.313 4.164 4.023 3.886 4.364 4.211 4.07 3.934 4.41 4.258 4.332 4.183 4.043 3.903 4.379 4.23 4.094 3.953 4.008 3.871 4.351 4.203 4.059 3.918 4.402 4.25 4.32 4.172 4.028 3.89 4.37 4.22 4.079 3.941 2.785 2.688" fill="none" stroke="#5c7fb3" stroke-linecap="square" stroke-miterlimit="3.25" stroke-width="1.6"/></g><g clip-path="url(#p)" transform="translate(-53.796 -10.81)"><path d="M383.183 15.434l.125.125.129.121.254.246.504.492 1.011.989 2.024 2.015 4.383 4.504 4.097 4.387 4.016 4.488 4.351 5.09 4.067 4.969 4.406 5.644 4.324 5.82 4.031 5.704 4.375 6.496 4.082 6.386 4.004 6.586 4.344 7.54 4.055 7.433 4.39 8.535 4.313 8.903 4.023 8.816 4.364 10.18 4.07 10.133 2.66 7.086" fill="none" stroke="#e19c23" stroke-linecap="square" stroke-miterlimit="3.25" stroke-width="1.6"/></g><g fill="none" stroke="#636363" stroke-miterlimit="3.25" stroke-width=".5"><g stroke-linecap="square"><path d="M539.777 137.31h-214.69M325.087 137.31V4.62M325.087 4.624h214.69M539.777 4.624v132.69"/></g><path d="M329.387 137.31v-2.543"/></g><g transform="translate(-53.796 -10.81)"><use x="374.68" y="162.12" width="100%" height="100%" xlink:href="#c"/><use x="381.354" y="162.12" width="100%" height="100%" xlink:href="#d"/><use x="384.688" y="162.12" width="100%" height="100%" xlink:href="#c"/></g><g fill="none" stroke="#636363" stroke-miterlimit="3.25" stroke-width=".5"><path d="M339.687 137.31v-1.527M349.997 137.31v-1.527M360.297 137.31v-1.527M370.597 137.31v-2.543"/></g><g transform="translate(-53.796 -10.81)"><use x="415.9" y="162.12" width="100%" height="100%" xlink:href="#c"/><use x="422.574" y="162.12" width="100%" height="100%" xlink:href="#d"/><use x="425.908" y="162.12" width="100%" height="100%" xlink:href="#e"/></g><g fill="none" stroke="#636363" stroke-miterlimit="3.25" stroke-width=".5"><path d="M380.907 137.31v-1.527M391.217 137.31v-1.527M401.517 137.31v-1.527M411.827 137.31v-2.543"/></g><g transform="translate(-53.796 -10.81)"><use x="457.12" y="162.12" width="100%" height="100%" xlink:href="#c"/><use x="463.794" y="162.12" width="100%" height="100%" xlink:href="#d"/><use x="467.128" y="162.12" width="100%" height="100%" xlink:href="#f"/></g><g fill="none" stroke="#636363" stroke-miterlimit="3.25" stroke-width=".5"><path d="M422.127 137.31v-1.527M432.437 137.31v-1.527M442.737 137.31v-1.527M453.047 137.31v-2.543"/></g><g transform="translate(-53.796 -10.81)"><use x="498.34" y="162.12" width="100%" height="100%" xlink:href="#c"/><use x="505.014" y="162.12" width="100%" height="100%" xlink:href="#d"/><use x="508.348" y="162.12" width="100%" height="100%" xlink:href="#g"/></g><g fill="none" stroke="#636363" stroke-miterlimit="3.25" stroke-width=".5"><path d="M463.347 137.31v-1.527M473.657 137.31v-1.527M483.957 137.31v-1.527M494.267 137.31v-2.543"/></g><g transform="translate(-53.796 -10.81)"><use x="539.561" y="162.12" width="100%" height="100%" xlink:href="#c"/><use x="546.235" y="162.12" width="100%" height="100%" xlink:href="#d"/><use x="549.568" y="162.12" width="100%" height="100%" xlink:href="#h"/></g><g fill="none" stroke="#636363" stroke-miterlimit="3.25" stroke-width=".5"><path d="M504.567 137.31v-1.527M514.877 137.31v-1.527M525.177 137.31v-1.527M535.487 137.31v-2.543"/></g><g transform="translate(-53.796 -10.81)"><use x="580.781" y="162.12" width="100%" height="100%" xlink:href="#i"/><use x="587.455" y="162.12" width="100%" height="100%" xlink:href="#d"/><use x="590.789" y="162.12" width="100%" height="100%" xlink:href="#c"/></g><path d="M325.087 137.31h2.543" fill="none" stroke="#636363" stroke-miterlimit="3.25" stroke-width=".5"/><g transform="translate(-53.796 -10.81)"><use x="358.886" y="152.12" width="100%" height="100%" xlink:href="#c"/><use x="365.56" y="152.12" width="100%" height="100%" xlink:href="#d"/><use x="368.894" y="152.12" width="100%" height="100%" xlink:href="#c"/></g><g fill="none" stroke="#636363" stroke-miterlimit="3.25" stroke-width=".5"><path d="M325.087 130.67h1.523M325.087 124.04h1.523M325.087 117.41h1.523M325.087 110.77h2.543"/></g><g transform="translate(-53.796 -10.81)"><use x="358.886" y="125.583" width="100%" height="100%" xlink:href="#c"/><use x="365.56" y="125.583" width="100%" height="100%" xlink:href="#d"/><use x="368.894" y="125.583" width="100%" height="100%" xlink:href="#e"/></g><g fill="none" stroke="#636363" stroke-miterlimit="3.25" stroke-width=".5"><path d="M325.087 104.14h1.523M325.087 97.51h1.523M325.087 90.87h1.523M325.087 84.24h2.543"/></g><g transform="translate(-53.796 -10.81)"><use x="358.886" y="99.046" width="100%" height="100%" xlink:href="#c"/><use x="365.56" y="99.046" width="100%" height="100%" xlink:href="#d"/><use x="368.894" y="99.046" width="100%" height="100%" xlink:href="#f"/></g><g fill="none" stroke="#636363" stroke-miterlimit="3.25" stroke-width=".5"><path d="M325.087 77.6h1.523M325.087 70.967h1.523M325.087 64.335h1.523M325.087 57.698h2.543"/></g><g transform="translate(-53.796 -10.81)"><use x="358.886" y="72.509" width="100%" height="100%" xlink:href="#c"/><use x="365.56" y="72.509" width="100%" height="100%" xlink:href="#d"/><use x="368.894" y="72.509" width="100%" height="100%" xlink:href="#g"/></g><g fill="none" stroke="#636363" stroke-miterlimit="3.25" stroke-width=".5"><path d="M325.087 51.065h1.523M325.087 44.432h1.523M325.087 37.795h1.523M325.087 31.163h2.543"/></g><g transform="translate(-53.796 -10.81)"><use x="358.886" y="45.972" width="100%" height="100%" xlink:href="#c"/><use x="365.56" y="45.972" width="100%" height="100%" xlink:href="#d"/><use x="368.894" y="45.972" width="100%" height="100%" xlink:href="#h"/></g><g fill="none" stroke="#636363" stroke-miterlimit="3.25" stroke-width=".5"><path d="M325.087 24.526h1.523M325.087 17.893h1.523M325.087 11.26h1.523M325.087 4.624h2.543"/></g><g transform="translate(-53.796 -10.81)"><use x="358.886" y="19.435" width="100%" height="100%" xlink:href="#i"/><use x="365.56" y="19.435" width="100%" height="100%" xlink:href="#d"/><use x="368.894" y="19.435" width="100%" height="100%" xlink:href="#c"/></g><g fill="none" stroke="#636363" stroke-miterlimit="3.25" stroke-width=".1"><path d="M329.387 4.624v2.148M370.597 4.624v2.148M411.827 4.624v2.148M453.047 4.624v2.148M494.267 4.624v2.148M535.487 4.624v2.148M339.687 4.624v1.527M349.997 4.624v1.527M360.297 4.624v1.527M380.907 4.624v1.527M391.217 4.624v1.527M401.517 4.624v1.527M422.127 4.624v1.527M432.437 4.624v1.527M442.737 4.624v1.527M463.347 4.624v1.527M473.657 4.624v1.527M483.957 4.624v1.527M504.567 4.624v1.527M514.877 4.624v1.527M525.177 4.624v1.527M539.777 137.31h-2.148M539.777 110.77h-2.148M539.777 84.24h-2.148M539.777 57.698h-2.148M539.777 31.163h-2.148M539.777 4.624h-2.148M539.777 130.67h-1.523M539.777 124.04h-1.523M539.777 117.41h-1.523M539.777 104.14h-1.523M539.777 97.51h-1.523M539.777 90.87h-1.523M539.777 77.6h-1.523M539.777 70.967h-1.523M539.777 64.335h-1.523M539.777 51.065h-1.523M539.777 44.432h-1.523M539.777 37.795h-1.523M539.777 24.526h-1.523M539.777 17.893h-1.523M539.777 11.26h-1.523"/></g><g transform="translate(-53.796 -10.81)"><use x="483.23" y="182.12" width="100%" height="100%" xlink:href="#j"/><use x="349.886" y="88.778" width="100%" height="100%" xlink:href="#k"/><use x="351.886" y="80.778" width="100%" height="100%" xlink:href="#q"/><use x="576.281" y="33.069" width="100%" height="100%" xlink:href="#m"/><use x="583.611" y="35.069" width="100%" height="100%" xlink:href="#r"/></g></svg>