<svg width="326pt" height="509pt" viewBox="0 0 326 509" xmlns="http://www.w3.org/2000/svg" xmlns:xlink="http://www.w3.org/1999/xlink"><defs><symbol id="a" overflow="visible"><path d="M8.32-5.578c0 .453-.078.875-.238 1.273a3.414 3.414 0 0 1-.656 1.063 3.52 3.52 0 0 1-.989.762 3.529 3.529 0 0 1-1.238.386V-.78H6.5V0H5.2v1.3h-.782V0H3.125v-.781h1.293v-1.313a3.544 3.544 0 0 1-1.246-.386 3.501 3.501 0 0 1-.985-.762 3.413 3.413 0 0 1-.652-1.059 3.467 3.467 0 0 1-.234-1.277c0-.484.093-.938.277-1.367.184-.426.434-.797.75-1.118.32-.316.691-.566 1.117-.75.43-.183.883-.277 1.367-.277.32 0 .63.043.93.13.297.081.574.202.836.35.258.153.492.34.711.555a3.562 3.562 0 0 1 .906 1.547c.086.297.125.606.125.93zm-.781 0a2.706 2.706 0 0 0-.793-1.934 2.7 2.7 0 0 0-1.934-.797c-.378 0-.73.07-1.062.215-.328.145-.617.34-.863.586-.25.25-.446.54-.59.867a2.623 2.623 0 0 0-.215 1.063 2.7 2.7 0 0 0 .797 1.93c.246.25.539.445.871.586s.684.21 1.062.21c.375 0 .731-.07 1.06-.214.331-.145.62-.34.866-.586.246-.246.442-.535.586-.868s.215-.683.215-1.058z"/></symbol><symbol id="b" overflow="visible"><path d="M6.563-1.398l-.766.78-2-2-2 2-.77-.765 2-1.988-1.988-2 .77-.781 2 2 1.988-1.985.754.766-1.973 1.988z"/></symbol><symbol id="c" overflow="visible"><path d="M9.242-5.668h-.781v-1.078L7.031-5.32c.25.308.442.652.574 1.03.13.38.196.77.196 1.165 0 .484-.09.937-.278 1.367-.183.426-.433.801-.75 1.117a3.556 3.556 0 0 1-1.117.75c-.43.184-.883.278-1.367.278S3.348.297 2.922.109c-.426-.183-.797-.433-1.113-.75s-.567-.687-.75-1.113A3.427 3.427 0 0 1 .78-3.125c0-.48.09-.934.278-1.36.183-.425.433-.796.753-1.113s.692-.57 1.118-.754a3.395 3.395 0 0 1 1.359-.273c.398 0 .785.062 1.164.195.375.133.723.32 1.035.563l1.426-1.426H6.836v-.781h2.406zM7.02-3.125a2.7 2.7 0 0 0-.796-1.93 2.7 2.7 0 0 0-1.934-.797c-.375 0-.727.07-1.059.215-.328.145-.617.34-.867.586-.246.25-.441.54-.586.867a2.618 2.618 0 0 0-.215 1.059 2.706 2.706 0 0 0 .797 1.934c.246.25.536.445.868.59a2.61 2.61 0 0 0 1.062.214 2.69 2.69 0 0 0 1.93-.804c.246-.247.441-.536.586-.868.144-.332.215-.687.215-1.066z"/></symbol><symbol id="d" overflow="visible"><path d="M1.066 0v-9.305h6.278v1.098H2.297v2.883h4.367v1.097H2.297V0z"/></symbol><symbol id="e" overflow="visible"><path d="M.844 0v-6.742H1.87v1.023c.262-.476.508-.793.727-.945.222-.152.468-.23.734-.23.387 0 .777.124 1.176.37l-.395 1.06a1.638 1.638 0 0 0-.84-.247c-.25 0-.472.074-.671.223-.2.152-.34.36-.426.625a4.518 4.518 0 0 0-.188 1.332v3.53z"/></symbol><symbol id="f" overflow="visible"><path d="M5.473-2.172l1.18.149c-.188.687-.532 1.222-1.036 1.605-.504.379-1.144.57-1.93.57-.984 0-1.765-.304-2.343-.91-.578-.61-.867-1.46-.867-2.555 0-1.132.292-2.015.875-2.64.585-.625 1.343-.942 2.273-.942.902 0 1.637.31 2.207.922.574.614.86 1.477.86 2.59 0 .067-.005.168-.009.305H1.656c.043.742.254 1.308.63 1.699.374.395.847.59 1.41.59.417 0 .777-.11 1.07-.328.296-.219.53-.57.707-1.055zM1.719-4.02h3.765c-.05-.566-.195-.992-.43-1.273a1.753 1.753 0 0 0-1.417-.66 1.82 1.82 0 0 0-1.324.527c-.356.352-.555.82-.594 1.406z"/></symbol><symbol id="g" overflow="visible"><path d="M5.156 2.582v-3.3c-.18.25-.43.456-.746.624-.32.164-.66.246-1.02.246-.8 0-1.488-.32-2.066-.957C.746-1.445.457-2.32.457-3.434c0-.675.117-1.285.352-1.824.234-.535.578-.941 1.023-1.219a2.723 2.723 0 0 1 1.469-.418c.832 0 1.488.352 1.969 1.055v-.902h1.027v9.324zM1.633-3.391c0 .867.18 1.52.543 1.953s.8.649 1.308.649c.489 0 .907-.203 1.258-.617.352-.414.528-1.04.528-1.883 0-.899-.188-1.57-.555-2.024-.371-.453-.809-.68-1.305-.68s-.918.212-1.262.634-.515 1.078-.515 1.968z"/></symbol><symbol id="h" overflow="visible"><path d="M5.273 0v-.992C4.75-.23 4.04.152 3.137.152c-.399 0-.77-.074-1.114-.23-.347-.152-.601-.344-.77-.574a2.112 2.112 0 0 1-.35-.848C.854-1.723.831-2.078.831-2.563v-4.18h1.14v3.74c0 .597.024 1 .07 1.206.075.3.227.535.458.707.234.172.523.258.863.258.344 0 .664-.086.965-.262s.516-.414.64-.719c.126-.3.188-.742.188-1.316v-3.613h1.14V0z"/></symbol><symbol id="i" overflow="visible"><path d="M.855 0v-6.742h1.032v.96c.496-.741 1.207-1.113 2.144-1.113.406 0 .778.075 1.121.22.34.148.594.339.762.573.172.239.29.52.36.844.038.211.062.582.062 1.113V0H5.19v-4.102c0-.464-.043-.812-.132-1.043s-.247-.414-.473-.55a1.478 1.478 0 0 0-.797-.207c-.484 0-.906.152-1.258.46C2.176-5.132 2-4.547 2-3.68V0z"/></symbol><symbol id="j" overflow="visible"><path d="M5.258-2.469l1.12.145c-.12.773-.437 1.383-.94 1.82-.508.438-1.13.656-1.864.656-.922 0-1.664-.3-2.226-.906-.559-.602-.84-1.465-.84-2.59 0-.73.12-1.367.363-1.914a2.505 2.505 0 0 1 1.102-1.226 3.251 3.251 0 0 1 1.605-.41c.735 0 1.332.187 1.797.554.465.371.766.898.898 1.578L5.16-4.59c-.105-.453-.293-.793-.562-1.02a1.445 1.445 0 0 0-.973-.343c-.574 0-1.043.207-1.402.617-.36.414-.54 1.066-.54 1.96 0 .907.173 1.563.52 1.974s.801.613 1.36.613c.449 0 .82-.137 1.12-.41.301-.278.493-.7.575-1.27z"/></symbol><symbol id="k" overflow="visible"><path d="M.805 2.598L.68 1.524c.25.066.468.101.652.101.254 0 .457-.043.61-.125.152-.086.277-.203.374-.36.075-.113.188-.394.348-.847.024-.062.059-.156.102-.281L.21-6.742h1.23l1.403 3.906c.183.492.343 1.016.488 1.559.133-.524.29-1.036.469-1.536l1.441-3.93h1.145L3.82.114c-.273.742-.488 1.25-.64 1.531-.203.375-.434.653-.7.829-.261.175-.574.261-.937.261a2.4 2.4 0 0 1-.738-.136z"/></symbol><symbol id="l" overflow="visible"><path d="M3.371 0v-8.207H.305v-1.098H7.68v1.098H4.602V0z"/></symbol><symbol id="n" overflow="visible"><path d="M1.004 0v-9.305h3.508c.617 0 1.09.028 1.418.086.457.078.84.223 1.148.438s.559.511.746.898c.188.383.281.809.281 1.27 0 .789-.25 1.46-.753 2.007-.504.547-1.415.825-2.731.825H2.234v3.78zm1.23-4.883h2.407c.796 0 1.359-.148 1.695-.441.332-.297.5-.715.5-1.254 0-.387-.098-.719-.293-.996-.2-.278-.457-.461-.777-.551-.207-.055-.594-.082-1.153-.082H2.234z"/></symbol><symbol id="u" overflow="visible"><path d="M4.844 0H3.699v-7.281a5.934 5.934 0 0 1-1.082.789 7.823 7.823 0 0 1-1.203.59v-1.106c.64-.3 1.2-.664 1.676-1.094.48-.425.816-.84 1.016-1.242h.738z"/></symbol><symbol id="v" overflow="visible"><path d="M.54-4.59c0-1.101.112-1.984.339-2.656.226-.672.562-1.188 1.008-1.55.449-.364 1.011-.548 1.687-.548.5 0 .938.102 1.313.301.379.203.687.492.933.871.246.38.438.84.578 1.383.141.543.211 1.277.211 2.2 0 1.093-.113 1.972-.336 2.644-.226.672-.562 1.187-1.007 1.554C4.82-.023 4.254.16 3.574.16c-.898 0-1.601-.324-2.113-.965C.848-1.578.539-2.84.539-4.59zm1.175 0c0 1.527.18 2.543.535 3.051.36.504.8.758 1.324.758s.965-.254 1.324-.762c.356-.508.536-1.523.536-3.047 0-1.531-.18-2.55-.536-3.05-.359-.505-.804-.758-1.335-.758-.528 0-.946.222-1.258.668-.395.566-.59 1.613-.59 3.14z"/></symbol><symbol id="m" overflow="visible"><path d="M3.438 0h-.81v-5.168c-.194.188-.452.371-.769.559s-.601.324-.855.418v-.786c.453-.21.851-.468 1.191-.773.34-.305.578-.598.72-.883h.523z"/></symbol><symbol id="o" overflow="visible"><path d="M4.644-.781V0H.281a1.376 1.376 0 0 1 .094-.563c.11-.296.289-.59.531-.878.246-.29.602-.621 1.063-1 .718-.59 1.203-1.055 1.457-1.403.25-.343.379-.668.379-.972 0-.32-.118-.594-.348-.817-.23-.219-.527-.328-.898-.328-.391 0-.704.117-.938.352s-.352.558-.355.972l-.832-.086c.054-.62.269-1.097.644-1.422.371-.324.871-.488 1.5-.488.633 0 1.137.176 1.504.528.371.351.555.785.555 1.304 0 .266-.055.528-.16.781-.11.254-.29.524-.54.805-.25.285-.668.672-1.25 1.164-.488.41-.8.688-.937.832-.14.145-.254.293-.344.438z"/></symbol><symbol id="p" overflow="visible"><path d="M5.047-6.606h.875v3.817c0 .664-.074 1.191-.227 1.582-.148.39-.422.707-.812.953-.39.246-.906.367-1.543.367-.621 0-1.125-.105-1.52-.32a1.835 1.835 0 0 1-.843-.926c-.168-.406-.25-.957-.25-1.656v-3.816h.875v3.812c0 .574.05.996.16 1.266.105.273.289.484.547.629.261.148.578.222.953.222.644 0 1.101-.144 1.375-.437.273-.293.41-.852.41-1.68z"/></symbol><symbol id="r" overflow="visible"><path d="M.066 0l1.75-2.488L.2-4.785h1.012l.734 1.12c.14.216.25.392.336.536.133-.2.254-.371.363-.527l.81-1.13h.968L2.766-2.53l1.78 2.53h-.995l-.98-1.487-.262-.399L1.05 0z"/></symbol><symbol id="t" overflow="visible"><path d="M2.379-.727l.117.72c-.226.046-.434.07-.613.07-.293 0-.524-.047-.684-.141a.777.777 0 0 1-.344-.367C.79-.598.758-.915.758-1.402v-2.754H.164v-.63h.594v-1.187l.805-.484v1.672h.816v.629h-.816v2.8c0 .231.015.38.042.446a.34.34 0 0 0 .141.156c.066.04.156.059.277.059.09 0 .207-.008.356-.032z"/></symbol><symbol id="x" overflow="visible"><path d="M.598 0v-4.785h.73v.726c.188-.34.36-.566.516-.672a.903.903 0 0 1 .523-.164c.274 0 .551.086.832.262l-.277.754a1.17 1.17 0 0 0-.598-.176.755.755 0 0 0-.476.16.855.855 0 0 0-.301.442c-.09.289-.137.605-.137.95V0z"/></symbol><symbol id="q" overflow="visible"><path d="M3.352 0h-.79v-5.04c-.19.18-.44.364-.75.544a5.395 5.395 0 0 1-.831.41v-.766c.44-.207.828-.46 1.16-.757.332-.293.566-.582.703-.86h.508z"/></symbol><symbol id="s" overflow="visible"><path d="M4.531-.762V0H.273a1.384 1.384 0 0 1 .09-.55c.11-.29.285-.575.524-.856s.582-.606 1.035-.977c.7-.574 1.172-1.027 1.418-1.363.246-.336.371-.652.371-.953 0-.313-.113-.578-.34-.793-.223-.215-.515-.32-.875-.32-.379 0-.683.113-.914.34-.23.23-.344.546-.348.949l-.812-.082c.055-.606.266-1.07.629-1.387.363-.317.851-.477 1.465-.477.617 0 1.105.172 1.464.516s.543.765.543 1.273c0 .258-.054.512-.16.758-.105.25-.281.512-.523.79-.246.273-.653.651-1.223 1.132-.473.398-.777.668-.914.812a2.87 2.87 0 0 0-.332.426z"/></symbol><symbol id="w" overflow="visible"><path d="M4.879-2.023H.508v-.758h4.37z"/></symbol></defs><g stroke="#000" stroke-miterlimit="10" stroke-width=".03"><path d="M37.582 2h288v1h-288zM37.582 21h288v1h-288zM37.582 506h288v1h-288z"/></g><use x="56.583" y="15.5" xlink:href="#a"/><use x="66.583" y="15.5" xlink:href="#b"/><use x="74.583" y="15.5" xlink:href="#c"/><use x="112.583" y="15.5" xlink:href="#d"/><use x="120.525" y="15.5" xlink:href="#e"/><use x="124.854" y="15.5" xlink:href="#f"/><use x="132.084" y="15.5" xlink:href="#g"/><use x="139.315" y="15.5" xlink:href="#h"/><use x="146.545" y="15.5" xlink:href="#f"/><use x="153.776" y="15.5" xlink:href="#i"/><use x="161.006" y="15.5" xlink:href="#j"/><use x="167.506" y="15.5" xlink:href="#k"/><use x="182.583" y="15.5" xlink:href="#l"/><use x="190.583" y="17.5" xlink:href="#m"/><use x="196.583" y="15.5" xlink:href="#n"/><use x="205.583" y="17.5" xlink:href="#m"/><use x="220.583" y="15.5" xlink:href="#l"/><use x="228.583" y="17.5" xlink:href="#m"/><use x="234.583" y="15.5" xlink:href="#n"/><use x="243.583" y="17.5" xlink:href="#o"/><use x="258.583" y="15.5" xlink:href="#l"/><use x="266.583" y="17.5" xlink:href="#o"/><use x="272.583" y="15.5" xlink:href="#n"/><use x="281.583" y="17.5" xlink:href="#m"/><use x="296.583" y="15.5" xlink:href="#l"/><use x="304.583" y="17.5" xlink:href="#o"/><use x="310.583" y="15.5" xlink:href="#n"/><use x="319.583" y="17.5" xlink:href="#o"/><use x="37.583" y="41.5" xlink:href="#l"/><use x="45.583" y="43.5" xlink:href="#m"/><use x="51.583" y="41.5" xlink:href="#n"/><use x="60.583" y="43.5" xlink:href="#m"/><use x="66.583" y="41.5" xlink:href="#b"/><use x="74.583" y="41.5" xlink:href="#l"/><use x="82.583" y="43.5" xlink:href="#m"/><use x="88.583" y="41.5" xlink:href="#n"/><use x="97.583" y="43.5" xlink:href="#m"/><path d="M128.71 37h-3.125v1.066h36.125V37z" fill-rule="evenodd"/><use x="125.083" y="33.5" xlink:href="#p"/><use x="132.083" y="36.3" xlink:href="#q"/><use x="137.089" y="36.3" xlink:href="#q"/><use x="145.083" y="33.5" xlink:href="#r"/><use x="150.083" y="37.3" xlink:href="#q"/><use x="155.089" y="37.3" xlink:href="#q"/><use x="150.083" y="30.3" xlink:href="#s"/><use x="138.583" y="49.5" xlink:href="#t"/><use x="141.583" y="52.3" xlink:href="#q"/><use x="193.583" y="41.5" xlink:href="#u"/><use x="231.583" y="41.5" xlink:href="#v"/><use x="269.583" y="41.5" xlink:href="#v"/><use x="307.583" y="41.5" xlink:href="#v"/><use x="37.583" y="70.5" xlink:href="#l"/><use x="45.583" y="72.5" xlink:href="#m"/><use x="51.583" y="70.5" xlink:href="#n"/><use x="60.583" y="72.5" xlink:href="#m"/><use x="66.583" y="70.5" xlink:href="#b"/><use x="74.583" y="70.5" xlink:href="#l"/><use x="82.583" y="72.5" xlink:href="#m"/><use x="88.583" y="70.5" xlink:href="#n"/><use x="97.583" y="72.5" xlink:href="#o"/><path d="M119.71 66h-3.125v1.066h54.125V66z" fill-rule="evenodd"/><use x="116.083" y="63.5" xlink:href="#p"/><use x="123.083" y="66.3" xlink:href="#q"/><use x="128.089" y="66.3" xlink:href="#q"/><use x="136.083" y="63.5" xlink:href="#r"/><use x="141.083" y="66.3" xlink:href="#q"/><use x="146.089" y="66.3" xlink:href="#q"/><use x="154.083" y="63.5" xlink:href="#r"/><use x="159.083" y="66.3" xlink:href="#q"/><use x="164.089" y="66.3" xlink:href="#s"/><use x="138.583" y="78.5" xlink:href="#t"/><use x="141.583" y="81.3" xlink:href="#q"/><path d="M197.71 66h-3.125v1.066h3.125-1.125 3.125V66h-3.125z" fill-rule="evenodd"/><use x="194.583" y="64.5" xlink:href="#m"/><use x="194.583" y="78.5" xlink:href="#o"/><path d="M235.71 66h-3.125v1.066h3.125-1.125 3.125V66h-3.125z" fill-rule="evenodd"/><use x="232.583" y="64.5" xlink:href="#m"/><use x="232.583" y="78.5" xlink:href="#o"/><use x="269.583" y="70.5" xlink:href="#v"/><use x="307.583" y="70.5" xlink:href="#v"/><use x="37.583" y="99.5" xlink:href="#l"/><use x="45.583" y="101.5" xlink:href="#m"/><use x="51.583" y="99.5" xlink:href="#n"/><use x="60.583" y="101.5" xlink:href="#m"/><use x="66.583" y="99.5" xlink:href="#b"/><use x="74.583" y="99.5" xlink:href="#l"/><use x="82.583" y="101.5" xlink:href="#o"/><use x="88.583" y="99.5" xlink:href="#n"/><use x="97.583" y="101.5" xlink:href="#m"/><path d="M119.71 95h-3.125v1.066h54.125V95z" fill-rule="evenodd"/><use x="116.083" y="92.5" xlink:href="#p"/><use x="123.083" y="95.3" xlink:href="#q"/><use x="128.089" y="95.3" xlink:href="#s"/><use x="136.083" y="92.5" xlink:href="#r"/><use x="141.083" y="95.3" xlink:href="#q"/><use x="146.089" y="95.3" xlink:href="#q"/><use x="154.083" y="92.5" xlink:href="#r"/><use x="159.083" y="95.3" xlink:href="#s"/><use x="164.089" y="95.3" xlink:href="#q"/><use x="138.583" y="107.5" xlink:href="#t"/><use x="141.583" y="110.3" xlink:href="#s"/><path d="M197.71 95h-3.125v1.066h3.125-1.125 3.125V95h-3.125z" fill-rule="evenodd"/><use x="194.583" y="93.5" xlink:href="#m"/><use x="194.583" y="107.5" xlink:href="#o"/><use x="231.583" y="99.5" xlink:href="#v"/><path d="M273.71 95h-3.125v1.066h3.125-1.125 3.125V95h-3.125z" fill-rule="evenodd"/><use x="270.583" y="93.5" xlink:href="#m"/><use x="270.583" y="107.5" xlink:href="#o"/><use x="307.583" y="99.5" xlink:href="#v"/><use x="37.583" y="128.5" xlink:href="#l"/><use x="45.583" y="130.5" xlink:href="#m"/><use x="51.583" y="128.5" xlink:href="#n"/><use x="60.583" y="130.5" xlink:href="#m"/><use x="66.583" y="128.5" xlink:href="#b"/><use x="74.583" y="128.5" xlink:href="#l"/><use x="82.583" y="130.5" xlink:href="#o"/><use x="88.583" y="128.5" xlink:href="#n"/><use x="97.583" y="130.5" xlink:href="#o"/><path d="M119.71 124h-3.125v1.066h54.125V124z" fill-rule="evenodd"/><use x="116.083" y="121.5" xlink:href="#p"/><use x="123.083" y="124.3" xlink:href="#q"/><use x="128.089" y="124.3" xlink:href="#s"/><use x="136.083" y="121.5" xlink:href="#r"/><use x="141.083" y="124.3" xlink:href="#q"/><use x="146.089" y="124.3" xlink:href="#q"/><use x="154.083" y="121.5" xlink:href="#r"/><use x="159.083" y="124.3" xlink:href="#s"/><use x="164.089" y="124.3" xlink:href="#s"/><use x="138.583" y="136.5" xlink:href="#t"/><use x="141.583" y="139.3" xlink:href="#s"/><path d="M193.71 124h-3.125v1.066h13.125V124z" fill-rule="evenodd"/><use x="190.583" y="122.5" xlink:href="#m"/><use x="195.583" y="122.5" xlink:href="#w"/><use x="200.583" y="122.5" xlink:href="#x"/><use x="194.583" y="136.5" xlink:href="#o"/><path d="M235.71 124h-3.125v1.066h3.125-1.125 3.125V124h-3.125z" fill-rule="evenodd"/><use x="233.583" y="122.5" xlink:href="#x"/><use x="232.583" y="136.5" xlink:href="#o"/><path d="M273.71 124h-3.125v1.066h3.125-1.125 3.125V124h-3.125z" fill-rule="evenodd"/><use x="271.583" y="122.5" xlink:href="#x"/><use x="270.583" y="136.5" xlink:href="#o"/><path d="M307.71 124h-3.125v1.066h13.125V124z" fill-rule="evenodd"/><use x="304.583" y="122.5" xlink:href="#m"/><use x="309.583" y="122.5" xlink:href="#w"/><use x="314.583" y="122.5" xlink:href="#x"/><use x="308.583" y="136.5" xlink:href="#o"/><use x="37.583" y="157.5" xlink:href="#l"/><use x="45.583" y="159.5" xlink:href="#m"/><use x="51.583" y="157.5" xlink:href="#n"/><use x="60.583" y="159.5" xlink:href="#o"/><use x="66.583" y="157.5" xlink:href="#b"/><use x="74.583" y="157.5" xlink:href="#l"/><use x="82.583" y="159.5" xlink:href="#m"/><use x="88.583" y="157.5" xlink:href="#n"/><use x="97.583" y="159.5" xlink:href="#m"/><path d="M119.71 153h-3.125v1.066h54.125V153z" fill-rule="evenodd"/><use x="116.083" y="150.5" xlink:href="#p"/><use x="123.083" y="153.3" xlink:href="#s"/><use x="128.089" y="153.3" xlink:href="#q"/><use x="136.083" y="150.5" xlink:href="#r"/><use x="141.083" y="153.3" xlink:href="#q"/><use x="146.089" y="153.3" xlink:href="#q"/><use x="154.083" y="150.5" xlink:href="#r"/><use x="159.083" y="153.3" xlink:href="#q"/><use x="164.089" y="153.3" xlink:href="#s"/><use x="138.583" y="165.5" xlink:href="#t"/><use x="141.583" y="168.3" xlink:href="#q"/><path d="M197.71 153h-3.125v1.066h3.125-1.125 3.125V153h-3.125z" fill-rule="evenodd"/><use x="194.583" y="151.5" xlink:href="#m"/><use x="194.583" y="165.5" xlink:href="#o"/><path d="M235.71 153h-3.125v1.066h3.125-1.125 3.125V153h-3.125z" fill-rule="evenodd"/><use x="232.583" y="151.5" xlink:href="#m"/><use x="232.583" y="165.5" xlink:href="#o"/><use x="269.583" y="157.5" xlink:href="#v"/><use x="307.583" y="157.5" xlink:href="#v"/><use x="37.583" y="191.5" xlink:href="#l"/><use x="45.583" y="193.5" xlink:href="#m"/><use x="51.583" y="191.5" xlink:href="#n"/><use x="60.583" y="193.5" xlink:href="#o"/><use x="66.583" y="191.5" xlink:href="#b"/><use x="74.583" y="191.5" xlink:href="#l"/><use x="82.583" y="193.5" xlink:href="#m"/><use x="88.583" y="191.5" xlink:href="#n"/><use x="97.583" y="193.5" xlink:href="#o"/><path d="M128.71 187h-3.125v1.066h36.125V187z" fill-rule="evenodd"/><use x="125.083" y="183.5" xlink:href="#p"/><use x="132.083" y="186.3" xlink:href="#s"/><use x="137.089" y="186.3" xlink:href="#q"/><use x="145.083" y="183.5" xlink:href="#r"/><use x="150.083" y="187.3" xlink:href="#q"/><use x="155.089" y="187.3" xlink:href="#s"/><use x="150.083" y="180.3" xlink:href="#s"/><use x="138.583" y="199.5" xlink:href="#t"/><use x="141.583" y="202.3" xlink:href="#q"/><use x="193.583" y="191.5" xlink:href="#v"/><use x="231.583" y="191.5" xlink:href="#u"/><use x="269.583" y="191.5" xlink:href="#v"/><use x="307.583" y="191.5" xlink:href="#v"/><use x="37.583" y="220.5" xlink:href="#l"/><use x="45.583" y="222.5" xlink:href="#m"/><use x="51.583" y="220.5" xlink:href="#n"/><use x="60.583" y="222.5" xlink:href="#o"/><use x="66.583" y="220.5" xlink:href="#b"/><use x="74.583" y="220.5" xlink:href="#l"/><use x="82.583" y="222.5" xlink:href="#o"/><use x="88.583" y="220.5" xlink:href="#n"/><use x="97.583" y="222.5" xlink:href="#m"/><path d="M119.71 216h-3.125v1.066h54.125V216z" fill-rule="evenodd"/><use x="116.083" y="213.5" xlink:href="#p"/><use x="123.083" y="216.3" xlink:href="#s"/><use x="128.089" y="216.3" xlink:href="#s"/><use x="136.083" y="213.5" xlink:href="#r"/><use x="141.083" y="216.3" xlink:href="#q"/><use x="146.089" y="216.3" xlink:href="#s"/><use x="154.083" y="213.5" xlink:href="#r"/><use x="159.083" y="216.3" xlink:href="#s"/><use x="164.089" y="216.3" xlink:href="#q"/><use x="138.583" y="228.5" xlink:href="#t"/><use x="141.583" y="231.3" xlink:href="#s"/><path d="M197.71 216h-3.125v1.066h3.125-1.125 3.125V216h-3.125z" fill-rule="evenodd"/><use x="195.583" y="214.5" xlink:href="#x"/><use x="194.583" y="228.5" xlink:href="#o"/><path d="M231.71 216h-3.125v1.066h13.125V216z" fill-rule="evenodd"/><use x="228.583" y="214.5" xlink:href="#m"/><use x="233.583" y="214.5" xlink:href="#w"/><use x="238.583" y="214.5" xlink:href="#x"/><use x="232.583" y="228.5" xlink:href="#o"/><path d="M269.71 216h-3.125v1.066h13.125V216z" fill-rule="evenodd"/><use x="266.583" y="214.5" xlink:href="#m"/><use x="271.583" y="214.5" xlink:href="#w"/><use x="276.583" y="214.5" xlink:href="#x"/><use x="270.583" y="228.5" xlink:href="#o"/><path d="M311.71 216h-3.125v1.066h3.125-1.125 3.125V216h-3.125z" fill-rule="evenodd"/><use x="309.583" y="214.5" xlink:href="#x"/><use x="308.583" y="228.5" xlink:href="#o"/><use x="37.583" y="249.5" xlink:href="#l"/><use x="45.583" y="251.5" xlink:href="#m"/><use x="51.583" y="249.5" xlink:href="#n"/><use x="60.583" y="251.5" xlink:href="#o"/><use x="66.583" y="249.5" xlink:href="#b"/><use x="74.583" y="249.5" xlink:href="#l"/><use x="82.583" y="251.5" xlink:href="#o"/><use x="88.583" y="249.5" xlink:href="#n"/><use x="97.583" y="251.5" xlink:href="#o"/><path d="M119.71 245h-3.125v1.066h54.125V245z" fill-rule="evenodd"/><use x="116.083" y="242.5" xlink:href="#p"/><use x="123.083" y="245.3" xlink:href="#s"/><use x="128.089" y="245.3" xlink:href="#s"/><use x="136.083" y="242.5" xlink:href="#r"/><use x="141.083" y="245.3" xlink:href="#q"/><use x="146.089" y="245.3" xlink:href="#s"/><use x="154.083" y="242.5" xlink:href="#r"/><use x="159.083" y="245.3" xlink:href="#s"/><use x="164.089" y="245.3" xlink:href="#s"/><use x="138.583" y="257.5" xlink:href="#t"/><use x="141.583" y="260.3" xlink:href="#s"/><use x="193.583" y="249.5" xlink:href="#v"/><path d="M235.71 245h-3.125v1.066h3.125-1.125 3.125V245h-3.125z" fill-rule="evenodd"/><use x="232.583" y="243.5" xlink:href="#m"/><use x="232.583" y="257.5" xlink:href="#o"/><use x="269.583" y="249.5" xlink:href="#v"/><path d="M311.71 245h-3.125v1.066h3.125-1.125 3.125V245h-3.125z" fill-rule="evenodd"/><use x="308.583" y="243.5" xlink:href="#m"/><use x="308.583" y="257.5" xlink:href="#o"/><use x="37.583" y="278.5" xlink:href="#l"/><use x="45.583" y="280.5" xlink:href="#o"/><use x="51.583" y="278.5" xlink:href="#n"/><use x="60.583" y="280.5" xlink:href="#m"/><use x="66.583" y="278.5" xlink:href="#b"/><use x="74.583" y="278.5" xlink:href="#l"/><use x="82.583" y="280.5" xlink:href="#m"/><use x="88.583" y="278.5" xlink:href="#n"/><use x="97.583" y="280.5" xlink:href="#m"/><path d="M119.71 274h-3.125v1.066h54.125V274z" fill-rule="evenodd"/><use x="116.083" y="271.5" xlink:href="#p"/><use x="123.083" y="274.3" xlink:href="#q"/><use x="128.089" y="274.3" xlink:href="#q"/><use x="136.083" y="271.5" xlink:href="#r"/><use x="141.083" y="274.3" xlink:href="#q"/><use x="146.089" y="274.3" xlink:href="#q"/><use x="154.083" y="271.5" xlink:href="#r"/><use x="159.083" y="274.3" xlink:href="#s"/><use x="164.089" y="274.3" xlink:href="#q"/><use x="138.583" y="286.5" xlink:href="#t"/><use x="141.583" y="289.3" xlink:href="#q"/><path d="M197.71 274h-3.125v1.066h3.125-1.125 3.125V274h-3.125z" fill-rule="evenodd"/><use x="194.583" y="272.5" xlink:href="#m"/><use x="194.583" y="286.5" xlink:href="#o"/><use x="231.583" y="278.5" xlink:href="#v"/><path d="M273.71 274h-3.125v1.066h3.125-1.125 3.125V274h-3.125z" fill-rule="evenodd"/><use x="270.583" y="272.5" xlink:href="#m"/><use x="270.583" y="286.5" xlink:href="#o"/><use x="307.583" y="278.5" xlink:href="#v"/><use x="37.583" y="307.5" xlink:href="#l"/><use x="45.583" y="309.5" xlink:href="#o"/><use x="51.583" y="307.5" xlink:href="#n"/><use x="60.583" y="309.5" xlink:href="#m"/><use x="66.583" y="307.5" xlink:href="#b"/><use x="74.583" y="307.5" xlink:href="#l"/><use x="82.583" y="309.5" xlink:href="#m"/><use x="88.583" y="307.5" xlink:href="#n"/><use x="97.583" y="309.5" xlink:href="#o"/><path d="M119.71 303h-3.125v1.066h54.125V303z" fill-rule="evenodd"/><use x="116.083" y="300.5" xlink:href="#p"/><use x="123.083" y="303.3" xlink:href="#q"/><use x="128.089" y="303.3" xlink:href="#q"/><use x="136.083" y="300.5" xlink:href="#r"/><use x="141.083" y="303.3" xlink:href="#q"/><use x="146.089" y="303.3" xlink:href="#s"/><use x="154.083" y="300.5" xlink:href="#r"/><use x="159.083" y="303.3" xlink:href="#s"/><use x="164.089" y="303.3" xlink:href="#q"/><use x="138.583" y="315.5" xlink:href="#t"/><use x="141.583" y="318.3" xlink:href="#q"/><path d="M197.71 303h-3.125v1.066h3.125-1.125 3.125V303h-3.125z" fill-rule="evenodd"/><use x="195.583" y="301.5" xlink:href="#x"/><use x="194.583" y="315.5" xlink:href="#o"/><path d="M231.71 303h-3.125v1.066h13.125V303z" fill-rule="evenodd"/><use x="228.583" y="301.5" xlink:href="#m"/><use x="233.583" y="301.5" xlink:href="#w"/><use x="238.583" y="301.5" xlink:href="#x"/><use x="232.583" y="315.5" xlink:href="#o"/><path d="M269.71 303h-3.125v1.066h13.125V303z" fill-rule="evenodd"/><use x="266.583" y="301.5" xlink:href="#m"/><use x="271.583" y="301.5" xlink:href="#w"/><use x="276.583" y="301.5" xlink:href="#x"/><use x="270.583" y="315.5" xlink:href="#o"/><path d="M311.71 303h-3.125v1.066h3.125-1.125 3.125V303h-3.125z" fill-rule="evenodd"/><use x="309.583" y="301.5" xlink:href="#x"/><use x="308.583" y="315.5" xlink:href="#o"/><use x="37.583" y="341.5" xlink:href="#l"/><use x="45.583" y="343.5" xlink:href="#o"/><use x="51.583" y="341.5" xlink:href="#n"/><use x="60.583" y="343.5" xlink:href="#m"/><use x="66.583" y="341.5" xlink:href="#b"/><use x="74.583" y="341.5" xlink:href="#l"/><use x="82.583" y="343.5" xlink:href="#o"/><use x="88.583" y="341.5" xlink:href="#n"/><use x="97.583" y="343.5" xlink:href="#m"/><path d="M128.71 337h-3.125v1.066h36.125V337z" fill-rule="evenodd"/><use x="125.083" y="333.5" xlink:href="#p"/><use x="132.083" y="336.3" xlink:href="#q"/><use x="137.089" y="336.3" xlink:href="#s"/><use x="145.083" y="333.5" xlink:href="#r"/><use x="150.083" y="337.3" xlink:href="#s"/><use x="155.089" y="337.3" xlink:href="#q"/><use x="150.083" y="330.3" xlink:href="#s"/><use x="138.583" y="349.5" xlink:href="#t"/><use x="141.583" y="352.3" xlink:href="#s"/><use x="193.583" y="341.5" xlink:href="#v"/><use x="231.583" y="341.5" xlink:href="#v"/><use x="269.583" y="341.5" xlink:href="#u"/><use x="307.583" y="341.5" xlink:href="#v"/><use x="37.583" y="370.5" xlink:href="#l"/><use x="45.583" y="372.5" xlink:href="#o"/><use x="51.583" y="370.5" xlink:href="#n"/><use x="60.583" y="372.5" xlink:href="#m"/><use x="66.583" y="370.5" xlink:href="#b"/><use x="74.583" y="370.5" xlink:href="#l"/><use x="82.583" y="372.5" xlink:href="#o"/><use x="88.583" y="370.5" xlink:href="#n"/><use x="97.583" y="372.5" xlink:href="#o"/><path d="M119.71 366h-3.125v1.066h54.125V366z" fill-rule="evenodd"/><use x="116.083" y="363.5" xlink:href="#p"/><use x="123.083" y="366.3" xlink:href="#q"/><use x="128.089" y="366.3" xlink:href="#s"/><use x="136.083" y="363.5" xlink:href="#r"/><use x="141.083" y="366.3" xlink:href="#s"/><use x="146.089" y="366.3" xlink:href="#q"/><use x="154.083" y="363.5" xlink:href="#r"/><use x="159.083" y="366.3" xlink:href="#s"/><use x="164.089" y="366.3" xlink:href="#s"/><use x="138.583" y="378.5" xlink:href="#t"/><use x="141.583" y="381.3" xlink:href="#s"/><use x="193.583" y="370.5" xlink:href="#v"/><use x="231.583" y="370.5" xlink:href="#v"/><path d="M273.71 366h-3.125v1.066h3.125-1.125 3.125V366h-3.125z" fill-rule="evenodd"/><use x="270.583" y="364.5" xlink:href="#m"/><use x="270.583" y="378.5" xlink:href="#o"/><path d="M311.71 366h-3.125v1.066h3.125-1.125 3.125V366h-3.125z" fill-rule="evenodd"/><use x="308.583" y="364.5" xlink:href="#m"/><use x="308.583" y="378.5" xlink:href="#o"/><use x="37.583" y="399.5" xlink:href="#l"/><use x="45.583" y="401.5" xlink:href="#o"/><use x="51.583" y="399.5" xlink:href="#n"/><use x="60.583" y="401.5" xlink:href="#o"/><use x="66.583" y="399.5" xlink:href="#b"/><use x="74.583" y="399.5" xlink:href="#l"/><use x="82.583" y="401.5" xlink:href="#m"/><use x="88.583" y="399.5" xlink:href="#n"/><use x="97.583" y="401.5" xlink:href="#m"/><path d="M119.71 395h-3.125v1.066h54.125V395z" fill-rule="evenodd"/><use x="116.083" y="392.5" xlink:href="#p"/><use x="123.083" y="395.3" xlink:href="#s"/><use x="128.089" y="395.3" xlink:href="#q"/><use x="136.083" y="392.5" xlink:href="#r"/><use x="141.083" y="395.3" xlink:href="#q"/><use x="146.089" y="395.3" xlink:href="#q"/><use x="154.083" y="392.5" xlink:href="#r"/><use x="159.083" y="395.3" xlink:href="#s"/><use x="164.089" y="395.3" xlink:href="#s"/><use x="138.583" y="407.5" xlink:href="#t"/><use x="141.583" y="410.3" xlink:href="#q"/><path d="M193.71 395h-3.125v1.066h13.125V395z" fill-rule="evenodd"/><use x="190.583" y="393.5" xlink:href="#m"/><use x="195.583" y="393.5" xlink:href="#w"/><use x="200.583" y="393.5" xlink:href="#x"/><use x="194.583" y="407.5" xlink:href="#o"/><path d="M235.71 395h-3.125v1.066h3.125-1.125 3.125V395h-3.125z" fill-rule="evenodd"/><use x="233.583" y="393.5" xlink:href="#x"/><use x="232.583" y="407.5" xlink:href="#o"/><path d="M273.71 395h-3.125v1.066h3.125-1.125 3.125V395h-3.125z" fill-rule="evenodd"/><use x="271.583" y="393.5" xlink:href="#x"/><use x="270.583" y="407.5" xlink:href="#o"/><path d="M307.71 395h-3.125v1.066h13.125V395z" fill-rule="evenodd"/><use x="304.583" y="393.5" xlink:href="#m"/><use x="309.583" y="393.5" xlink:href="#w"/><use x="314.583" y="393.5" xlink:href="#x"/><use x="308.583" y="407.5" xlink:href="#o"/><use x="37.583" y="428.5" xlink:href="#l"/><use x="45.583" y="430.5" xlink:href="#o"/><use x="51.583" y="428.5" xlink:href="#n"/><use x="60.583" y="430.5" xlink:href="#o"/><use x="66.583" y="428.5" xlink:href="#b"/><use x="74.583" y="428.5" xlink:href="#l"/><use x="82.583" y="430.5" xlink:href="#m"/><use x="88.583" y="428.5" xlink:href="#n"/><use x="97.583" y="430.5" xlink:href="#o"/><path d="M119.71 424h-3.125v1.066h54.125V424z" fill-rule="evenodd"/><use x="116.083" y="421.5" xlink:href="#p"/><use x="123.083" y="424.3" xlink:href="#s"/><use x="128.089" y="424.3" xlink:href="#q"/><use x="136.083" y="421.5" xlink:href="#r"/><use x="141.083" y="424.3" xlink:href="#q"/><use x="146.089" y="424.3" xlink:href="#s"/><use x="154.083" y="421.5" xlink:href="#r"/><use x="159.083" y="424.3" xlink:href="#s"/><use x="164.089" y="424.3" xlink:href="#s"/><use x="138.583" y="436.5" xlink:href="#t"/><use x="141.583" y="439.3" xlink:href="#q"/><use x="193.583" y="428.5" xlink:href="#v"/><path d="M235.71 424h-3.125v1.066h3.125-1.125 3.125V424h-3.125z" fill-rule="evenodd"/><use x="232.583" y="422.5" xlink:href="#m"/><use x="232.583" y="436.5" xlink:href="#o"/><use x="269.583" y="428.5" xlink:href="#v"/><path d="M311.71 424h-3.125v1.066h3.125-1.125 3.125V424h-3.125z" fill-rule="evenodd"/><use x="308.583" y="422.5" xlink:href="#m"/><use x="308.583" y="436.5" xlink:href="#o"/><use x="37.583" y="457.5" xlink:href="#l"/><use x="45.583" y="459.5" xlink:href="#o"/><use x="51.583" y="457.5" xlink:href="#n"/><use x="60.583" y="459.5" xlink:href="#o"/><use x="66.583" y="457.5" xlink:href="#b"/><use x="74.583" y="457.5" xlink:href="#l"/><use x="82.583" y="459.5" xlink:href="#o"/><use x="88.583" y="457.5" xlink:href="#n"/><use x="97.583" y="459.5" xlink:href="#m"/><path d="M119.71 453h-3.125v1.066h54.125V453z" fill-rule="evenodd"/><use x="116.083" y="450.5" xlink:href="#p"/><use x="123.083" y="453.3" xlink:href="#s"/><use x="128.089" y="453.3" xlink:href="#s"/><use x="136.083" y="450.5" xlink:href="#r"/><use x="141.083" y="453.3" xlink:href="#s"/><use x="146.089" y="453.3" xlink:href="#q"/><use x="154.083" y="450.5" xlink:href="#r"/><use x="159.083" y="453.3" xlink:href="#s"/><use x="164.089" y="453.3" xlink:href="#s"/><use x="138.583" y="465.5" xlink:href="#t"/><use x="141.583" y="468.3" xlink:href="#s"/><use x="193.583" y="457.5" xlink:href="#v"/><use x="231.583" y="457.5" xlink:href="#v"/><path d="M273.71 453h-3.125v1.066h3.125-1.125 3.125V453h-3.125z" fill-rule="evenodd"/><use x="270.583" y="451.5" xlink:href="#m"/><use x="270.583" y="465.5" xlink:href="#o"/><path d="M311.71 453h-3.125v1.066h3.125-1.125 3.125V453h-3.125z" fill-rule="evenodd"/><use x="308.583" y="451.5" xlink:href="#m"/><use x="308.583" y="465.5" xlink:href="#o"/><use x="37.583" y="491.5" xlink:href="#l"/><use x="45.583" y="493.5" xlink:href="#o"/><use x="51.583" y="491.5" xlink:href="#n"/><use x="60.583" y="493.5" xlink:href="#o"/><use x="66.583" y="491.5" xlink:href="#b"/><use x="74.583" y="491.5" xlink:href="#l"/><use x="82.583" y="493.5" xlink:href="#o"/><use x="88.583" y="491.5" xlink:href="#n"/><use x="97.583" y="493.5" xlink:href="#o"/><path d="M128.71 487h-3.125v1.066h36.125V487z" fill-rule="evenodd"/><use x="125.083" y="483.5" xlink:href="#p"/><use x="132.083" y="486.3" xlink:href="#s"/><use x="137.089" y="486.3" xlink:href="#s"/><use x="145.083" y="483.5" xlink:href="#r"/><use x="150.083" y="487.3" xlink:href="#s"/><use x="155.089" y="487.3" xlink:href="#s"/><use x="150.083" y="480.3" xlink:href="#s"/><use x="138.583" y="499.5" xlink:href="#t"/><use x="141.583" y="502.3" xlink:href="#s"/><use x="193.583" y="491.5" xlink:href="#v"/><use x="231.583" y="491.5" xlink:href="#v"/><use x="269.583" y="491.5" xlink:href="#v"/><use x="307.583" y="491.5" xlink:href="#u"/></svg>