<svg width="530.707" height="390.707" viewBox="0 0 398.03 293.03" xmlns="http://www.w3.org/2000/svg" xmlns:xlink="http://www.w3.org/1999/xlink"><defs><symbol id="a" overflow="visible"><path d="M6.356-5.695c0 .754-.247 1.39-.735 1.914-.488.52-1.113.847-1.875.988v1.129h1.559v.637H3.746V0h-.73v-1.027h-1.48v-.637h1.48v-1.129c-.754-.148-1.371-.473-1.848-.976a2.7 2.7 0 0 1-.77-1.926c0-.852.286-1.547.848-2.094.566-.547 1.277-.82 2.129-.82.836 0 1.54.28 2.117.84.574.558.863 1.25.863 2.074zm-.575.015c0-.668-.226-1.234-.68-1.691a2.272 2.272 0 0 0-1.68-.691c-.667 0-1.234.23-1.69.69-.461.458-.692 1.02-.692 1.692 0 .653.234 1.207.695 1.664.465.461 1.028.688 1.688.688.656 0 1.215-.227 1.672-.688.46-.457.687-1.015.687-1.664z"/></symbol><symbol id="b" overflow="visible"><path d="M7.578-.445l-.52.523L4.173-2.82 1.289.078.77-.445l2.88-2.883-2.88-2.899.52-.519 2.883 2.898 2.887-2.898.52.52-2.9 2.898z"/></symbol><symbol id="c" overflow="visible"><path d="M7.852-4.988l-.532.531V-6.34L5.68-4.703c.414.629.625 1.273.625 1.937 0 .778-.281 1.446-.844 2.004-.563.559-1.234.84-2.016.84-.824 0-1.535-.305-2.132-.91-.594-.606-.895-1.32-.895-2.145 0-.789.277-1.46.824-2.023a2.714 2.714 0 0 1 2.008-.84c.688 0 1.328.211 1.922.63l1.625-1.653H4.813l.507-.492c.891 0 1.563-.004 2.012-.016l.52.523zM5.73-2.914c0-.664-.23-1.23-.695-1.695-.46-.465-1.027-.696-1.695-.696-.656 0-1.215.23-1.672.696a2.292 2.292 0 0 0-.691 1.671c0 .653.234 1.211.703 1.676a2.293 2.293 0 0 0 1.683.703c.66 0 1.223-.23 1.68-.687.461-.461.688-1.016.688-1.668z"/></symbol><symbol id="p" overflow="visible"><path d="M3.695 4.715c0 .113-.043.172-.12.172l-.028-.012C2.46 4.015 1.672 2.684 1.18.883.824-.407.648-1.813.648-3.328s.176-2.914.532-4.207c.492-1.809 1.28-3.14 2.367-4l.027-.012c.082 0 .121.059.121.172 0 .008-.004.02-.015.04-.809 1.065-1.332 2.054-1.57 2.968-.282 1.047-.423 2.726-.423 5.039 0 2.023.079 3.434.231 4.223.254 1.308.84 2.57 1.762 3.785a.05.05 0 0 1 .015.035z"/></symbol><symbol id="s" overflow="visible"><path d="M3.422-3.328c0 1.515-.176 2.918-.527 4.21C2.398 2.685 1.609 4.017.52 4.876l-.024.012c-.078 0-.113-.055-.113-.172a.09.09 0 0 1 .012-.035c.808-1.063 1.332-2.055 1.574-2.973.273-1.04.41-2.719.41-5.035 0-2.313-.137-3.992-.41-5.04-.242-.913-.766-1.902-1.574-2.968-.008-.008-.012-.024-.012-.04 0-.112.035-.171.113-.171l.024.012c1.09.859 1.878 2.195 2.375 4 .351 1.293.527 2.695.527 4.207z"/></symbol><symbol id="t" overflow="visible"><path d="M5.879-11.609L.672 4.825H0l5.21-16.434z"/></symbol><symbol id="x" overflow="visible"><path d="M3.781 1.973l-.156.238C2.48 1.484 1.684.645 1.227-.312.84-1.125.648-2.172.648-3.461c0-1.074.215-2.027.649-2.855a5.378 5.378 0 0 1 1.3-1.637c.337-.254.676-.508 1.016-.758l.145.223c-1.38 1.047-2.07 2.726-2.07 5.043 0 1.5.19 2.695.57 3.586A4.084 4.084 0 0 0 3.78 1.973z"/></symbol><symbol id="y" overflow="visible"><path d="M3.523-3.46c0 1.288-.191 2.335-.578 3.147C2.492.645 1.691 1.484.547 2.212l-.16-.238A4.1 4.1 0 0 0 1.917.14c.376-.891.563-2.086.563-3.586 0-2.317-.687-3.996-2.062-5.043l.14-.223c.34.25.676.504 1.016.758.555.473.988 1.02 1.309 1.637.426.828.64 1.78.64 2.855z"/></symbol><symbol id="z" overflow="visible"><path d="M4.121-8.816L.671 2.094H0l3.445-10.91z"/></symbol><symbol id="B" overflow="visible"><path d="M7.516-2.977H.856v-.73h6.66z"/></symbol><symbol id="d" overflow="visible"><path d="M8.152-5.914L7.785-8.84H.492v.402h.3c1 0 1.028.145 1.028.625v6.786c0 .48-.027.625-1.027.625h-.3V0c.585-.04 1.394-.04 1.991-.04.52 0 1.703 0 2.157.04v-.402h-.415c-1.183 0-1.238-.157-1.238-.637v-3.188H4.16c1.262 0 1.402.418 1.402 1.524h.368v-3.445h-.368c0 1.105-.14 1.519-1.402 1.519H2.988v-3.273c0-.446.027-.536.64-.536h1.637c1.989 0 2.313.727 2.52 2.524z"/></symbol><symbol id="e" overflow="visible"><path d="M4.848-4.941c0-.414-.387-.805-.973-.805-.781 0-1.328.547-1.625 1.352h-.016v-1.352l-1.843.144v.403c.882 0 1 .09 1 .726V-1c0 .598-.145.598-1 .598V0c.687-.027.855-.039 1.52-.039L3.561 0v-.402h-.261c-.95 0-.989-.145-.989-.625v-1.95c0-.535.145-2.445 1.625-2.445v.016a.577.577 0 0 0-.234.48c0 .352.273.57.574.57.274 0 .57-.195.57-.585z"/></symbol><symbol id="f" overflow="visible"><path d="M5.55-1.547c0-.09-.066-.168-.183-.168-.129 0-.168.09-.18.14C4.748-.245 3.59-.222 3.396-.222c-.625 0-1.16-.347-1.457-.793-.43-.636-.442-1.414-.442-1.96H5.2c.285 0 .352 0 .352-.274 0-1.34-.727-2.574-2.39-2.574C1.597-5.824.378-4.473.378-2.86c0 1.703 1.363 3.004 2.95 3.004S5.55-1.246 5.55-1.547zm-.882-1.742h-3.16C1.625-5.29 2.797-5.5 3.16-5.5c.715 0 1.492.547 1.508 2.21z"/></symbol><symbol id="g" overflow="visible"><path d="M7.02 2.523v-.406c-.86 0-1 0-1-.598v-7.265h-.325L5.2-4.602c-.61-1.027-1.351-1.144-1.805-1.144-1.535 0-2.953 1.25-2.953 2.95C.441-1.146 1.77.143 3.29.143c.547 0 1.207-.195 1.77-.91V1.52c0 .597-.145.597-1.004.597v.406c.613-.027.86-.039 1.484-.039.621 0 .793.012 1.48.04zM5.098-1.793c0 .234 0 .285-.196.637-.328.558-.87.972-1.562.972-.961 0-1.781-1.14-1.781-2.613 0-1.508.925-2.586 1.925-2.586 1.012 0 1.614 1.078 1.614 1.793z"/></symbol><symbol id="h" overflow="visible"><path d="M7.11 0v-.402c-.883 0-1-.09-1-.73v-4.614l-1.962.144v.403c.883 0 1 .09 1 .726v2.301c0 1.156-.652 1.988-1.585 1.988-1.079 0-1.145-.558-1.145-1.257v-4.305l-1.965.144v.403c1.004 0 1.004.039 1.004 1.195v1.95c0 .843 0 1.39.598 1.847.375.258.91.352 1.43.352.675 0 1.312-.301 1.691-1.082h.012V.145z"/></symbol><symbol id="i" overflow="visible"><path d="M7.11 0v-.402c-.66 0-.989 0-1-.403V-3.3c0-1.082 0-1.457-.364-1.914-.3-.363-.793-.531-1.441-.531-1.211 0-1.77.898-1.953 1.262H2.34v-1.262l-1.887.144v.403c.887 0 1.004.09 1.004.726V-1c0 .598-.144.598-1.004.598V0c.613-.027.86-.04 1.485-.04s.793.013 1.48.04v-.402c-.855 0-1 0-1-.598v-2.367c0-1.38.977-2.055 1.793-2.055.77 0 .938.637.938 1.418V-1c0 .598-.145.598-1 .598V0c.609-.027.855-.04 1.48-.04s.793.013 1.48.04z"/></symbol><symbol id="j" overflow="visible"><path d="M5.55-1.547c0-.156-.144-.156-.183-.156-.14 0-.14.027-.219.246-.3.898-1.027 1.234-1.69 1.234-.833 0-1.9-.675-1.9-2.597 0-2.028 1.044-2.641 1.821-2.641.172 0 .871.027 1.352.352-.27.05-.532.234-.532.613a.59.59 0 0 0 .598.598c.34 0 .61-.223.61-.625 0-.805-.91-1.301-2.051-1.301C1.69-5.824.44-4.434.44-2.81.441-1.133 1.793.144 3.328.144c1.809 0 2.223-1.574 2.223-1.691z"/></symbol><symbol id="k" overflow="visible"><path d="M6.762-5.2v-.402c-.418.04-.82.04-.989.04-.367 0-.77-.016-1.132-.04v.403c.597.023.597.492.597.547 0 .14-.05.27-.101.375L3.82-1.184 2.367-4.59c-.078-.18-.078-.273-.078-.273 0-.336.442-.336.715-.336v-.402l-1.445.039c-.04 0-.778 0-1.286-.04v.403c.586 0 .832.023.989.375L3.316 0l-.328.766c-.285.691-.66 1.574-1.508 1.574-.324 0-.542-.168-.582-.195a.537.537 0 0 0 .465-.559.524.524 0 0 0-.543-.547c-.328 0-.558.207-.558.559 0 .586.543 1.066 1.219 1.066.847 0 1.406-.754 1.718-1.469l2.352-5.5c.144-.336.379-.87 1.21-.894z"/></symbol><symbol id="l" overflow="visible"><path d="M9.152-5.875l-.261-2.926H.742L.48-5.875h.364c.183-2.144.441-2.523 2.394-2.523.246 0 .621 0 .754.027.235.05.246.18.246.508v6.824c0 .441 0 .637-1.367.637h-.504V0c.469-.039 1.899-.039 2.457-.039.559 0 1.988 0 2.457.039v-.402h-.508c-1.367 0-1.367-.196-1.367-.637v-6.824c0-.34.016-.457.274-.508.132-.027.48-.027.714-.027 1.953 0 2.211.379 2.395 2.523z"/></symbol><symbol id="n" overflow="visible"><path d="M8.332-6.46c0-1.286-1.34-2.419-3.144-2.419H.52v.402h.3c1 0 1.028.145 1.028.625v6.825c0 .48-.028.625-1.028.625h-.3V0c.585-.04 1.312-.04 1.91-.04.597 0 1.328 0 1.914.04v-.402h-.301c-1 0-1.027-.145-1.027-.625v-3.055h2.172c1.82 0 3.144-1.133 3.144-2.379zm-1.324 0c0 .585 0 2.015-2.16 2.015H2.977v-3.496c0-.446.027-.536.636-.536h1.25c2.145 0 2.145 1.43 2.145 2.016z"/></symbol><symbol id="q" overflow="visible"><path d="M9.516-8.477v-.402c-.704.027-.899.04-1.52.04-.637 0-.808-.013-1.535-.04v.402c1.324 0 1.324.625 1.324.977v4.512c0 1.765-1.273 2.87-2.57 2.87-.754 0-2.227-.452-2.227-2.792v-4.942c0-.48.028-.625 1.028-.625h.3v-.402c-.586.04-1.312.04-1.91.04s-1.328 0-1.914-.04v.402h.3c1 0 1.028.145 1.028.625v4.864C1.82-1.094 3.394.285 5.187.285c1.91 0 3.004-1.781 3.004-3.082v-4.68c0-.386 0-1 1.324-1z"/></symbol><symbol id="r" overflow="visible"><path d="M6.863 0v-.402c-.52 0-.91 0-1.195-.364l-1.703-2.16c-.09-.117-.09-.14-.09-.14s1.012-1.262 1.117-1.368c.403-.441.844-.754 1.637-.765v-.403c-.375.04-.727.04-1.106.04-.492 0-.726 0-1.246-.04v.403c.196.023.364.129.364.39 0 .207-.118.348-.18.426l-.832 1.027L2.613-4.64c-.09-.117-.117-.144-.117-.234 0-.156.145-.313.442-.324v-.403c-.493.024-.832.04-1.418.04 0 0-.766 0-1.274-.04v.403c.899 0 .926.023 1.524.793l1.335 1.675-1.257 1.52C1.195-.43.453-.403.184-.403V0C.559-.04.91-.04 1.285-.04c.418 0 .832.012 1.25.04v-.403c-.324-.039-.363-.261-.363-.39 0-.04 0-.223.195-.453.313-.406.649-.793.973-1.184l1.027 1.313c.246.285.246.312.246.39 0 .14-.129.313-.441.325V0c.547-.027.86-.04 1.418-.04 0 0 .765 0 1.273.04z"/></symbol><symbol id="u" overflow="visible"><path d="M4.445-1.613v-.739h-.363v.7c0 .964-.402 1.43-.871 1.43-.871 0-.871-1.141-.871-1.376v-3.601h1.887v-.403H2.34v-2.394h-.363c-.012 1.094-.47 2.434-1.73 2.473v.324h1.132v3.586C1.379-.156 2.429.145 3.12.145c.871 0 1.324-.833 1.324-1.758z"/></symbol><symbol id="v" overflow="visible"><path d="M5.617 0v-.402H5.2c-1.207 0-1.246-.157-1.246-.637v-7.27c0-.324-.015-.347-.34-.347-.804.832-2 .832-2.402.832v.402c.246 0 1.04 0 1.738-.34v6.723c0 .48-.039.637-1.246.637h-.418V0c.469-.039 1.625-.039 2.16-.039.532 0 1.704 0 2.172.04z"/></symbol><symbol id="w" overflow="visible"><path d="M6.148-4.16c0-.871-.039-1.988-.492-2.965-.574-1.223-1.562-1.531-2.316-1.531-.778 0-1.766.308-2.34 1.558-.414.899-.48 1.95-.48 2.938 0 .844.027 2.105.585 3.133C1.715.078 2.73.285 3.328.285c.844 0 1.809-.363 2.352-1.558.39-.871.469-1.848.469-2.887zm-1.117-.156c0 .804 0 1.898-.129 2.664C4.63-.168 3.664-.04 3.34-.04c-.39 0-1.324-.184-1.57-1.652-.133-.766-.133-1.883-.133-2.625 0-.883 0-1.91.156-2.625.262-1.157 1.094-1.391 1.535-1.391.492 0 1.313.258 1.559 1.469.144.715.144 1.726.144 2.547z"/></symbol><symbol id="A" overflow="visible"><path d="M6.008-2.3H5.64c-.024.167-.13.937-.297 1.144-.078.117-.977.117-1.235.117H1.793l1.289-1.223c2.133-1.848 2.926-2.535 2.926-3.86 0-1.495-1.238-2.534-2.836-2.534-1.496 0-2.508 1.18-2.508 2.363 0 .652.559.715.676.715.285 0 .676-.207.676-.676 0-.39-.274-.676-.676-.676-.066 0-.106 0-.156.016a1.948 1.948 0 0 1 1.843-1.34c1.329 0 1.782 1.234 1.782 2.133 0 1.324-1 2.402-1.625 3.078L.804-.47C.665-.324.665-.3.665 0h4.977z"/></symbol><symbol id="m" overflow="visible"><path d="M3.988 0v-.285h-.297c-.859 0-.886-.113-.886-.453v-5.16c0-.23-.008-.25-.239-.25-.574.593-1.421.593-1.707.593v.285c.176 0 .739 0 1.235-.242v4.774c0 .34-.028.453-.883.453H.914V0c.332-.027 1.152-.027 1.531-.027.38 0 1.211 0 1.543.027z"/></symbol><symbol id="o" overflow="visible"><path d="M4.266-1.633h-.262c-.016.121-.09.664-.211.813-.055.082-.691.082-.875.082H1.273l.914-.867C3.7-2.918 4.266-3.406 4.266-4.348c0-1.062-.88-1.8-2.012-1.8-1.063 0-1.781.84-1.781 1.68 0 .464.394.507.476.507.203 0 .48-.144.48-.477a.46.46 0 0 0-.48-.48c-.043 0-.074 0-.11.008.224-.656.813-.95 1.313-.95.942 0 1.262.876 1.262 1.512 0 .942-.71 1.707-1.152 2.188L.57-.332C.473-.231.473-.211.473 0h3.53z"/></symbol></defs><g transform="translate(-37.567 -.985)"><g stroke="#000" stroke-miterlimit="10" stroke-width=".03"><path d="M37.582 1h398v1h-398zM37.582 20h398v1h-398zM37.582 293h398v1h-398z"/></g><use x="61.083" y="14.5" width="100%" height="100%" xlink:href="#a"/><use x="68.083" y="14.5" width="100%" height="100%" xlink:href="#b"/><use x="76.083" y="14.5" width="100%" height="100%" xlink:href="#c"/><use x="129.583" y="14.5" width="100%" height="100%" xlink:href="#d"/><use x="138.306" y="14.5" width="100%" height="100%" xlink:href="#e"/><use x="143.532" y="14.5" width="100%" height="100%" xlink:href="#f"/><use x="149.473" y="14.5" width="100%" height="100%" xlink:href="#g"/><use x="156.519" y="14.5" width="100%" height="100%" xlink:href="#h"/><use x="163.942" y="14.5" width="100%" height="100%" xlink:href="#f"/><use x="169.883" y="14.5" width="100%" height="100%" xlink:href="#i"/><use x="177.306" y="14.5" width="100%" height="100%" xlink:href="#j"/><use x="183.248" y="14.5" width="100%" height="100%" xlink:href="#k"/><use x="221.583" y="14.5" width="100%" height="100%" xlink:href="#l"/><use x="231.583" y="16.5" width="100%" height="100%" xlink:href="#m"/><use x="237.583" y="14.5" width="100%" height="100%" xlink:href="#n"/><use x="246.583" y="16.5" width="100%" height="100%" xlink:href="#m"/><use x="279.584" y="14.5" width="100%" height="100%" xlink:href="#l"/><use x="289.584" y="16.5" width="100%" height="100%" xlink:href="#m"/><use x="295.584" y="14.5" width="100%" height="100%" xlink:href="#n"/><use x="304.584" y="16.5" width="100%" height="100%" xlink:href="#o"/><use x="337.584" y="14.5" width="100%" height="100%" xlink:href="#l"/><use x="347.584" y="16.5" width="100%" height="100%" xlink:href="#o"/><use x="353.584" y="14.5" width="100%" height="100%" xlink:href="#n"/><use x="362.584" y="16.5" width="100%" height="100%" xlink:href="#m"/><use x="395.584" y="14.5" width="100%" height="100%" xlink:href="#l"/><use x="405.584" y="16.5" width="100%" height="100%" xlink:href="#o"/><use x="411.584" y="14.5" width="100%" height="100%" xlink:href="#n"/><use x="420.584" y="16.5" width="100%" height="100%" xlink:href="#o"/><use x="37.583" y="33.5" width="100%" height="100%" xlink:href="#l"/><use x="47.583" y="35.5" width="100%" height="100%" xlink:href="#m"/><use x="53.583" y="33.5" width="100%" height="100%" xlink:href="#n"/><use x="62.583" y="35.5" width="100%" height="100%" xlink:href="#m"/><use x="68.583" y="33.5" width="100%" height="100%" xlink:href="#b"/><use x="76.583" y="33.5" width="100%" height="100%" xlink:href="#l"/><use x="86.583" y="35.5" width="100%" height="100%" xlink:href="#m"/><use x="92.583" y="33.5" width="100%" height="100%" xlink:href="#n"/><use x="101.584" y="35.5" width="100%" height="100%" xlink:href="#m"/><use x="125.584" y="33.5" width="100%" height="100%" xlink:href="#p"/><use x="129.583" y="33.5" width="100%" height="100%" xlink:href="#q"/><use x="139.583" y="35.5" width="100%" height="100%" xlink:href="#m"/><use x="144.328" y="35.5" width="100%" height="100%" xlink:href="#m"/><use x="152.583" y="33.5" width="100%" height="100%" xlink:href="#r"/><use x="159.583" y="36.75" width="100%" height="100%" xlink:href="#m"/><use x="164.328" y="36.75" width="100%" height="100%" xlink:href="#m"/><use x="159.583" y="29.5" width="100%" height="100%" xlink:href="#o"/><use x="169.583" y="33.5" width="100%" height="100%" xlink:href="#s"/><use x="175.583" y="33.5" width="100%" height="100%" xlink:href="#t"/><use x="183.583" y="33.5" width="100%" height="100%" xlink:href="#u"/><use x="188.583" y="35.5" width="100%" height="100%" xlink:href="#m"/><use x="233.583" y="33.5" width="100%" height="100%" xlink:href="#v"/><use x="291.584" y="33.5" width="100%" height="100%" xlink:href="#w"/><use x="349.584" y="33.5" width="100%" height="100%" xlink:href="#w"/><use x="407.584" y="33.5" width="100%" height="100%" xlink:href="#w"/><use x="37.583" y="51.5" width="100%" height="100%" xlink:href="#l"/><use x="47.583" y="53.5" width="100%" height="100%" xlink:href="#m"/><use x="53.583" y="51.5" width="100%" height="100%" xlink:href="#n"/><use x="62.583" y="53.5" width="100%" height="100%" xlink:href="#m"/><use x="68.583" y="51.5" width="100%" height="100%" xlink:href="#b"/><use x="76.583" y="51.5" width="100%" height="100%" xlink:href="#l"/><use x="86.583" y="53.5" width="100%" height="100%" xlink:href="#m"/><use x="92.583" y="51.5" width="100%" height="100%" xlink:href="#n"/><use x="101.584" y="53.5" width="100%" height="100%" xlink:href="#o"/><use x="116.584" y="51.5" width="100%" height="100%" xlink:href="#x"/><use x="120.584" y="51.5" width="100%" height="100%" xlink:href="#q"/><use x="130.583" y="53.5" width="100%" height="100%" xlink:href="#m"/><use x="135.328" y="53.5" width="100%" height="100%" xlink:href="#m"/><use x="143.583" y="51.5" width="100%" height="100%" xlink:href="#r"/><use x="150.583" y="53.5" width="100%" height="100%" xlink:href="#m"/><use x="155.328" y="53.5" width="100%" height="100%" xlink:href="#m"/><use x="163.583" y="51.5" width="100%" height="100%" xlink:href="#r"/><use x="170.583" y="53.5" width="100%" height="100%" xlink:href="#m"/><use x="175.328" y="53.5" width="100%" height="100%" xlink:href="#o"/><use x="180.583" y="51.5" width="100%" height="100%" xlink:href="#y"/><use x="186.583" y="51.5" width="100%" height="100%" xlink:href="#z"/><use x="192.583" y="51.5" width="100%" height="100%" xlink:href="#u"/><use x="197.583" y="53.5" width="100%" height="100%" xlink:href="#m"/><use x="226.083" y="51.5" width="100%" height="100%" xlink:href="#v"/><use x="235.083" y="51.5" width="100%" height="100%" xlink:href="#z"/><use x="241.083" y="51.5" width="100%" height="100%" xlink:href="#A"/><use x="284.084" y="51.5" width="100%" height="100%" xlink:href="#v"/><use x="293.084" y="51.5" width="100%" height="100%" xlink:href="#z"/><use x="299.084" y="51.5" width="100%" height="100%" xlink:href="#A"/><use x="349.584" y="51.5" width="100%" height="100%" xlink:href="#w"/><use x="407.584" y="51.5" width="100%" height="100%" xlink:href="#w"/><use x="37.583" y="67.5" width="100%" height="100%" xlink:href="#l"/><use x="47.583" y="69.5" width="100%" height="100%" xlink:href="#m"/><use x="53.583" y="67.5" width="100%" height="100%" xlink:href="#n"/><use x="62.583" y="69.5" width="100%" height="100%" xlink:href="#m"/><use x="68.583" y="67.5" width="100%" height="100%" xlink:href="#b"/><use x="76.583" y="67.5" width="100%" height="100%" xlink:href="#l"/><use x="86.583" y="69.5" width="100%" height="100%" xlink:href="#o"/><use x="92.583" y="67.5" width="100%" height="100%" xlink:href="#n"/><use x="101.584" y="69.5" width="100%" height="100%" xlink:href="#m"/><use x="116.584" y="67.5" width="100%" height="100%" xlink:href="#x"/><use x="120.584" y="67.5" width="100%" height="100%" xlink:href="#q"/><use x="130.583" y="69.5" width="100%" height="100%" xlink:href="#m"/><use x="135.328" y="69.5" width="100%" height="100%" xlink:href="#o"/><use x="143.583" y="67.5" width="100%" height="100%" xlink:href="#r"/><use x="150.583" y="69.5" width="100%" height="100%" xlink:href="#m"/><use x="155.328" y="69.5" width="100%" height="100%" xlink:href="#m"/><use x="163.583" y="67.5" width="100%" height="100%" xlink:href="#r"/><use x="170.583" y="69.5" width="100%" height="100%" xlink:href="#o"/><use x="175.328" y="69.5" width="100%" height="100%" xlink:href="#m"/><use x="180.583" y="67.5" width="100%" height="100%" xlink:href="#y"/><use x="186.583" y="67.5" width="100%" height="100%" xlink:href="#z"/><use x="192.583" y="67.5" width="100%" height="100%" xlink:href="#u"/><use x="197.583" y="69.5" width="100%" height="100%" xlink:href="#o"/><use x="226.083" y="67.5" width="100%" height="100%" xlink:href="#v"/><use x="235.083" y="67.5" width="100%" height="100%" xlink:href="#z"/><use x="241.083" y="67.5" width="100%" height="100%" xlink:href="#A"/><use x="291.584" y="67.5" width="100%" height="100%" xlink:href="#w"/><use x="342.084" y="67.5" width="100%" height="100%" xlink:href="#v"/><use x="351.084" y="67.5" width="100%" height="100%" xlink:href="#z"/><use x="357.084" y="67.5" width="100%" height="100%" xlink:href="#A"/><use x="407.584" y="67.5" width="100%" height="100%" xlink:href="#w"/><use x="37.583" y="83.5" width="100%" height="100%" xlink:href="#l"/><use x="47.583" y="85.5" width="100%" height="100%" xlink:href="#m"/><use x="53.583" y="83.5" width="100%" height="100%" xlink:href="#n"/><use x="62.583" y="85.5" width="100%" height="100%" xlink:href="#m"/><use x="68.583" y="83.5" width="100%" height="100%" xlink:href="#b"/><use x="76.583" y="83.5" width="100%" height="100%" xlink:href="#l"/><use x="86.583" y="85.5" width="100%" height="100%" xlink:href="#o"/><use x="92.583" y="83.5" width="100%" height="100%" xlink:href="#n"/><use x="101.584" y="85.5" width="100%" height="100%" xlink:href="#o"/><use x="116.584" y="83.5" width="100%" height="100%" xlink:href="#x"/><use x="120.584" y="83.5" width="100%" height="100%" xlink:href="#q"/><use x="130.583" y="85.5" width="100%" height="100%" xlink:href="#m"/><use x="135.328" y="85.5" width="100%" height="100%" xlink:href="#o"/><use x="143.583" y="83.5" width="100%" height="100%" xlink:href="#r"/><use x="150.583" y="85.5" width="100%" height="100%" xlink:href="#m"/><use x="155.328" y="85.5" width="100%" height="100%" xlink:href="#m"/><use x="163.583" y="83.5" width="100%" height="100%" xlink:href="#r"/><use x="170.583" y="85.5" width="100%" height="100%" xlink:href="#o"/><use x="175.328" y="85.5" width="100%" height="100%" xlink:href="#o"/><use x="180.583" y="83.5" width="100%" height="100%" xlink:href="#y"/><use x="186.583" y="83.5" width="100%" height="100%" xlink:href="#z"/><use x="192.583" y="83.5" width="100%" height="100%" xlink:href="#u"/><use x="197.583" y="85.5" width="100%" height="100%" xlink:href="#o"/><use x="212.583" y="83.5" width="100%" height="100%" xlink:href="#x"/><use x="216.583" y="83.5" width="100%" height="100%" xlink:href="#v"/><use x="226.583" y="83.5" width="100%" height="100%" xlink:href="#B"/><use x="237.583" y="83.5" width="100%" height="100%" xlink:href="#e"/><use x="242.583" y="83.5" width="100%" height="100%" xlink:href="#y"/><use x="248.583" y="83.5" width="100%" height="100%" xlink:href="#z"/><use x="254.583" y="83.5" width="100%" height="100%" xlink:href="#A"/><use x="285.084" y="83.5" width="100%" height="100%" xlink:href="#e"/><use x="292.084" y="83.5" width="100%" height="100%" xlink:href="#z"/><use x="298.084" y="83.5" width="100%" height="100%" xlink:href="#A"/><use x="343.084" y="83.5" width="100%" height="100%" xlink:href="#e"/><use x="350.084" y="83.5" width="100%" height="100%" xlink:href="#z"/><use x="356.084" y="83.5" width="100%" height="100%" xlink:href="#A"/><use x="386.584" y="83.5" width="100%" height="100%" xlink:href="#x"/><use x="390.584" y="83.5" width="100%" height="100%" xlink:href="#v"/><use x="400.584" y="83.5" width="100%" height="100%" xlink:href="#B"/><use x="411.584" y="83.5" width="100%" height="100%" xlink:href="#e"/><use x="416.584" y="83.5" width="100%" height="100%" xlink:href="#y"/><use x="422.584" y="83.5" width="100%" height="100%" xlink:href="#z"/><use x="428.584" y="83.5" width="100%" height="100%" xlink:href="#A"/><use x="37.583" y="99.5" width="100%" height="100%" xlink:href="#l"/><use x="47.583" y="101.5" width="100%" height="100%" xlink:href="#m"/><use x="53.583" y="99.5" width="100%" height="100%" xlink:href="#n"/><use x="62.583" y="101.5" width="100%" height="100%" xlink:href="#o"/><use x="68.583" y="99.5" width="100%" height="100%" xlink:href="#b"/><use x="76.583" y="99.5" width="100%" height="100%" xlink:href="#l"/><use x="86.583" y="101.5" width="100%" height="100%" xlink:href="#m"/><use x="92.583" y="99.5" width="100%" height="100%" xlink:href="#n"/><use x="101.584" y="101.5" width="100%" height="100%" xlink:href="#m"/><use x="116.584" y="99.5" width="100%" height="100%" xlink:href="#x"/><use x="120.584" y="99.5" width="100%" height="100%" xlink:href="#q"/><use x="130.583" y="101.5" width="100%" height="100%" xlink:href="#o"/><use x="135.328" y="101.5" width="100%" height="100%" xlink:href="#m"/><use x="143.583" y="99.5" width="100%" height="100%" xlink:href="#r"/><use x="150.583" y="101.5" width="100%" height="100%" xlink:href="#m"/><use x="155.328" y="101.5" width="100%" height="100%" xlink:href="#m"/><use x="163.583" y="99.5" width="100%" height="100%" xlink:href="#r"/><use x="170.583" y="101.5" width="100%" height="100%" xlink:href="#m"/><use x="175.328" y="101.5" width="100%" height="100%" xlink:href="#o"/><use x="180.583" y="99.5" width="100%" height="100%" xlink:href="#y"/><use x="186.583" y="99.5" width="100%" height="100%" xlink:href="#z"/><use x="192.583" y="99.5" width="100%" height="100%" xlink:href="#u"/><use x="197.583" y="101.5" width="100%" height="100%" xlink:href="#m"/><use x="226.083" y="99.5" width="100%" height="100%" xlink:href="#v"/><use x="235.083" y="99.5" width="100%" height="100%" xlink:href="#z"/><use x="241.083" y="99.5" width="100%" height="100%" xlink:href="#A"/><use x="284.084" y="99.5" width="100%" height="100%" xlink:href="#v"/><use x="293.084" y="99.5" width="100%" height="100%" xlink:href="#z"/><use x="299.084" y="99.5" width="100%" height="100%" xlink:href="#A"/><use x="349.584" y="99.5" width="100%" height="100%" xlink:href="#w"/><use x="407.584" y="99.5" width="100%" height="100%" xlink:href="#w"/><use x="37.583" y="117.5" width="100%" height="100%" xlink:href="#l"/><use x="47.583" y="119.5" width="100%" height="100%" xlink:href="#m"/><use x="53.583" y="117.5" width="100%" height="100%" xlink:href="#n"/><use x="62.583" y="119.5" width="100%" height="100%" xlink:href="#o"/><use x="68.583" y="117.5" width="100%" height="100%" xlink:href="#b"/><use x="76.583" y="117.5" width="100%" height="100%" xlink:href="#l"/><use x="86.583" y="119.5" width="100%" height="100%" xlink:href="#m"/><use x="92.583" y="117.5" width="100%" height="100%" xlink:href="#n"/><use x="101.584" y="119.5" width="100%" height="100%" xlink:href="#o"/><use x="125.584" y="117.5" width="100%" height="100%" xlink:href="#p"/><use x="129.583" y="117.5" width="100%" height="100%" xlink:href="#q"/><use x="139.583" y="119.5" width="100%" height="100%" xlink:href="#o"/><use x="144.328" y="119.5" width="100%" height="100%" xlink:href="#m"/><use x="152.583" y="117.5" width="100%" height="100%" xlink:href="#r"/><use x="159.583" y="120.75" width="100%" height="100%" xlink:href="#m"/><use x="164.328" y="120.75" width="100%" height="100%" xlink:href="#o"/><use x="159.583" y="113.5" width="100%" height="100%" xlink:href="#o"/><use x="169.583" y="117.5" width="100%" height="100%" xlink:href="#s"/><use x="175.583" y="117.5" width="100%" height="100%" xlink:href="#t"/><use x="183.583" y="117.5" width="100%" height="100%" xlink:href="#u"/><use x="188.583" y="119.5" width="100%" height="100%" xlink:href="#m"/><use x="233.583" y="117.5" width="100%" height="100%" xlink:href="#w"/><use x="291.584" y="117.5" width="100%" height="100%" xlink:href="#v"/><use x="349.584" y="117.5" width="100%" height="100%" xlink:href="#w"/><use x="407.584" y="117.5" width="100%" height="100%" xlink:href="#w"/><use x="37.583" y="135.5" width="100%" height="100%" xlink:href="#l"/><use x="47.583" y="137.5" width="100%" height="100%" xlink:href="#m"/><use x="53.583" y="135.5" width="100%" height="100%" xlink:href="#n"/><use x="62.583" y="137.5" width="100%" height="100%" xlink:href="#o"/><use x="68.583" y="135.5" width="100%" height="100%" xlink:href="#b"/><use x="76.583" y="135.5" width="100%" height="100%" xlink:href="#l"/><use x="86.583" y="137.5" width="100%" height="100%" xlink:href="#o"/><use x="92.583" y="135.5" width="100%" height="100%" xlink:href="#n"/><use x="101.584" y="137.5" width="100%" height="100%" xlink:href="#m"/><use x="116.584" y="135.5" width="100%" height="100%" xlink:href="#x"/><use x="120.584" y="135.5" width="100%" height="100%" xlink:href="#q"/><use x="130.583" y="137.5" width="100%" height="100%" xlink:href="#o"/><use x="135.328" y="137.5" width="100%" height="100%" xlink:href="#o"/><use x="143.583" y="135.5" width="100%" height="100%" xlink:href="#r"/><use x="150.583" y="137.5" width="100%" height="100%" xlink:href="#m"/><use x="155.328" y="137.5" width="100%" height="100%" xlink:href="#o"/><use x="163.583" y="135.5" width="100%" height="100%" xlink:href="#r"/><use x="170.583" y="137.5" width="100%" height="100%" xlink:href="#o"/><use x="175.328" y="137.5" width="100%" height="100%" xlink:href="#m"/><use x="180.583" y="135.5" width="100%" height="100%" xlink:href="#y"/><use x="186.583" y="135.5" width="100%" height="100%" xlink:href="#z"/><use x="192.583" y="135.5" width="100%" height="100%" xlink:href="#u"/><use x="197.583" y="137.5" width="100%" height="100%" xlink:href="#o"/><use x="227.083" y="135.5" width="100%" height="100%" xlink:href="#e"/><use x="234.083" y="135.5" width="100%" height="100%" xlink:href="#z"/><use x="240.083" y="135.5" width="100%" height="100%" xlink:href="#A"/><use x="270.584" y="135.5" width="100%" height="100%" xlink:href="#x"/><use x="274.584" y="135.5" width="100%" height="100%" xlink:href="#v"/><use x="284.584" y="135.5" width="100%" height="100%" xlink:href="#B"/><use x="295.584" y="135.5" width="100%" height="100%" xlink:href="#e"/><use x="300.584" y="135.5" width="100%" height="100%" xlink:href="#y"/><use x="306.584" y="135.5" width="100%" height="100%" xlink:href="#z"/><use x="312.584" y="135.5" width="100%" height="100%" xlink:href="#A"/><use x="328.584" y="135.5" width="100%" height="100%" xlink:href="#x"/><use x="332.584" y="135.5" width="100%" height="100%" xlink:href="#v"/><use x="342.584" y="135.5" width="100%" height="100%" xlink:href="#B"/><use x="353.584" y="135.5" width="100%" height="100%" xlink:href="#e"/><use x="358.584" y="135.5" width="100%" height="100%" xlink:href="#y"/><use x="364.584" y="135.5" width="100%" height="100%" xlink:href="#z"/><use x="370.584" y="135.5" width="100%" height="100%" xlink:href="#A"/><use x="401.084" y="135.5" width="100%" height="100%" xlink:href="#e"/><use x="408.084" y="135.5" width="100%" height="100%" xlink:href="#z"/><use x="414.084" y="135.5" width="100%" height="100%" xlink:href="#A"/><use x="37.583" y="151.5" width="100%" height="100%" xlink:href="#l"/><use x="47.583" y="153.5" width="100%" height="100%" xlink:href="#m"/><use x="53.583" y="151.5" width="100%" height="100%" xlink:href="#n"/><use x="62.583" y="153.5" width="100%" height="100%" xlink:href="#o"/><use x="68.583" y="151.5" width="100%" height="100%" xlink:href="#b"/><use x="76.583" y="151.5" width="100%" height="100%" xlink:href="#l"/><use x="86.583" y="153.5" width="100%" height="100%" xlink:href="#o"/><use x="92.583" y="151.5" width="100%" height="100%" xlink:href="#n"/><use x="101.584" y="153.5" width="100%" height="100%" xlink:href="#o"/><use x="116.584" y="151.5" width="100%" height="100%" xlink:href="#x"/><use x="120.584" y="151.5" width="100%" height="100%" xlink:href="#q"/><use x="130.583" y="153.5" width="100%" height="100%" xlink:href="#o"/><use x="135.328" y="153.5" width="100%" height="100%" xlink:href="#o"/><use x="143.583" y="151.5" width="100%" height="100%" xlink:href="#r"/><use x="150.583" y="153.5" width="100%" height="100%" xlink:href="#m"/><use x="155.328" y="153.5" width="100%" height="100%" xlink:href="#o"/><use x="163.583" y="151.5" width="100%" height="100%" xlink:href="#r"/><use x="170.583" y="153.5" width="100%" height="100%" xlink:href="#o"/><use x="175.328" y="153.5" width="100%" height="100%" xlink:href="#o"/><use x="180.583" y="151.5" width="100%" height="100%" xlink:href="#y"/><use x="186.583" y="151.5" width="100%" height="100%" xlink:href="#z"/><use x="192.583" y="151.5" width="100%" height="100%" xlink:href="#u"/><use x="197.583" y="153.5" width="100%" height="100%" xlink:href="#o"/><use x="233.583" y="151.5" width="100%" height="100%" xlink:href="#w"/><use x="284.084" y="151.5" width="100%" height="100%" xlink:href="#v"/><use x="293.084" y="151.5" width="100%" height="100%" xlink:href="#z"/><use x="299.084" y="151.5" width="100%" height="100%" xlink:href="#A"/><use x="349.584" y="151.5" width="100%" height="100%" xlink:href="#w"/><use x="400.084" y="151.5" width="100%" height="100%" xlink:href="#v"/><use x="409.084" y="151.5" width="100%" height="100%" xlink:href="#z"/><use x="415.084" y="151.5" width="100%" height="100%" xlink:href="#A"/><use x="37.583" y="167.5" width="100%" height="100%" xlink:href="#l"/><use x="47.583" y="169.5" width="100%" height="100%" xlink:href="#o"/><use x="53.583" y="167.5" width="100%" height="100%" xlink:href="#n"/><use x="62.583" y="169.5" width="100%" height="100%" xlink:href="#m"/><use x="68.583" y="167.5" width="100%" height="100%" xlink:href="#b"/><use x="76.583" y="167.5" width="100%" height="100%" xlink:href="#l"/><use x="86.583" y="169.5" width="100%" height="100%" xlink:href="#m"/><use x="92.583" y="167.5" width="100%" height="100%" xlink:href="#n"/><use x="101.584" y="169.5" width="100%" height="100%" xlink:href="#m"/><use x="116.584" y="167.5" width="100%" height="100%" xlink:href="#x"/><use x="120.584" y="167.5" width="100%" height="100%" xlink:href="#q"/><use x="130.583" y="169.5" width="100%" height="100%" xlink:href="#m"/><use x="135.328" y="169.5" width="100%" height="100%" xlink:href="#m"/><use x="143.583" y="167.5" width="100%" height="100%" xlink:href="#r"/><use x="150.583" y="169.5" width="100%" height="100%" xlink:href="#m"/><use x="155.328" y="169.5" width="100%" height="100%" xlink:href="#m"/><use x="163.583" y="167.5" width="100%" height="100%" xlink:href="#r"/><use x="170.583" y="169.5" width="100%" height="100%" xlink:href="#o"/><use x="175.328" y="169.5" width="100%" height="100%" xlink:href="#m"/><use x="180.583" y="167.5" width="100%" height="100%" xlink:href="#y"/><use x="186.583" y="167.5" width="100%" height="100%" xlink:href="#z"/><use x="192.583" y="167.5" width="100%" height="100%" xlink:href="#u"/><use x="197.583" y="169.5" width="100%" height="100%" xlink:href="#m"/><use x="226.083" y="167.5" width="100%" height="100%" xlink:href="#v"/><use x="235.083" y="167.5" width="100%" height="100%" xlink:href="#z"/><use x="241.083" y="167.5" width="100%" height="100%" xlink:href="#A"/><use x="291.584" y="167.5" width="100%" height="100%" xlink:href="#w"/><use x="342.084" y="167.5" width="100%" height="100%" xlink:href="#v"/><use x="351.084" y="167.5" width="100%" height="100%" xlink:href="#z"/><use x="357.084" y="167.5" width="100%" height="100%" xlink:href="#A"/><use x="407.584" y="167.5" width="100%" height="100%" xlink:href="#w"/><use x="37.583" y="183.5" width="100%" height="100%" xlink:href="#l"/><use x="47.583" y="185.5" width="100%" height="100%" xlink:href="#o"/><use x="53.583" y="183.5" width="100%" height="100%" xlink:href="#n"/><use x="62.583" y="185.5" width="100%" height="100%" xlink:href="#m"/><use x="68.583" y="183.5" width="100%" height="100%" xlink:href="#b"/><use x="76.583" y="183.5" width="100%" height="100%" xlink:href="#l"/><use x="86.583" y="185.5" width="100%" height="100%" xlink:href="#m"/><use x="92.583" y="183.5" width="100%" height="100%" xlink:href="#n"/><use x="101.584" y="185.5" width="100%" height="100%" xlink:href="#o"/><use x="116.584" y="183.5" width="100%" height="100%" xlink:href="#x"/><use x="120.584" y="183.5" width="100%" height="100%" xlink:href="#q"/><use x="130.583" y="185.5" width="100%" height="100%" xlink:href="#m"/><use x="135.328" y="185.5" width="100%" height="100%" xlink:href="#m"/><use x="143.583" y="183.5" width="100%" height="100%" xlink:href="#r"/><use x="150.583" y="185.5" width="100%" height="100%" xlink:href="#m"/><use x="155.328" y="185.5" width="100%" height="100%" xlink:href="#o"/><use x="163.583" y="183.5" width="100%" height="100%" xlink:href="#r"/><use x="170.583" y="185.5" width="100%" height="100%" xlink:href="#o"/><use x="175.328" y="185.5" width="100%" height="100%" xlink:href="#m"/><use x="180.583" y="183.5" width="100%" height="100%" xlink:href="#y"/><use x="186.583" y="183.5" width="100%" height="100%" xlink:href="#z"/><use x="192.583" y="183.5" width="100%" height="100%" xlink:href="#u"/><use x="197.583" y="185.5" width="100%" height="100%" xlink:href="#m"/><use x="227.083" y="183.5" width="100%" height="100%" xlink:href="#e"/><use x="234.083" y="183.5" width="100%" height="100%" xlink:href="#z"/><use x="240.083" y="183.5" width="100%" height="100%" xlink:href="#A"/><use x="270.584" y="183.5" width="100%" height="100%" xlink:href="#x"/><use x="274.584" y="183.5" width="100%" height="100%" xlink:href="#v"/><use x="284.584" y="183.5" width="100%" height="100%" xlink:href="#B"/><use x="295.584" y="183.5" width="100%" height="100%" xlink:href="#e"/><use x="300.584" y="183.5" width="100%" height="100%" xlink:href="#y"/><use x="306.584" y="183.5" width="100%" height="100%" xlink:href="#z"/><use x="312.584" y="183.5" width="100%" height="100%" xlink:href="#A"/><use x="328.584" y="183.5" width="100%" height="100%" xlink:href="#x"/><use x="332.584" y="183.5" width="100%" height="100%" xlink:href="#v"/><use x="342.584" y="183.5" width="100%" height="100%" xlink:href="#B"/><use x="353.584" y="183.5" width="100%" height="100%" xlink:href="#e"/><use x="358.584" y="183.5" width="100%" height="100%" xlink:href="#y"/><use x="364.584" y="183.5" width="100%" height="100%" xlink:href="#z"/><use x="370.584" y="183.5" width="100%" height="100%" xlink:href="#A"/><use x="401.084" y="183.5" width="100%" height="100%" xlink:href="#e"/><use x="408.084" y="183.5" width="100%" height="100%" xlink:href="#z"/><use x="414.084" y="183.5" width="100%" height="100%" xlink:href="#A"/><use x="37.583" y="201.5" width="100%" height="100%" xlink:href="#l"/><use x="47.583" y="203.5" width="100%" height="100%" xlink:href="#o"/><use x="53.583" y="201.5" width="100%" height="100%" xlink:href="#n"/><use x="62.583" y="203.5" width="100%" height="100%" xlink:href="#m"/><use x="68.583" y="201.5" width="100%" height="100%" xlink:href="#b"/><use x="76.583" y="201.5" width="100%" height="100%" xlink:href="#l"/><use x="86.583" y="203.5" width="100%" height="100%" xlink:href="#o"/><use x="92.583" y="201.5" width="100%" height="100%" xlink:href="#n"/><use x="101.584" y="203.5" width="100%" height="100%" xlink:href="#m"/><use x="125.584" y="201.5" width="100%" height="100%" xlink:href="#p"/><use x="129.583" y="201.5" width="100%" height="100%" xlink:href="#q"/><use x="139.583" y="203.5" width="100%" height="100%" xlink:href="#m"/><use x="144.328" y="203.5" width="100%" height="100%" xlink:href="#o"/><use x="152.583" y="201.5" width="100%" height="100%" xlink:href="#r"/><use x="159.583" y="204.75" width="100%" height="100%" xlink:href="#o"/><use x="164.328" y="204.75" width="100%" height="100%" xlink:href="#m"/><use x="159.583" y="197.5" width="100%" height="100%" xlink:href="#o"/><use x="169.583" y="201.5" width="100%" height="100%" xlink:href="#s"/><use x="175.583" y="201.5" width="100%" height="100%" xlink:href="#t"/><use x="183.583" y="201.5" width="100%" height="100%" xlink:href="#u"/><use x="188.583" y="203.5" width="100%" height="100%" xlink:href="#o"/><use x="233.583" y="201.5" width="100%" height="100%" xlink:href="#w"/><use x="291.584" y="201.5" width="100%" height="100%" xlink:href="#w"/><use x="349.584" y="201.5" width="100%" height="100%" xlink:href="#v"/><use x="407.584" y="201.5" width="100%" height="100%" xlink:href="#w"/><use x="37.583" y="219.5" width="100%" height="100%" xlink:href="#l"/><use x="47.583" y="221.5" width="100%" height="100%" xlink:href="#o"/><use x="53.583" y="219.5" width="100%" height="100%" xlink:href="#n"/><use x="62.583" y="221.5" width="100%" height="100%" xlink:href="#m"/><use x="68.583" y="219.5" width="100%" height="100%" xlink:href="#b"/><use x="76.583" y="219.5" width="100%" height="100%" xlink:href="#l"/><use x="86.583" y="221.5" width="100%" height="100%" xlink:href="#o"/><use x="92.583" y="219.5" width="100%" height="100%" xlink:href="#n"/><use x="101.584" y="221.5" width="100%" height="100%" xlink:href="#o"/><use x="116.584" y="219.5" width="100%" height="100%" xlink:href="#x"/><use x="120.584" y="219.5" width="100%" height="100%" xlink:href="#q"/><use x="130.583" y="221.5" width="100%" height="100%" xlink:href="#m"/><use x="135.328" y="221.5" width="100%" height="100%" xlink:href="#o"/><use x="143.583" y="219.5" width="100%" height="100%" xlink:href="#r"/><use x="150.583" y="221.5" width="100%" height="100%" xlink:href="#o"/><use x="155.328" y="221.5" width="100%" height="100%" xlink:href="#m"/><use x="163.583" y="219.5" width="100%" height="100%" xlink:href="#r"/><use x="170.583" y="221.5" width="100%" height="100%" xlink:href="#o"/><use x="175.328" y="221.5" width="100%" height="100%" xlink:href="#o"/><use x="180.583" y="219.5" width="100%" height="100%" xlink:href="#y"/><use x="186.583" y="219.5" width="100%" height="100%" xlink:href="#z"/><use x="192.583" y="219.5" width="100%" height="100%" xlink:href="#u"/><use x="197.583" y="221.5" width="100%" height="100%" xlink:href="#o"/><use x="233.583" y="219.5" width="100%" height="100%" xlink:href="#w"/><use x="291.584" y="219.5" width="100%" height="100%" xlink:href="#w"/><use x="342.084" y="219.5" width="100%" height="100%" xlink:href="#v"/><use x="351.084" y="219.5" width="100%" height="100%" xlink:href="#z"/><use x="357.084" y="219.5" width="100%" height="100%" xlink:href="#A"/><use x="400.084" y="219.5" width="100%" height="100%" xlink:href="#v"/><use x="409.084" y="219.5" width="100%" height="100%" xlink:href="#z"/><use x="415.084" y="219.5" width="100%" height="100%" xlink:href="#A"/><use x="37.583" y="235.5" width="100%" height="100%" xlink:href="#l"/><use x="47.583" y="237.5" width="100%" height="100%" xlink:href="#o"/><use x="53.583" y="235.5" width="100%" height="100%" xlink:href="#n"/><use x="62.583" y="237.5" width="100%" height="100%" xlink:href="#o"/><use x="68.583" y="235.5" width="100%" height="100%" xlink:href="#b"/><use x="76.583" y="235.5" width="100%" height="100%" xlink:href="#l"/><use x="86.583" y="237.5" width="100%" height="100%" xlink:href="#m"/><use x="92.583" y="235.5" width="100%" height="100%" xlink:href="#n"/><use x="101.584" y="237.5" width="100%" height="100%" xlink:href="#m"/><use x="116.584" y="235.5" width="100%" height="100%" xlink:href="#x"/><use x="120.584" y="235.5" width="100%" height="100%" xlink:href="#q"/><use x="130.583" y="237.5" width="100%" height="100%" xlink:href="#o"/><use x="135.328" y="237.5" width="100%" height="100%" xlink:href="#m"/><use x="143.583" y="235.5" width="100%" height="100%" xlink:href="#r"/><use x="150.583" y="237.5" width="100%" height="100%" xlink:href="#m"/><use x="155.328" y="237.5" width="100%" height="100%" xlink:href="#m"/><use x="163.583" y="235.5" width="100%" height="100%" xlink:href="#r"/><use x="170.583" y="237.5" width="100%" height="100%" xlink:href="#o"/><use x="175.328" y="237.5" width="100%" height="100%" xlink:href="#o"/><use x="180.583" y="235.5" width="100%" height="100%" xlink:href="#y"/><use x="186.583" y="235.5" width="100%" height="100%" xlink:href="#z"/><use x="192.583" y="235.5" width="100%" height="100%" xlink:href="#u"/><use x="197.583" y="237.5" width="100%" height="100%" xlink:href="#m"/><use x="212.583" y="235.5" width="100%" height="100%" xlink:href="#x"/><use x="216.583" y="235.5" width="100%" height="100%" xlink:href="#v"/><use x="226.583" y="235.5" width="100%" height="100%" xlink:href="#B"/><use x="237.583" y="235.5" width="100%" height="100%" xlink:href="#e"/><use x="242.583" y="235.5" width="100%" height="100%" xlink:href="#y"/><use x="248.583" y="235.5" width="100%" height="100%" xlink:href="#z"/><use x="254.583" y="235.5" width="100%" height="100%" xlink:href="#A"/><use x="285.084" y="235.5" width="100%" height="100%" xlink:href="#e"/><use x="292.084" y="235.5" width="100%" height="100%" xlink:href="#z"/><use x="298.084" y="235.5" width="100%" height="100%" xlink:href="#A"/><use x="343.084" y="235.5" width="100%" height="100%" xlink:href="#e"/><use x="350.084" y="235.5" width="100%" height="100%" xlink:href="#z"/><use x="356.084" y="235.5" width="100%" height="100%" xlink:href="#A"/><use x="386.584" y="235.5" width="100%" height="100%" xlink:href="#x"/><use x="390.584" y="235.5" width="100%" height="100%" xlink:href="#v"/><use x="400.584" y="235.5" width="100%" height="100%" xlink:href="#B"/><use x="411.584" y="235.5" width="100%" height="100%" xlink:href="#e"/><use x="416.584" y="235.5" width="100%" height="100%" xlink:href="#y"/><use x="422.584" y="235.5" width="100%" height="100%" xlink:href="#z"/><use x="428.584" y="235.5" width="100%" height="100%" xlink:href="#A"/><use x="37.583" y="251.5" width="100%" height="100%" xlink:href="#l"/><use x="47.583" y="253.5" width="100%" height="100%" xlink:href="#o"/><use x="53.583" y="251.5" width="100%" height="100%" xlink:href="#n"/><use x="62.583" y="253.5" width="100%" height="100%" xlink:href="#o"/><use x="68.583" y="251.5" width="100%" height="100%" xlink:href="#b"/><use x="76.583" y="251.5" width="100%" height="100%" xlink:href="#l"/><use x="86.583" y="253.5" width="100%" height="100%" xlink:href="#m"/><use x="92.583" y="251.5" width="100%" height="100%" xlink:href="#n"/><use x="101.584" y="253.5" width="100%" height="100%" xlink:href="#o"/><use x="116.584" y="251.5" width="100%" height="100%" xlink:href="#x"/><use x="120.584" y="251.5" width="100%" height="100%" xlink:href="#q"/><use x="130.583" y="253.5" width="100%" height="100%" xlink:href="#o"/><use x="135.328" y="253.5" width="100%" height="100%" xlink:href="#m"/><use x="143.583" y="251.5" width="100%" height="100%" xlink:href="#r"/><use x="150.583" y="253.5" width="100%" height="100%" xlink:href="#m"/><use x="155.328" y="253.5" width="100%" height="100%" xlink:href="#o"/><use x="163.583" y="251.5" width="100%" height="100%" xlink:href="#r"/><use x="170.583" y="253.5" width="100%" height="100%" xlink:href="#o"/><use x="175.328" y="253.5" width="100%" height="100%" xlink:href="#o"/><use x="180.583" y="251.5" width="100%" height="100%" xlink:href="#y"/><use x="186.583" y="251.5" width="100%" height="100%" xlink:href="#z"/><use x="192.583" y="251.5" width="100%" height="100%" xlink:href="#u"/><use x="197.583" y="253.5" width="100%" height="100%" xlink:href="#m"/><use x="233.583" y="251.5" width="100%" height="100%" xlink:href="#w"/><use x="284.084" y="251.5" width="100%" height="100%" xlink:href="#v"/><use x="293.084" y="251.5" width="100%" height="100%" xlink:href="#z"/><use x="299.084" y="251.5" width="100%" height="100%" xlink:href="#A"/><use x="349.584" y="251.5" width="100%" height="100%" xlink:href="#w"/><use x="400.084" y="251.5" width="100%" height="100%" xlink:href="#v"/><use x="409.084" y="251.5" width="100%" height="100%" xlink:href="#z"/><use x="415.084" y="251.5" width="100%" height="100%" xlink:href="#A"/><use x="37.583" y="267.5" width="100%" height="100%" xlink:href="#l"/><use x="47.583" y="269.5" width="100%" height="100%" xlink:href="#o"/><use x="53.583" y="267.5" width="100%" height="100%" xlink:href="#n"/><use x="62.583" y="269.5" width="100%" height="100%" xlink:href="#o"/><use x="68.583" y="267.5" width="100%" height="100%" xlink:href="#b"/><use x="76.583" y="267.5" width="100%" height="100%" xlink:href="#l"/><use x="86.583" y="269.5" width="100%" height="100%" xlink:href="#o"/><use x="92.583" y="267.5" width="100%" height="100%" xlink:href="#n"/><use x="101.584" y="269.5" width="100%" height="100%" xlink:href="#m"/><use x="116.584" y="267.5" width="100%" height="100%" xlink:href="#x"/><use x="120.584" y="267.5" width="100%" height="100%" xlink:href="#q"/><use x="130.583" y="269.5" width="100%" height="100%" xlink:href="#o"/><use x="135.328" y="269.5" width="100%" height="100%" xlink:href="#o"/><use x="143.583" y="267.5" width="100%" height="100%" xlink:href="#r"/><use x="150.583" y="269.5" width="100%" height="100%" xlink:href="#o"/><use x="155.328" y="269.5" width="100%" height="100%" xlink:href="#m"/><use x="163.583" y="267.5" width="100%" height="100%" xlink:href="#r"/><use x="170.583" y="269.5" width="100%" height="100%" xlink:href="#o"/><use x="175.328" y="269.5" width="100%" height="100%" xlink:href="#o"/><use x="180.583" y="267.5" width="100%" height="100%" xlink:href="#y"/><use x="186.583" y="267.5" width="100%" height="100%" xlink:href="#z"/><use x="192.583" y="267.5" width="100%" height="100%" xlink:href="#u"/><use x="197.583" y="269.5" width="100%" height="100%" xlink:href="#o"/><use x="233.583" y="267.5" width="100%" height="100%" xlink:href="#w"/><use x="291.584" y="267.5" width="100%" height="100%" xlink:href="#w"/><use x="342.084" y="267.5" width="100%" height="100%" xlink:href="#v"/><use x="351.084" y="267.5" width="100%" height="100%" xlink:href="#z"/><use x="357.084" y="267.5" width="100%" height="100%" xlink:href="#A"/><use x="400.084" y="267.5" width="100%" height="100%" xlink:href="#v"/><use x="409.084" y="267.5" width="100%" height="100%" xlink:href="#z"/><use x="415.084" y="267.5" width="100%" height="100%" xlink:href="#A"/><use x="37.583" y="285.5" width="100%" height="100%" xlink:href="#l"/><use x="47.583" y="287.5" width="100%" height="100%" xlink:href="#o"/><use x="53.583" y="285.5" width="100%" height="100%" xlink:href="#n"/><use x="62.583" y="287.5" width="100%" height="100%" xlink:href="#o"/><use x="68.583" y="285.5" width="100%" height="100%" xlink:href="#b"/><use x="76.583" y="285.5" width="100%" height="100%" xlink:href="#l"/><use x="86.583" y="287.5" width="100%" height="100%" xlink:href="#o"/><use x="92.583" y="285.5" width="100%" height="100%" xlink:href="#n"/><use x="101.584" y="287.5" width="100%" height="100%" xlink:href="#o"/><use x="125.584" y="285.5" width="100%" height="100%" xlink:href="#p"/><use x="129.583" y="285.5" width="100%" height="100%" xlink:href="#q"/><use x="139.583" y="287.5" width="100%" height="100%" xlink:href="#o"/><use x="144.328" y="287.5" width="100%" height="100%" xlink:href="#o"/><use x="152.583" y="285.5" width="100%" height="100%" xlink:href="#r"/><use x="159.583" y="288.75" width="100%" height="100%" xlink:href="#o"/><use x="164.328" y="288.75" width="100%" height="100%" xlink:href="#o"/><use x="159.583" y="281.5" width="100%" height="100%" xlink:href="#o"/><use x="169.583" y="285.5" width="100%" height="100%" xlink:href="#s"/><use x="175.583" y="285.5" width="100%" height="100%" xlink:href="#t"/><use x="183.583" y="285.5" width="100%" height="100%" xlink:href="#u"/><use x="188.583" y="287.5" width="100%" height="100%" xlink:href="#o"/><use x="233.583" y="285.5" width="100%" height="100%" xlink:href="#w"/><use x="291.584" y="285.5" width="100%" height="100%" xlink:href="#w"/><use x="349.584" y="285.5" width="100%" height="100%" xlink:href="#w"/><use x="407.584" y="285.5" width="100%" height="100%" xlink:href="#v"/></g></svg>