<svg width="614pt" height="301pt" viewBox="0 0 614 301" xmlns="http://www.w3.org/2000/svg" xmlns:xlink="http://www.w3.org/1999/xlink"><defs><symbol id="d" overflow="visible"><path d="M4.594-.773c-.367.316-.719.546-1.063.695-.34.144-.703.219-1.086.219-.574 0-1.039-.168-1.39-.508-.352-.336-.528-.77-.528-1.297 0-.348.079-.656.239-.922.156-.27.367-.484.629-.644.261-.165.582-.278.96-.348.239-.047.692-.086 1.356-.113.668-.028 1.145-.098 1.434-.211.082-.29.12-.528.12-.723 0-.246-.085-.438-.265-.578-.246-.195-.61-.293-1.078-.293-.445 0-.812.098-1.094.297a1.626 1.626 0 0 0-.617.84l-1.074-.094c.219-.617.566-1.09 1.039-1.418.477-.328 1.074-.492 1.797-.492.77 0 1.379.183 1.828.55a1.3 1.3 0 0 1 .516 1.067c0 .332-.051.715-.145 1.152l-.348 1.547c-.109.492-.164.895-.164 1.203 0 .195.043.477.13.844H4.718a3.895 3.895 0 0 1-.125-.774zm.39-2.38a2.507 2.507 0 0 1-.476.137c-.168.032-.453.063-.852.098-.617.055-1.054.125-1.304.207a1.133 1.133 0 0 0-.579.402 1.035 1.035 0 0 0-.19.61c0 .297.1.543.308.73.203.192.496.29.875.29A2.05 2.05 0 0 0 3.78-.958c.324-.188.578-.445.766-.777s.336-.805.437-1.418z"/></symbol><symbol id="o" overflow="visible"><path d="M2.875-.86l-.172.868c-.254.066-.5.097-.742.097-.422 0-.758-.105-1.008-.308C.766-.36.672-.574.672-.843c0-.137.055-.454.156-.946l.754-3.613h-.84l.172-.82h.836l.324-1.528 1.215-.734-.477 2.261h1.043l-.175.82H2.64L1.923-1.96c-.09.438-.133.695-.133.781 0 .125.035.223.106.29.074.066.19.1.355.1.234 0 .445-.023.625-.07z"/></symbol><symbol id="e" overflow="visible"><path d="M4.531-.762V0H.273a1.384 1.384 0 0 1 .09-.55c.11-.29.285-.575.524-.856s.582-.606 1.035-.977c.7-.574 1.172-1.027 1.418-1.363.246-.336.371-.652.371-.953 0-.313-.113-.578-.34-.793-.223-.215-.515-.32-.875-.32-.379 0-.683.113-.914.34-.23.23-.344.546-.348.949l-.812-.082c.055-.606.266-1.07.629-1.387.363-.317.851-.477 1.465-.477.617 0 1.105.172 1.464.516s.543.765.543 1.273c0 .258-.054.512-.16.758-.105.25-.281.512-.523.79-.246.273-.653.651-1.223 1.132-.473.398-.777.668-.914.812a2.87 2.87 0 0 0-.332.426z"/></symbol><symbol id="f" overflow="visible"><path d="M6.344-3.926H.664v-.984h5.68zm0 2.614H.664v-.985h5.68z"/></symbol><symbol id="g" overflow="visible"><path d="M6.04-1.016V0H.362C.355-.254.398-.5.484-.734c.145-.387.38-.766.696-1.141.32-.375.781-.809 1.383-1.3.933-.766 1.562-1.372 1.89-1.821.328-.445.492-.871.492-1.27 0-.418-.148-.77-.449-1.054-.297-.29-.687-.43-1.168-.43-.508 0-.914.148-1.219.453s-.46.727-.46 1.266l-1.087-.11c.075-.808.352-1.425.836-1.847.485-.426 1.137-.637 1.953-.637.825 0 1.477.227 1.957.687a2.25 2.25 0 0 1 .723 1.696c0 .343-.07.683-.21 1.015-.141.332-.376.68-.704 1.047-.324.367-.867.875-1.625 1.516-.633.531-1.039.89-1.219 1.078-.18.191-.328.383-.445.57z"/></symbol><symbol id="h" overflow="visible"><path d="M.504-2.266l1.055-.14c.12.597.328 1.027.617 1.289.293.266.644.398 1.066.398.496 0 .914-.172 1.254-.515.344-.344.512-.774.512-1.282 0-.484-.156-.882-.473-1.195-.316-.316-.719-.472-1.207-.472-.2 0-.445.039-.742.117l.117-.926c.07.008.125.012.168.012.45 0 .856-.118 1.215-.352.36-.234.539-.598.539-1.082 0-.387-.133-.71-.395-.96-.261-.255-.597-.384-1.011-.384-.41 0-.754.13-1.028.387-.273.258-.449.645-.527 1.16L.61-6.398c.13-.707.422-1.254.88-1.645.456-.386 1.027-.582 1.706-.582.47 0 .899.102 1.293.301.395.203.696.477.907.824.207.348.312.719.312 1.11 0 .37-.098.707-.3 1.011-.2.305-.493.547-.884.727.508.117.903.36 1.184.73.281.368.422.828.422 1.383 0 .75-.273 1.387-.82 1.91-.547.52-1.239.782-2.075.782-.753 0-1.378-.223-1.878-.676C.859-.973.574-1.554.504-2.265z"/></symbol><symbol id="i" overflow="visible"><path d="M4.469 0H3.414v-6.719a5.488 5.488 0 0 1-.996.727 7.154 7.154 0 0 1-1.113.543v-1.02a6.295 6.295 0 0 0 1.547-1.008c.441-.394.757-.777.937-1.148h.68z"/></symbol><symbol id="j" overflow="visible"><path d="M.5-4.234C.5-5.25.602-6.07.813-6.688c.207-.62.519-1.097.93-1.433.413-.336.929-.504 1.554-.504.46 0 .867.094 1.215.277.347.188.636.453.863.805.227.348.402.773.531 1.277.13.5.196 1.18.196 2.032 0 1.007-.106 1.82-.313 2.437-.207.621-.516 1.098-.93 1.438-.41.335-.93.507-1.562.507-.828 0-1.477-.297-1.95-.89C.782-1.457.5-2.625.5-4.234zm1.082 0c0 1.41.164 2.347.496 2.812.328.469.734.703 1.219.703s.894-.234 1.223-.703c.332-.469.496-1.406.496-2.812 0-1.414-.164-2.356-.496-2.82-.329-.466-.739-.696-1.23-.696-.485 0-.876.203-1.165.613-.363.524-.543 1.489-.543 2.903z"/></symbol><symbol id="k" overflow="visible"><path d="M1.09 0v-1.203h1.199V0z"/></symbol><symbol id="l" overflow="visible"><path d="M3.879 0v-2.055H.152v-.968L4.07-8.59h.864v5.567h1.16v.968h-1.16V0zm0-3.023v-3.875L1.187-3.023z"/></symbol><symbol id="m" overflow="visible"><path d="M5.969-6.484l-1.047.078c-.094-.414-.227-.711-.399-.899a1.398 1.398 0 0 0-1.054-.453c-.336 0-.633.094-.883.281-.332.243-.594.594-.79 1.063-.19.465-.288 1.125-.296 1.984.254-.386.563-.672.93-.86a2.513 2.513 0 0 1 1.156-.28c.703 0 1.3.258 1.797.773.492.52.742 1.188.742 2.008 0 .539-.117 1.039-.352 1.504-.23.46-.55.816-.957 1.062a2.617 2.617 0 0 1-1.382.371c-.88 0-1.598-.324-2.153-.972C.727-1.47.453-2.535.453-4.02c0-1.66.305-2.867.918-3.62.535-.657 1.254-.985 2.16-.985.676 0 1.23.187 1.664.57.43.38.688.899.774 1.57zM1.664-2.781c0 .363.078.71.23 1.039.157.332.372.586.649.762.277.171.566.261.871.261.445 0 .828-.18 1.148-.539.32-.36.485-.851.485-1.469 0-.593-.16-1.058-.477-1.402a1.565 1.565 0 0 0-1.195-.512c-.477 0-.883.172-1.21.512-.333.344-.5.793-.5 1.348z"/></symbol><symbol id="n" overflow="visible"><path d="M2.121-4.656c-.437-.16-.762-.39-.973-.688C.938-5.64.832-5.996.832-6.41c0-.625.223-1.152.676-1.574.449-.426 1.047-.64 1.789-.64.75 0 1.355.218 1.812.651.457.438.688.965.688 1.59 0 .399-.106.746-.316 1.043-.208.293-.528.52-.95.684.528.172.926.445 1.203.828.274.383.414.844.414 1.375a2.47 2.47 0 0 1-.78 1.852c-.52.5-1.204.75-2.052.75s-1.53-.254-2.05-.754c-.52-.504-.782-1.13-.782-1.88 0-.558.145-1.027.426-1.402.285-.378.688-.636 1.211-.77zm-.21-1.79c0 .407.128.739.394.997.261.258.601.387 1.015.387.407 0 .742-.13 1-.383.262-.258.39-.57.39-.942 0-.386-.132-.71-.401-.976a1.364 1.364 0 0 0-.997-.395c-.402 0-.738.13-1.003.387a1.245 1.245 0 0 0-.399.926zm-.34 3.97c0 .3.07.59.214.87.14.282.356.5.637.653.281.156.582.234.906.234.504 0 .922-.164 1.25-.488s.492-.738.492-1.238c0-.508-.172-.926-.507-1.258-.34-.332-.762-.5-1.27-.5-.496 0-.906.164-1.234.492-.325.328-.489.742-.489 1.235z"/></symbol><symbol id="u" overflow="visible"><path d="M4.852-2.281l1.039.137c-.114.714-.407 1.273-.871 1.68-.47.402-1.043.605-1.723.605-.852 0-1.535-.278-2.05-.836-.52-.555-.778-1.352-.778-2.39 0-.673.11-1.263.336-1.766.222-.504.558-.883 1.015-1.133.453-.254.95-.38 1.485-.38.675 0 1.226.173 1.656.513.43.343.707.828.828 1.457l-1.023.16c-.098-.418-.274-.735-.52-.946-.25-.21-.55-.316-.902-.316-.531 0-.961.191-1.293.57-.332.383-.496.985-.496 1.809 0 .836.156 1.445.476 1.82.32.38.742.57 1.258.57.414 0 .758-.124 1.035-.382.278-.254.453-.64.528-1.172z"/></symbol><symbol id="p" overflow="visible"><path d="M2.383.125l-8.606-1.8v-.981l.867.183c-.378-.363-.64-.687-.789-.976a1.992 1.992 0 0 1-.218-.91 1.9 1.9 0 0 1 .648-1.477c.43-.39 1.05-.586 1.856-.586.648 0 1.238.11 1.77.32.534.215.964.48 1.284.793.325.313.563.63.72.95.151.32.226.648.226.984 0 .746-.38 1.324-1.137 1.734l3.379.703zm-4.926-2.102c.465 0 .785-.03.965-.097a1.315 1.315 0 0 0 .851-1.254c0-.61-.343-1.102-1.027-1.477-.687-.375-1.387-.562-2.101-.562-.528 0-.934.125-1.223.379-.285.25-.43.566-.43.941 0 .27.07.516.215.75.14.23.355.441.637.64.285.196.632.36 1.039.489.41.129.77.191 1.074.191z"/></symbol><symbol id="q" overflow="visible"><path d="M-.762-4.531H0v4.258a1.384 1.384 0 0 1-.55-.09c-.29-.11-.575-.285-.856-.524s-.606-.582-.977-1.035c-.574-.7-1.027-1.172-1.363-1.418-.336-.246-.652-.371-.953-.371-.313 0-.578.113-.793.34-.215.223-.32.515-.32.875 0 .379.113.683.34.914.23.23.546.344.949.348l-.082.812c-.606-.055-1.07-.266-1.387-.629-.317-.363-.477-.851-.477-1.465 0-.617.172-1.105.516-1.464s.765-.543 1.273-.543c.258 0 .512.054.758.16.25.105.512.281.79.523.273.246.651.653 1.132 1.223.398.473.668.777.812.914.141.133.286.242.426.332z"/></symbol><clipPath id="a"><path d="M76 57h236v47H76z"/></clipPath><clipPath id="b"><path d="M76 103h236v78H76z"/></clipPath><clipPath id="c"><path d="M76 142h236v103H76z"/></clipPath><clipPath id="r"><path d="M427 17h182v87H427z"/></clipPath><clipPath id="s"><path d="M373 49h236v93H373z"/></clipPath><clipPath id="t"><path d="M373 88h236v78H373z"/></clipPath></defs><g clip-path="url(#a)"><path d="M82.363 95.68l.07-.012.07-.008.41-.058.552-.074 1.097-.153 2.196-.308 4.765-.66 4.45-.618 4.363-.605 4.73-.656 4.414-.614 4.785-.668 4.7-.652 4.379-.605 4.753-.66 4.438-.618 4.348-.605 4.718-.653 4.403-.613 4.773-.664 4.684-.648 4.367-.61 4.742-.656 4.422-.613 4.793-.668 4.707-.653 4.387-.609 4.761-.66 4.446-.617 4.355-.606 4.727-.656 4.41-.613 4.781-.664 4.692-.653 4.379-.61 4.746-.655 4.43-.618 4.343-.601 4.715-.656 4.398-.61 4.766-.664 4.453-.617 4.363-.605 4.735-.66 4.418-.614 4.789-.664 4.7-.652 4.386-.61 4.754-.66 4.437-.617 4.352-.605 4.722-.657 4.407-.61.078-.01.074-.013.156-.02.305-.042.617-.086 1.227-.172.078-.008.078-.011.152-.024.309-.039.613-.086.156-.023.153-.02.308-.043.075-.011.078-.012.152-.02.156-.023.075-.008.078-.012" fill="none" stroke="#5d81b4" stroke-linecap="square" stroke-miterlimit="3.25" stroke-width="1.6"/></g><g clip-path="url(#b)"><path d="M82.363 173.42l.14-.04.137-.038.274-.074.55-.153 1.098-.308 2.196-.61 4.765-1.324 4.45-1.234 4.363-1.211 4.73-1.317 4.414-1.226 4.785-1.328 4.7-1.305 4.379-1.219 4.753-1.316 4.438-1.235 4.348-1.207 4.718-1.312 4.403-1.223 4.773-1.324 4.684-1.3 4.367-1.216 4.742-1.316 4.422-1.227 4.793-1.332 4.707-1.308 4.387-1.219 4.761-1.324 4.446-1.235 4.355-1.207 4.727-1.312 4.41-1.227 4.781-1.328 4.692-1.304 4.379-1.215 4.746-1.32 4.43-1.231 4.343-1.207 4.715-1.309 4.398-1.222 4.766-1.325 4.453-1.234 4.363-1.21 4.735-1.317 4.418-1.227 4.789-1.332 4.7-1.305 4.386-1.218 4.754-1.32 4.437-1.235 4.352-1.207 4.722-1.313 4.407-1.222.078-.024.074-.02.156-.042.305-.086.617-.172 1.227-.34.078-.02.078-.023.152-.043.309-.086.613-.168.078-.023.078-.02.153-.043.308-.086.075-.023.078-.02.152-.043.078-.019.078-.023.075-.02.078-.023" fill="none" stroke="#e09b24" stroke-linecap="square" stroke-miterlimit="3.25" stroke-width="1.6"/></g><g clip-path="url(#c)"><path d="M82.363 237.02l.14-.055.137-.05.274-.11.55-.215 3.294-1.289 4.765-1.867 4.45-1.738 4.363-1.711 4.73-1.852 4.414-1.726 4.785-1.871 4.7-1.84 4.379-1.715 4.753-1.86 4.438-1.738 4.348-1.703 4.718-1.844 4.403-1.726 4.773-1.867 4.684-1.832 4.367-1.711 4.742-1.856 4.422-1.73 4.793-1.875 4.707-1.844 4.387-1.719 4.761-1.863 4.446-1.739 4.355-1.707 4.727-1.847 4.41-1.727 4.781-1.871 4.692-1.836 4.379-1.715 4.746-1.86 4.43-1.733 4.343-1.7 4.715-1.843 4.398-1.723 4.766-1.867 4.453-1.743 4.363-1.707 4.735-1.851 4.418-1.73 4.789-1.876 4.7-1.84 4.386-1.714 4.754-1.864 4.437-1.734 4.352-1.703 4.722-1.852 4.407-1.722.078-.032.074-.027.156-.062.305-.122.617-.238 1.227-.48.156-.063.152-.058.309-.122.613-.242.078-.027.078-.031.153-.059.308-.121.075-.031.078-.031.152-.06.078-.03.078-.028.075-.03.078-.032" fill="none" stroke="#8eb031" stroke-linecap="square" stroke-miterlimit="3.25" stroke-width="1.6"/></g><use x="273.258" y="61.578" xlink:href="#d"/><use x="280.258" y="63.578" xlink:href="#e"/><use x="289.258" y="61.578" xlink:href="#f"/><use x="299.258" y="61.578" xlink:href="#g"/><use x="273.258" y="108.223" xlink:href="#d"/><use x="280.258" y="110.223" xlink:href="#e"/><use x="289.258" y="108.223" xlink:href="#f"/><use x="299.258" y="108.223" xlink:href="#h"/><use x="267.258" y="146.387" xlink:href="#d"/><use x="274.258" y="148.387" xlink:href="#e"/><use x="283.258" y="146.387" xlink:href="#f"/><use x="293.258" y="146.387" xlink:href="#i"/><use x="299.932" y="146.387" xlink:href="#g"/><g fill="none" stroke="#656565" stroke-miterlimit="3.25" stroke-width=".5"><g stroke-linecap="square"><path d="M310.923 251.16H77.693M77.693 251.16V17.93M77.693 17.934h233.23M310.923 17.934v233.23"/></g><path d="M82.363 251.16v-3.52"/></g><use x="73.861" y="265.159" xlink:href="#j"/><use x="80.535" y="265.159" xlink:href="#k"/><use x="83.869" y="265.159" xlink:href="#j"/><g fill="none" stroke="#656565" stroke-miterlimit="3.25" stroke-width=".5"><path d="M93.553 251.16v-2.113M104.753 251.16v-2.113M115.943 251.16v-2.113M127.143 251.16v-3.52"/></g><use x="118.64" y="265.159" xlink:href="#j"/><use x="125.314" y="265.159" xlink:href="#k"/><use x="128.648" y="265.159" xlink:href="#g"/><g fill="none" stroke="#656565" stroke-miterlimit="3.25" stroke-width=".5"><path d="M138.333 251.16v-2.113M149.533 251.16v-2.113M160.723 251.16v-2.113M171.913 251.16v-3.52"/></g><use x="163.42" y="265.159" xlink:href="#j"/><use x="170.093" y="265.159" xlink:href="#k"/><use x="173.427" y="265.159" xlink:href="#l"/><g fill="none" stroke="#656565" stroke-miterlimit="3.25" stroke-width=".5"><path d="M183.113 251.16v-2.113M194.313 251.16v-2.113M205.503 251.16v-2.113M216.703 251.16v-3.52"/></g><use x="208.199" y="265.159" xlink:href="#j"/><use x="214.873" y="265.159" xlink:href="#k"/><use x="218.207" y="265.159" xlink:href="#m"/><g fill="none" stroke="#656565" stroke-miterlimit="3.25" stroke-width=".5"><path d="M227.893 251.16v-2.113M239.093 251.16v-2.113M250.283 251.16v-2.113M261.473 251.16v-3.52"/></g><use x="252.978" y="265.159" xlink:href="#j"/><use x="259.652" y="265.159" xlink:href="#k"/><use x="262.986" y="265.159" xlink:href="#n"/><g fill="none" stroke="#656565" stroke-miterlimit="3.25" stroke-width=".5"><path d="M272.673 251.16v-2.113M283.863 251.16v-2.113M295.063 251.16v-2.113M306.253 251.16v-3.52"/></g><use x="297.758" y="265.159" xlink:href="#i"/><use x="304.432" y="265.159" xlink:href="#k"/><use x="307.766" y="265.159" xlink:href="#j"/><path d="M77.693 251.16h3.52" fill="none" stroke="#656565" stroke-miterlimit="3.25" stroke-width=".5"/><use x="57.696" y="255.159" xlink:href="#j"/><use x="64.37" y="255.159" xlink:href="#k"/><use x="67.704" y="255.159" xlink:href="#j"/><g fill="none" stroke="#656565" stroke-miterlimit="3.25" stroke-width=".5"><path d="M77.693 239.5h2.113M77.693 227.84h2.113M77.693 216.18h2.113M77.693 204.51h3.52"/></g><use x="57.696" y="208.513" xlink:href="#j"/><use x="64.37" y="208.513" xlink:href="#k"/><use x="67.704" y="208.513" xlink:href="#g"/><g fill="none" stroke="#656565" stroke-miterlimit="3.25" stroke-width=".5"><path d="M77.693 192.85h2.113M77.693 181.19h2.113M77.693 169.53h2.113M77.693 157.87h3.52"/></g><use x="57.696" y="161.868" xlink:href="#j"/><use x="64.37" y="161.868" xlink:href="#k"/><use x="67.704" y="161.868" xlink:href="#l"/><g fill="none" stroke="#656565" stroke-miterlimit="3.25" stroke-width=".5"><path d="M77.693 146.21h2.113M77.693 134.55h2.113M77.693 122.88h2.113M77.693 111.22h3.52"/></g><use x="57.696" y="115.223" xlink:href="#j"/><use x="64.37" y="115.223" xlink:href="#k"/><use x="67.704" y="115.223" xlink:href="#m"/><g fill="none" stroke="#656565" stroke-miterlimit="3.25" stroke-width=".5"><path d="M77.693 99.56h2.113M77.693 87.902h2.113M77.693 76.238h2.113M77.693 64.578h3.52"/></g><g><use x="57.696" y="68.578" xlink:href="#j"/><use x="64.37" y="68.578" xlink:href="#k"/><use x="67.704" y="68.578" xlink:href="#n"/></g><g fill="none" stroke="#656565" stroke-miterlimit="3.25" stroke-width=".5"><path d="M77.693 52.918h2.113M77.693 41.254h2.113M77.693 29.594h2.113M77.693 17.934h3.52"/></g><g><use x="57.696" y="21.933" xlink:href="#i"/><use x="64.37" y="21.933" xlink:href="#k"/><use x="67.704" y="21.933" xlink:href="#j"/></g><g fill="none" stroke="#656565" stroke-miterlimit="3.25" stroke-width=".1"><path d="M82.363 17.934v2.332M127.143 17.934v2.332M171.913 17.934v2.332M216.703 17.934v2.332M261.473 17.934v2.332M306.253 17.934v2.332M93.553 17.934v2.11M104.753 17.934v2.11M115.943 17.934v2.11M138.333 17.934v2.11M149.533 17.934v2.11M160.723 17.934v2.11M183.113 17.934v2.11M194.313 17.934v2.11M205.503 17.934v2.11M227.893 17.934v2.11M239.093 17.934v2.11M250.283 17.934v2.11M272.673 17.934v2.11M283.863 17.934v2.11M295.063 17.934v2.11M310.923 251.16h-2.332M310.923 204.51h-2.332M310.923 157.87h-2.332M310.923 111.22h-2.332M310.923 64.578h-2.332M310.923 17.934h-2.332M310.923 239.5h-2.11M310.923 227.84h-2.11M310.923 216.18h-2.11M310.923 192.85h-2.11M310.923 181.19h-2.11M310.923 169.53h-2.11M310.923 146.21h-2.11M310.923 134.55h-2.11M310.923 122.88h-2.11M310.923 99.56h-2.11M310.923 87.902h-2.11M310.923 76.238h-2.11M310.923 52.918h-2.11M310.923 41.254h-2.11M310.923 29.594h-2.11"/></g><g><use x="189.809" y="285.159" xlink:href="#o"/><use x="192.809" y="287.159" xlink:href="#e"/><use x="48.696" y="141.046" xlink:href="#p"/><use x="50.696" y="134.046" xlink:href="#q"/></g><g><g clip-path="url(#r)"><path d="M435.113 17.934l3.262 1.508 4.402 2.039 4.773 2.21 4.684 2.169 4.371 2.023 4.738 2.195 4.422 2.047 4.793 2.22 4.707 2.179 4.39 2.031 4.759 2.203 4.445 2.059 4.355 2.015 4.727 2.188 4.41 2.043 4.781 2.21 4.692 2.177 4.379 2.023 4.746 2.2 4.43 2.05 4.343 2.012 4.715 2.183 4.399 2.035 4.765 2.207 4.453 2.06 4.364 2.022 4.734 2.192 4.418 2.043 4.79 2.219 4.698 2.175 4.387 2.032 4.754 2.199 4.441 2.055 4.352 2.015 4.719 2.188 4.406 2.039.078.035.074.035.156.07.31.145.612.285 1.23.567.075.035.078.039.153.07.308.14.613.286.157.07.152.07.309.145.074.035.078.035.152.07.078.036.079.039.074.035.078.035" fill="none" stroke="#5d81b4" stroke-linecap="square" stroke-miterlimit="3.25" stroke-width="1.6"/></g><g clip-path="url(#s)"><path d="M379.133 56.805l.066.023.07.024.137.047.274.097.55.188 1.098.383 2.2.761 4.761 1.657 4.45 1.543 4.363 1.515 4.73 1.645 4.414 1.53 4.786 1.661 4.699 1.633 4.383 1.523 4.75 1.649 4.437 1.539 4.348 1.512 4.719 1.636 4.402 1.531 4.773 1.657 4.684 1.625 4.371 1.52 4.738 1.644 4.422 1.535 4.793 1.664 4.707 1.633 4.39 1.527 4.759 1.652 4.445 1.543 4.355 1.512 4.727 1.64 4.41 1.532 4.781 1.66 4.692 1.629 4.379 1.52 4.746 1.648 4.43 1.539 4.343 1.508 4.715 1.636 4.398 1.528 4.766 1.656 4.453 1.543 4.363 1.516 4.735 1.644 4.418 1.535 4.789 1.664 4.7 1.63 4.386 1.523 4.754 1.652 4.441 1.539 4.352 1.512 4.719 1.64 4.406 1.532.078.023.074.027.156.055.309.105.613.215 1.23.426.075.027.078.028.152.05.309.11.613.21.157.056.152.054.308.106.075.027.078.027.152.051.156.055.075.027.078.028" fill="none" stroke="#e09b24" stroke-linecap="square" stroke-miterlimit="3.25" stroke-width="1.6"/></g><g clip-path="url(#t)"><path d="M379.133 95.68l.066.02.07.015.41.117.552.153 1.097.304 2.2.61 4.761 1.324 4.45 1.234 4.363 1.215 4.73 1.313 4.414 1.226 4.786 1.328 4.699 1.305 4.383 1.219 4.75 1.32 4.437 1.23 4.348 1.212 4.719 1.308 4.402 1.223 4.773 1.324 4.684 1.305 4.371 1.21 4.738 1.317 4.422 1.23 4.793 1.333 4.707 1.304 4.39 1.223 4.759 1.32 4.445 1.235 4.355 1.21 4.727 1.313 4.41 1.227 4.781 1.324 4.692 1.305 4.379 1.214 4.746 1.32 4.43 1.231 4.343 1.207 4.715 1.309 4.398 1.222 4.766 1.325 4.453 1.234 4.363 1.215 4.735 1.312 4.418 1.23 4.789 1.329 4.7 1.305 4.386 1.218 4.754 1.32 4.441 1.235 4.352 1.211 4.719 1.309 4.406 1.226.078.02.074.02.156.042.309.086.613.172 1.23.34.075.023.078.02.152.043.309.086.613.172.078.02.079.023.152.043.308.086.075.02.078.019.152.043.078.023.078.02.075.023.078.02" fill="none" stroke="#8eb031" stroke-linecap="square" stroke-miterlimit="3.25" stroke-width="1.6"/></g></g><g><use x="567.032" y="106.675" xlink:href="#u"/><use x="576.032" y="106.675" xlink:href="#f"/><use x="586.032" y="106.675" xlink:href="#j"/><use x="592.706" y="106.675" xlink:href="#k"/><use x="596.04" y="106.675" xlink:href="#m"/><use x="567.032" y="145.546" xlink:href="#u"/><use x="576.032" y="145.546" xlink:href="#f"/><use x="586.032" y="145.546" xlink:href="#j"/><use x="592.706" y="145.546" xlink:href="#k"/><use x="596.04" y="145.546" xlink:href="#n"/><use x="567.032" y="168.868" xlink:href="#u"/><use x="576.032" y="168.868" xlink:href="#f"/><use x="586.032" y="168.868" xlink:href="#i"/><use x="592.706" y="168.868" xlink:href="#k"/><use x="596.04" y="168.868" xlink:href="#j"/></g><g fill="none" stroke="#656565" stroke-miterlimit="3.25" stroke-width=".5"><g stroke-linecap="square"><path d="M607.693 251.16h-233.23M374.473 251.16V17.93M374.473 17.934h233.23M607.693 17.934v233.23"/></g><path d="M379.133 251.16v-3.52"/></g><g><use x="370.635" y="265.159" xlink:href="#j"/><use x="377.309" y="265.159" xlink:href="#k"/><use x="380.643" y="265.159" xlink:href="#j"/></g><g fill="none" stroke="#656565" stroke-miterlimit="3.25" stroke-width=".5"><path d="M390.323 251.16v-2.113M401.523 251.16v-2.113M412.723 251.16v-2.113M423.913 251.16v-3.52"/></g><g><use x="415.414" y="265.159" xlink:href="#j"/><use x="422.088" y="265.159" xlink:href="#k"/><use x="425.422" y="265.159" xlink:href="#g"/></g><g fill="none" stroke="#656565" stroke-miterlimit="3.25" stroke-width=".5"><path d="M435.113 251.16v-2.113M446.303 251.16v-2.113M457.503 251.16v-2.113M468.693 251.16v-3.52"/></g><g><use x="460.194" y="265.159" xlink:href="#j"/><use x="466.868" y="265.159" xlink:href="#k"/><use x="470.202" y="265.159" xlink:href="#l"/></g><g fill="none" stroke="#656565" stroke-miterlimit="3.25" stroke-width=".5"><path d="M479.883 251.16v-2.113M491.083 251.16v-2.113M502.273 251.16v-2.113M513.473 251.16v-3.52"/></g><g><use x="504.973" y="265.159" xlink:href="#j"/><use x="511.647" y="265.159" xlink:href="#k"/><use x="514.981" y="265.159" xlink:href="#m"/></g><g fill="none" stroke="#656565" stroke-miterlimit="3.25" stroke-width=".5"><path d="M524.663 251.16v-2.113M535.863 251.16v-2.113M547.063 251.16v-2.113M558.253 251.16v-3.52"/></g><g><use x="549.753" y="265.159" xlink:href="#j"/><use x="556.426" y="265.159" xlink:href="#k"/><use x="559.76" y="265.159" xlink:href="#n"/></g><g fill="none" stroke="#656565" stroke-miterlimit="3.25" stroke-width=".5"><path d="M569.453 251.16v-2.113M580.643 251.16v-2.113M591.833 251.16v-2.113M603.033 251.16v-3.52"/></g><g><use x="594.532" y="265.159" xlink:href="#i"/><use x="601.206" y="265.159" xlink:href="#k"/><use x="604.54" y="265.159" xlink:href="#j"/></g><path d="M374.473 251.16h3.52" fill="none" stroke="#656565" stroke-miterlimit="3.25" stroke-width=".5"/><g><use x="354.471" y="255.159" xlink:href="#j"/><use x="361.144" y="255.159" xlink:href="#k"/><use x="364.478" y="255.159" xlink:href="#j"/></g><g fill="none" stroke="#656565" stroke-miterlimit="3.25" stroke-width=".5"><path d="M374.473 239.5h2.113M374.473 227.84h2.113M374.473 216.18h2.113M374.473 204.51h3.52"/></g><g><use x="354.471" y="208.513" xlink:href="#j"/><use x="361.144" y="208.513" xlink:href="#k"/><use x="364.478" y="208.513" xlink:href="#g"/></g><g fill="none" stroke="#656565" stroke-miterlimit="3.25" stroke-width=".5"><path d="M374.473 192.85h2.113M374.473 181.19h2.113M374.473 169.53h2.113M374.473 157.87h3.52"/></g><g><use x="354.471" y="161.868" xlink:href="#j"/><use x="361.144" y="161.868" xlink:href="#k"/><use x="364.478" y="161.868" xlink:href="#l"/></g><g fill="none" stroke="#656565" stroke-miterlimit="3.25" stroke-width=".5"><path d="M374.473 146.21h2.113M374.473 134.55h2.113M374.473 122.88h2.113M374.473 111.22h3.52"/></g><g><use x="354.471" y="115.223" xlink:href="#j"/><use x="361.144" y="115.223" xlink:href="#k"/><use x="364.478" y="115.223" xlink:href="#m"/></g><g fill="none" stroke="#656565" stroke-miterlimit="3.25" stroke-width=".5"><path d="M374.473 99.56h2.113M374.473 87.902h2.113M374.473 76.238h2.113M374.473 64.578h3.52"/></g><g><use x="354.471" y="68.578" xlink:href="#j"/><use x="361.144" y="68.578" xlink:href="#k"/><use x="364.478" y="68.578" xlink:href="#n"/></g><g fill="none" stroke="#656565" stroke-miterlimit="3.25" stroke-width=".5"><path d="M374.473 52.918h2.113M374.473 41.254h2.113M374.473 29.594h2.113M374.473 17.934h3.52"/></g><g><use x="354.471" y="21.933" xlink:href="#i"/><use x="361.144" y="21.933" xlink:href="#k"/><use x="364.478" y="21.933" xlink:href="#j"/></g><g fill="none" stroke="#656565" stroke-miterlimit="3.25" stroke-width=".1"><path d="M379.133 17.934v2.332M423.913 17.934v2.332M468.693 17.934v2.332M513.473 17.934v2.332M558.253 17.934v2.332M603.033 17.934v2.332M390.323 17.934v2.11M401.523 17.934v2.11M412.723 17.934v2.11M435.113 17.934v2.11M446.303 17.934v2.11M457.503 17.934v2.11M479.883 17.934v2.11M491.083 17.934v2.11M502.273 17.934v2.11M524.663 17.934v2.11M535.863 17.934v2.11M547.063 17.934v2.11M569.453 17.934v2.11M580.643 17.934v2.11M591.833 17.934v2.11M607.693 251.16h-2.332M607.693 204.51h-2.332M607.693 157.87h-2.332M607.693 111.22h-2.332M607.693 64.578h-2.332M607.693 17.934h-2.332M607.693 239.5h-2.11M607.693 227.84h-2.11M607.693 216.18h-2.11M607.693 192.85h-2.11M607.693 181.19h-2.11M607.693 169.53h-2.11M607.693 146.21h-2.11M607.693 134.55h-2.11M607.693 122.88h-2.11M607.693 99.56h-2.11M607.693 87.902h-2.11M607.693 76.238h-2.11M607.693 52.918h-2.11M607.693 41.254h-2.11M607.693 29.594h-2.11"/></g><g><use x="486.583" y="285.159" xlink:href="#o"/><use x="489.583" y="287.159" xlink:href="#e"/><use x="345.471" y="141.046" xlink:href="#p"/><use x="347.471" y="134.046" xlink:href="#q"/></g></svg>