<svg width="614pt" height="196pt" viewBox="0 0 614 196" xmlns="http://www.w3.org/2000/svg" xmlns:xlink="http://www.w3.org/1999/xlink"><defs><symbol id="c" overflow="visible"><path d="M2.027 0L1.5-8.59h1.164l.203 4.246c.012.203.031.758.055 1.657.008.25.016.421.016.523l-.008.582a81.08 81.08 0 0 1 1.03-2.063L6.575-8.59h1.184l.289 5.02a53.6 53.6 0 0 1 .062 2.078c.07-.2.196-.5.375-.89.286-.638.496-1.095.633-1.368l2.45-4.84h1.171L8.368 0H7.136L6.85-5.203c-.027-.445-.05-.992-.066-1.64-.238.542-.437.964-.598 1.265L3.211 0z"/></symbol><symbol id="n" overflow="visible"><path d="M2.875-.86l-.172.868c-.254.066-.5.097-.742.097-.422 0-.758-.105-1.008-.308C.766-.36.672-.574.672-.843c0-.137.055-.454.156-.946l.754-3.613h-.84l.172-.82h.836l.324-1.528 1.215-.734-.477 2.261h1.043l-.175.82H2.64L1.923-1.96c-.09.438-.133.695-.133.781 0 .125.035.223.106.29.074.066.19.1.355.1.234 0 .445-.023.625-.07z"/></symbol><symbol id="d" overflow="visible"><path d="M3.352 0h-.79v-5.04c-.19.18-.44.364-.75.544a5.395 5.395 0 0 1-.831.41v-.766c.44-.207.828-.46 1.16-.757.332-.293.566-.582.703-.86h.508z"/></symbol><symbol id="e" overflow="visible"><path d="M4.531-.762V0H.273a1.384 1.384 0 0 1 .09-.55c.11-.29.285-.575.524-.856s.582-.606 1.035-.977c.7-.574 1.172-1.027 1.418-1.363.246-.336.371-.652.371-.953 0-.313-.113-.578-.34-.793-.223-.215-.515-.32-.875-.32-.379 0-.683.113-.914.34-.23.23-.344.546-.348.949l-.812-.082c.055-.606.266-1.07.629-1.387.363-.317.851-.477 1.465-.477.617 0 1.105.172 1.464.516s.543.765.543 1.273c0 .258-.054.512-.16.758-.105.25-.281.512-.523.79-.246.273-.653.651-1.223 1.132-.473.398-.777.668-.914.812a2.87 2.87 0 0 0-.332.426z"/></symbol><symbol id="f" overflow="visible"><path d="M.5-4.234C.5-5.25.602-6.07.813-6.688c.207-.62.519-1.097.93-1.433.413-.336.929-.504 1.554-.504.46 0 .867.094 1.215.277.347.188.636.453.863.805.227.348.402.773.531 1.277.13.5.196 1.18.196 2.032 0 1.007-.106 1.82-.313 2.437-.207.621-.516 1.098-.93 1.438-.41.335-.93.507-1.562.507-.828 0-1.477-.297-1.95-.89C.782-1.457.5-2.625.5-4.234zm1.082 0c0 1.41.164 2.347.496 2.812.328.469.734.703 1.219.703s.894-.234 1.223-.703c.332-.469.496-1.406.496-2.812 0-1.414-.164-2.356-.496-2.82-.329-.466-.739-.696-1.23-.696-.485 0-.876.203-1.165.613-.363.524-.543 1.489-.543 2.903z"/></symbol><symbol id="g" overflow="visible"><path d="M1.09 0v-1.203h1.199V0z"/></symbol><symbol id="h" overflow="visible"><path d="M6.04-1.016V0H.362C.355-.254.398-.5.484-.734c.145-.387.38-.766.696-1.141.32-.375.781-.809 1.383-1.3.933-.766 1.562-1.372 1.89-1.821.328-.445.492-.871.492-1.27 0-.418-.148-.77-.449-1.054-.297-.29-.687-.43-1.168-.43-.508 0-.914.148-1.219.453s-.46.727-.46 1.266l-1.087-.11c.075-.808.352-1.425.836-1.847.485-.426 1.137-.637 1.953-.637.825 0 1.477.227 1.957.687a2.25 2.25 0 0 1 .723 1.696c0 .343-.07.683-.21 1.015-.141.332-.376.68-.704 1.047-.324.367-.867.875-1.625 1.516-.633.531-1.039.89-1.219 1.078-.18.191-.328.383-.445.57z"/></symbol><symbol id="i" overflow="visible"><path d="M3.879 0v-2.055H.152v-.968L4.07-8.59h.864v5.567h1.16v.968h-1.16V0zm0-3.023v-3.875L1.187-3.023z"/></symbol><symbol id="j" overflow="visible"><path d="M5.969-6.484l-1.047.078c-.094-.414-.227-.711-.399-.899a1.398 1.398 0 0 0-1.054-.453c-.336 0-.633.094-.883.281-.332.243-.594.594-.79 1.063-.19.465-.288 1.125-.296 1.984.254-.386.563-.672.93-.86a2.513 2.513 0 0 1 1.156-.28c.703 0 1.3.258 1.797.773.492.52.742 1.188.742 2.008 0 .539-.117 1.039-.352 1.504-.23.46-.55.816-.957 1.062a2.617 2.617 0 0 1-1.382.371c-.88 0-1.598-.324-2.153-.972C.727-1.47.453-2.535.453-4.02c0-1.66.305-2.867.918-3.62.535-.657 1.254-.985 2.16-.985.676 0 1.23.187 1.664.57.43.38.688.899.774 1.57zM1.664-2.781c0 .363.078.71.23 1.039.157.332.372.586.649.762.277.171.566.261.871.261.445 0 .828-.18 1.148-.539.32-.36.485-.851.485-1.469 0-.593-.16-1.058-.477-1.402a1.565 1.565 0 0 0-1.195-.512c-.477 0-.883.172-1.21.512-.333.344-.5.793-.5 1.348z"/></symbol><symbol id="k" overflow="visible"><path d="M2.121-4.656c-.437-.16-.762-.39-.973-.688C.938-5.64.832-5.996.832-6.41c0-.625.223-1.152.676-1.574.449-.426 1.047-.64 1.789-.64.75 0 1.355.218 1.812.651.457.438.688.965.688 1.59 0 .399-.106.746-.316 1.043-.208.293-.528.52-.95.684.528.172.926.445 1.203.828.274.383.414.844.414 1.375a2.47 2.47 0 0 1-.78 1.852c-.52.5-1.204.75-2.052.75s-1.53-.254-2.05-.754c-.52-.504-.782-1.13-.782-1.88 0-.558.145-1.027.426-1.402.285-.378.688-.636 1.211-.77zm-.21-1.79c0 .407.128.739.394.997.261.258.601.387 1.015.387.407 0 .742-.13 1-.383.262-.258.39-.57.39-.942 0-.386-.132-.71-.401-.976a1.364 1.364 0 0 0-.997-.395c-.402 0-.738.13-1.003.387a1.245 1.245 0 0 0-.399.926zm-.34 3.97c0 .3.07.59.214.87.14.282.356.5.637.653.281.156.582.234.906.234.504 0 .922-.164 1.25-.488s.492-.738.492-1.238c0-.508-.172-.926-.507-1.258-.34-.332-.762-.5-1.27-.5-.496 0-.906.164-1.234.492-.325.328-.489.742-.489 1.235z"/></symbol><symbol id="l" overflow="visible"><path d="M4.469 0H3.414v-6.719a5.488 5.488 0 0 1-.996.727 7.154 7.154 0 0 1-1.113.543v-1.02a6.295 6.295 0 0 0 1.547-1.008c.441-.394.757-.777.937-1.148h.68z"/></symbol><symbol id="m" overflow="visible"><path d="M.656-1.984l1.016-.094c.086.476.25.82.492 1.035.242.215.55.324.93.324.324 0 .61-.078.851-.226.246-.149.446-.344.602-.594.156-.246.289-.582.39-1.004.106-.422.16-.851.16-1.289 0-.047-.003-.117-.003-.211-.211.336-.5.61-.867.816-.364.211-.758.313-1.188.313-.71 0-1.312-.258-1.805-.774S.5-4.883.5-5.727c0-.87.254-1.57.77-2.101.511-.531 1.156-.797 1.93-.797.558 0 1.07.148 1.53.453.465.3.817.727 1.055 1.285.242.555.363 1.364.363 2.418 0 1.098-.12 1.969-.359 2.621-.238.649-.594 1.145-1.063 1.485-.472.34-1.023.511-1.656.511-.672 0-1.219-.187-1.648-.562-.426-.371-.68-.898-.766-1.57zm4.32-3.793c0-.606-.164-1.086-.484-1.442-.324-.355-.71-.531-1.164-.531-.469 0-.875.187-1.227.57-.347.383-.52.883-.52 1.492 0 .547.165.989.497 1.332.328.34.734.512 1.219.512.488 0 .89-.172 1.207-.512.312-.343.472-.816.472-1.421z"/></symbol><clipPath id="a"><path d="M84 59h222v90H84z"/></clipPath><clipPath id="b"><path d="M84 12h222v127H84z"/></clipPath><clipPath id="o"><path d="M372 11h222v138H372z"/></clipPath><clipPath id="p"><path d="M372 17h222v89H372z"/></clipPath></defs><g clip-path="url(#a)"><path d="M89.893 126.06l.066.035.063.031.129.067.258.129.52.258 1.034.511 2.067.985 4.484 2.007 4.188 1.707 4.105 1.528 4.453 1.492 4.156 1.246 4.508 1.191 4.422 1.016.063.016.066.011.387.082.515.106 1.032.207 2.062.39.067.012.07.016.14.023.282.051.558.098 1.117.187 2.239.352.062.008.067.011.129.016.261.039.524.074 1.043.145.133.015.128.016.262.035.52.067 1.047.125.125.015.386.047 1.536.164.062.008.063.004.128.015.258.024.512.05 1.023.094.067.004.07.008.14.012.833.07 1.11.082.07.008.07.004.137.012.277.015.555.04 1.113.066.062.004.067.004.129.007.257.012.52.027.062.004.067.004.129.004.262.012.515.023.067.004.062.004.129.004.262.012.515.015.133.008.387.012.52.016h.07l.07.003.137.004.281.004.07.004h.07l.422.012h.141l.14.004h.071l.07.004h.211l.07.004h.141l.281.004h.07l.071.003h.277l.141.004h.492l.07.004h1.333l.066-.004h.414l.137-.004h.347l.067-.003h.207l.07-.004h.207l.067-.004h.14l.274-.004.07-.004h.066l.141-.004.273-.004.07-.004h.071l.41-.012h.14l.138-.003.277-.008.55-.02h.063l.067-.004.125-.004.257-.007.516-.024h.062l.067-.004.129-.004.258-.011.511-.024.067-.004.062-.004.13-.004.257-.011.512-.028 1.03-.058.067-.008.211-.012.278-.015.558-.04 1.117-.081.067-.004.07-.004.14-.012.278-.023.559-.043 1.117-.098.062-.008.067-.004.129-.011.261-.024.52-.05 1.043-.106.062-.008.067-.008.129-.012.261-.027.52-.058 1.043-.122.281-.03.844-.106 1.129-.145 2.258-.316.066-.012.07-.012.137-.02.277-.042.555-.082 1.106-.18 2.214-.375 4.133-.789 4.48-.98 4.184-1.036 4.102-1.125 4.45-1.343 4.151-1.375 4.5-1.621 4.418-1.72 4.122-1.722 4.464-2 4.172-1.988 4.09-2.07 4.438-2.376 4.14-2.347 4.488-2.684 4.188-2.637 4.11-2.718 4.456-3.09 4.16-3.027 4.504-3.434 4.426-3.535 4.13-3.446 4.476-3.902 4.18-3.8 4.093-3.883 4.446-4.387 4.148-4.262.07-.078.074-.074.434-.457.578-.614 1.156-1.234.075-.078.07-.074.433-.469.583-.625.07-.078.074-.078.145-.157.289-.316.07-.078.074-.078.145-.16.07-.078.074-.079.07-.078.075-.082" fill="none" stroke="#5d81b4" stroke-linecap="square" stroke-miterlimit="3.25" stroke-width="1.6"/></g><g clip-path="url(#b)"><path d="M89.893 19.219l.066.098.063.097.129.2.258.39.52.781 1.034 1.547 2.067 3.051 4.484 6.406 4.188 5.73 4.105 5.391 4.453 5.606 4.156 5.012 4.508 5.199 4.422 4.883 4.125 4.359 4.473 4.52 4.176 4.035 4.093 3.789 4.442 3.922 4.144 3.496 4.493 3.613 4.41 3.367 4.113 2.993 4.461 3.082 4.164 2.73 4.512 2.8 4.426 2.59 4.132 2.282 4.48 2.324 4.184 2.035 4.102 1.871 4.45 1.895 4.152 1.637 4.5 1.636 4.418 1.469 4.12 1.25 4.465 1.223 4.172 1.015 4.09.887 4.438.828.062.012.067.012.128.023.258.043.52.086 1.035.168 2.07.312.07.012.07.008.138.02.843.117 1.122.152.14.016.14.02.282.034.559.07 1.125.13.062.007.2.024.261.027.523.059 1.047.11.067.007.062.004.133.012.262.027.523.05 1.047.094.067.004.062.004.387.035.511.04 1.028.078.066.003.063.008.386.024.512.035 1.027.062.141.008.137.008.281.016.555.03.14.009.141.004.277.015.555.024.14.007.141.004.278.012.558.02.07.004.067.003.14.004.278.008.558.016.067.004h.062l.13.004.261.007h.066l.063.004h.133l.257.008h.13l.132.004.258.004.066.004h.196l.258.004.066.004h.258l.066.004h.262l.129.003h.52l.066.004h1.207l.07-.004h.563l.07-.003h.351l.141-.004h.14l.141-.004.285-.004h.07l.071-.004h.14l.282-.008h.14l.422-.012h.07l.071-.004h.14l.282-.007.562-.02h.07l.071-.004.137-.004.277-.007.555-.024h.066l.07-.004.137-.004.278-.011.554-.028.07-.004h.067l.14-.008.274-.015.555-.027 1.105-.067.067-.004.062-.004.387-.023.515-.035 1.036-.075.062-.007.067-.004.129-.008.257-.023.516-.043 1.031-.09.07-.004.07-.008.141-.012.278-.027.558-.055 1.121-.113.282-.031.277-.032.559-.062 1.12-.133.067-.008.063-.007.132-.016.262-.035.52-.067 1.047-.14 2.09-.301.062-.012.062-.008.13-.02.257-.042.512-.078 1.023-.168 2.047-.36 4.445-.882 4.149-.957.07-.016.074-.02.145-.035.289-.074.578-.144 1.156-.301.074-.02.07-.02.145-.038.29-.075.581-.16.07-.02.075-.019.434-.117.07-.02.074-.023.145-.039.07-.02.074-.02.07-.019.075-.023" fill="none" stroke="#e09b24" stroke-linecap="square" stroke-miterlimit="3.25" stroke-width="1.6"/></g><use x="283.659" y="63.704" xlink:href="#c"/><use x="294.986" y="65.704" xlink:href="#d"/><use x="283.659" y="123.06" xlink:href="#c"/><use x="294.986" y="125.06" xlink:href="#e"/><g fill="none" stroke="#656565" stroke-miterlimit="3.25" stroke-width=".5"><g stroke-linecap="square"><path d="M305.053 148.12H85.513M85.503 148.12V12.43M85.503 12.434h219.54M305.053 12.434v135.69"/></g><path d="M89.893 148.12v-2.602"/></g><use x="81.398" y="162.12" xlink:href="#f"/><use x="88.072" y="162.12" xlink:href="#g"/><use x="91.406" y="162.12" xlink:href="#f"/><g fill="none" stroke="#656565" stroke-miterlimit="3.25" stroke-width=".5"><path d="M100.433 148.12v-1.563M110.973 148.12v-1.563M121.513 148.12v-1.563M132.053 148.12v-2.602"/></g><use x="123.551" y="162.12" xlink:href="#f"/><use x="130.224" y="162.12" xlink:href="#g"/><use x="133.558" y="162.12" xlink:href="#h"/><g fill="none" stroke="#656565" stroke-miterlimit="3.25" stroke-width=".5"><path d="M142.593 148.12v-1.563M153.123 148.12v-1.563M163.663 148.12v-1.563M174.203 148.12v-2.602"/></g><use x="165.703" y="162.12" xlink:href="#f"/><use x="172.377" y="162.12" xlink:href="#g"/><use x="175.711" y="162.12" xlink:href="#i"/><g fill="none" stroke="#656565" stroke-miterlimit="3.25" stroke-width=".5"><path d="M184.743 148.12v-1.563M195.273 148.12v-1.563M205.813 148.12v-1.563M216.353 148.12v-2.602"/></g><use x="207.855" y="162.12" xlink:href="#f"/><use x="214.529" y="162.12" xlink:href="#g"/><use x="217.863" y="162.12" xlink:href="#j"/><g fill="none" stroke="#656565" stroke-miterlimit="3.25" stroke-width=".5"><path d="M226.893 148.12v-1.563M237.433 148.12v-1.563M247.973 148.12v-1.563M258.503 148.12v-2.602"/></g><use x="250.007" y="162.12" xlink:href="#f"/><use x="256.681" y="162.12" xlink:href="#g"/><use x="260.015" y="162.12" xlink:href="#k"/><g fill="none" stroke="#656565" stroke-miterlimit="3.25" stroke-width=".5"><path d="M269.043 148.12v-1.563M279.583 148.12v-1.563M290.123 148.12v-1.563M300.663 148.12v-2.602"/></g><use x="292.159" y="162.12" xlink:href="#l"/><use x="298.833" y="162.12" xlink:href="#g"/><use x="302.167" y="162.12" xlink:href="#f"/><path d="M85.503 147.43h2.602" fill="none" stroke="#656565" stroke-miterlimit="3.25" stroke-width=".5"/><use x="59.508" y="151.428" xlink:href="#f"/><use x="66.181" y="151.428" xlink:href="#g"/><use x="69.515" y="151.428" xlink:href="#m"/><use x="76.189" y="151.428" xlink:href="#k"/><g fill="none" stroke="#656565" stroke-miterlimit="3.25" stroke-width=".5"><path d="M85.503 142.09h1.559M85.503 136.74h1.559M85.503 131.4h1.559M85.503 126.06h2.602"/></g><use x="59.508" y="130.06" xlink:href="#l"/><use x="66.181" y="130.06" xlink:href="#g"/><use x="69.515" y="130.06" xlink:href="#f"/><use x="76.189" y="130.06" xlink:href="#f"/><g fill="none" stroke="#656565" stroke-miterlimit="3.25" stroke-width=".5"><path d="M85.503 120.72h1.559M85.503 115.38h1.559M85.503 110.04h1.559M85.503 104.69h2.602"/></g><use x="59.508" y="108.692" xlink:href="#l"/><use x="66.181" y="108.692" xlink:href="#g"/><use x="69.515" y="108.692" xlink:href="#f"/><use x="76.189" y="108.692" xlink:href="#h"/><g fill="none" stroke="#656565" stroke-miterlimit="3.25" stroke-width=".5"><path d="M85.503 99.35h1.559M85.503 94.008h1.559M85.503 88.664h1.559M85.503 83.324h2.602"/></g><use x="59.508" y="87.324" xlink:href="#l"/><use x="66.181" y="87.324" xlink:href="#g"/><use x="69.515" y="87.324" xlink:href="#f"/><use x="76.189" y="87.324" xlink:href="#i"/><g fill="none" stroke="#656565" stroke-miterlimit="3.25" stroke-width=".5"><path d="M85.503 77.98h1.559M85.503 72.641h1.559M85.503 67.297h1.559M85.503 61.957h2.602"/></g><use x="59.508" y="65.956" xlink:href="#l"/><use x="66.181" y="65.956" xlink:href="#g"/><use x="69.515" y="65.956" xlink:href="#f"/><use x="76.189" y="65.956" xlink:href="#j"/><g fill="none" stroke="#656565" stroke-miterlimit="3.25" stroke-width=".5"><path d="M85.503 56.613h1.559M85.503 51.273h1.559M85.503 45.93h1.559M85.503 40.586h2.602"/></g><use x="59.508" y="44.588" xlink:href="#l"/><use x="66.181" y="44.588" xlink:href="#g"/><use x="69.515" y="44.588" xlink:href="#f"/><use x="76.189" y="44.588" xlink:href="#k"/><g fill="none" stroke="#656565" stroke-miterlimit="3.25" stroke-width=".5"><path d="M85.503 35.246h1.559M85.503 29.902h1.559M85.503 24.562h1.559M85.503 19.219h2.602"/></g><g><use x="59.508" y="23.219" xlink:href="#l"/><use x="66.181" y="23.219" xlink:href="#g"/><use x="69.515" y="23.219" xlink:href="#l"/><use x="76.189" y="23.219" xlink:href="#f"/></g><g fill="none" stroke="#656565" stroke-miterlimit="3.25"><path d="M85.503 13.879h1.559" stroke-width=".5"/><g stroke-width=".1"><path d="M89.893 12.434v2.195M132.053 12.434v2.195M174.203 12.434v2.195M216.353 12.434v2.195M258.503 12.434v2.195M300.663 12.434v2.195M100.433 12.434v1.563M110.973 12.434v1.563M121.513 12.434v1.563M142.593 12.434v1.563M153.123 12.434v1.563M163.663 12.434v1.563M184.743 12.434v1.563M195.273 12.434v1.563M205.813 12.434v1.563M226.893 12.434v1.563M237.433 12.434v1.563M247.973 12.434v1.563M269.043 12.434v1.563M279.583 12.434v1.563M290.123 12.434v1.563M305.053 126.06h-2.195M305.053 99.35h-2.195M305.053 72.641h-2.195M305.053 45.93h-2.195M305.053 19.219h-2.195M305.053 147.43h-1.563M305.053 142.09h-1.563M305.053 136.74h-1.563M305.053 131.4h-1.563M305.053 120.72h-1.563M305.053 115.38h-1.563M305.053 110.04h-1.563M305.053 104.69h-1.563M305.053 94.008h-1.563M305.053 88.664h-1.563M305.053 83.324h-1.563M305.053 77.98h-1.563M305.053 67.297h-1.563M305.053 61.957h-1.563M305.053 56.613h-1.563M305.053 51.273h-1.563M305.053 40.586h-1.563M305.053 35.246h-1.563M305.053 29.902h-1.563M305.053 24.562h-1.563M305.053 13.879h-1.563"/></g></g><g><use x="190.779" y="182.12" xlink:href="#n"/></g><g><use x="193.779" y="184.12" xlink:href="#e"/></g><g clip-path="url(#o)"><path d="M377.393 32.789l.066-.02.063-.023.387-.117.52-.16 1.034-.317 2.067-.62 4.484-1.317 4.188-1.18 4.105-1.11 4.453-1.148 4.156-1.011 4.508-1.036 4.422-.941 4.125-.816 4.473-.805 4.176-.676 4.093-.586.067-.008.07-.011.14-.02 1.942-.246 2.223-.262.062-.008.067-.007.129-.012.258-.031.52-.055 1.034-.11.067-.003.062-.008.13-.012.26-.027.516-.05 1.04-.099.07-.004.07-.007.137-.012.281-.023.563-.051 1.125-.09.07-.008.07-.004.14-.012.278-.02.563-.042 1.125-.078.066-.004.07-.004.137-.008.277-.02.551-.03.07-.008.067-.004.137-.008.277-.016.55-.027.071-.004.067-.004.14-.008.274-.015.55-.028 1.106-.047.062-.003h.067l.125-.008.258-.008.515-.02h.063l.066-.004.387-.011.512-.016h.066l.062-.004.13-.004.257-.004.063-.003h.066l.129-.004.254-.004.066-.004h.063l.129-.004.258-.004h.062l.066-.004h.13l.257-.004.067-.004h.21l.07-.004h.278l.07-.004h.278l.14-.003h.559l.07-.004h1.184l.07.004h.489l.136.003h.352l.07.004h.137l.281.004h.129l.129.004.262.004h.062l.067.004h.128l.262.008h.13l.132.004.258.008.523.011.063.004h.066l.129.004.262.008.52.02h.066l.062.003.133.004.258.012.523.02.07.003h.07l.141.008.282.012.562.027.281.016.286.015.703.04.14.011.282.016.566.035 1.129.082.066.004.07.008.137.008.832.07 1.106.098.07.003.07.008.137.012.832.082 1.106.117.133.016.128.012.258.03.516.06 1.031.128.066.008.063.008.133.016.258.035.515.066 1.031.145.07.011.071.008.14.02.282.043.558.086 1.122.175 2.238.387.133.024.129.023.261.05.524.098 1.047.207 2.09.442.066.016.062.015.13.027.253.06.516.116 1.023.242 2.051.512 4.45 1.266 4.152 1.367 4.5 1.7 4.418 1.905 4.12 2 4.465 2.426 4.172 2.524 4.09 2.726 4.438 3.262 4.14 3.34 4.489 3.972 4.187 4.059 4.11 4.324 4.456 5.102 4.16 5.168 4.505 6.082 4.425 6.48 4.13 6.535 4.476 7.653 4.18 7.71 4.093 8.13 4.446 9.492 4.148 9.531.07.176.075.172.144.343.29.696.577 1.398 1.156 2.836.075.18.07.18.145.359.289.722.582 1.454.07.183.074.184.434 1.101.07.188.074.183.145.371.07.184.074.188.07.183.075.188" fill="none" stroke="#5d81b4" stroke-linecap="square" stroke-miterlimit="3.25" stroke-width="1.6"/></g><g clip-path="url(#p)"><path d="M377.393 97.92l.066-.04.063-.034.129-.07.258-.145.52-.29 1.034-.573 2.067-1.149 4.484-2.496 4.188-2.324 4.105-2.277 4.453-2.47 4.156-2.296 4.508-2.48 4.422-2.426 4.125-2.254 4.473-2.434 4.176-2.258 4.093-2.199 4.442-2.367 4.144-2.191 4.493-2.352 4.41-2.285 4.113-2.106 4.461-2.254 4.164-2.07 4.512-2.203 4.426-2.125 4.132-1.941 4.48-2.055 4.184-1.871 4.102-1.781 4.45-1.875 4.152-1.684 4.5-1.754 4.418-1.64 4.12-1.454 4.465-1.48 4.172-1.293 4.09-1.172 4.438-1.156 4.14-.969 4.489-.914.062-.012.2-.035.261-.05.523-.094 1.047-.184 2.094-.344.067-.008.062-.011.387-.059.511-.074 1.028-.145.066-.011.063-.008.129-.016.257-.035.512-.07 1.027-.125.07-.012.071-.008.137-.015.281-.032.555-.062 1.113-.121.07-.004.211-.024.278-.027.558-.05 1.113-.095.067-.007.062-.004.13-.012.261-.02.52-.039.066-.003.062-.004.133-.008.258-.02.52-.03.132-.009.387-.023.52-.028.132-.007.13-.004.261-.012.52-.023.07-.004h.07l.14-.008.282-.008.14-.008.423-.011.07-.004h.07l.14-.004h.071l.07-.004.141-.004h.07l.07-.004h.141l.286-.008h.14l.14-.004h.141l.141-.004h.211l.07-.004h1.617l.067.004h.277l.07.004h.208l.07.004h.066l.14.004h.138l.136.004h.07l.071.004.137.004h.07l.07.004.137.004.277.007h.07l.067.004.14.004.274.008.14.008.137.004.278.011.07.004.067.004.14.004.278.016.55.027.067.004.062.004.387.023.516.036.066.003.062.004.133.008.774.059.062.008.067.004.129.011.257.02.516.047 1.031.101.281.031.278.032.558.066 1.121.14.07.012.071.008.14.02.278.039.559.082 1.12.176.067.007.063.012.132.024.262.043.52.09 1.047.195.062.011.066.016.133.024.258.05.524.11 1.046.222.063.016.062.012.13.031.257.059.512.117 1.023.254 2.047.547.14.039.138.043.277.078.558.168 1.11.343 2.223.75.066.024.062.023.13.047.261.094.516.191 1.039.395 2.074.851.07.028.075.031.144.062.29.13.577.253 1.156.535.075.032.07.035.144.07.29.137.582.281.07.04.074.034.145.07.289.145.07.04.074.034.145.075.07.035.074.039.07.035.075.04" fill="none" stroke="#e09b24" stroke-linecap="square" stroke-miterlimit="3.25" stroke-width="1.6"/></g><g><use x="571.159" y="126.136" xlink:href="#c"/><use x="582.486" y="128.136" xlink:href="#d"/><use x="571.159" y="43.788" xlink:href="#c"/><use x="582.486" y="45.788" xlink:href="#e"/></g><g fill="none" stroke="#656565" stroke-miterlimit="3.25" stroke-width=".5"><g stroke-linecap="square"><path d="M592.553 148.12h-219.54M373.003 148.12V12.43M373.003 12.434h219.54M592.553 12.434v135.69"/></g><path d="M377.393 148.12v-2.61"/></g><g><use x="368.898" y="162.12" xlink:href="#f"/><use x="375.572" y="162.12" xlink:href="#g"/><use x="378.906" y="162.12" xlink:href="#f"/></g><g fill="none" stroke="#656565" stroke-miterlimit="3.25" stroke-width=".5"><path d="M387.933 148.12v-1.566M398.473 148.12v-1.566M409.013 148.12v-1.566M419.553 148.12v-2.61"/></g><g><use x="411.051" y="162.12" xlink:href="#f"/><use x="417.724" y="162.12" xlink:href="#g"/><use x="421.058" y="162.12" xlink:href="#h"/></g><g fill="none" stroke="#656565" stroke-miterlimit="3.25" stroke-width=".5"><path d="M430.093 148.12v-1.566M440.623 148.12v-1.566M451.163 148.12v-1.566M461.703 148.12v-2.61"/></g><g><use x="453.203" y="162.12" xlink:href="#f"/><use x="459.877" y="162.12" xlink:href="#g"/><use x="463.211" y="162.12" xlink:href="#i"/></g><g fill="none" stroke="#656565" stroke-miterlimit="3.25" stroke-width=".5"><path d="M472.243 148.12v-1.566M482.773 148.12v-1.566M493.313 148.12v-1.566M503.853 148.12v-2.61"/></g><g><use x="495.355" y="162.12" xlink:href="#f"/><use x="502.029" y="162.12" xlink:href="#g"/><use x="505.363" y="162.12" xlink:href="#j"/></g><g fill="none" stroke="#656565" stroke-miterlimit="3.25" stroke-width=".5"><path d="M514.393 148.12v-1.566M524.933 148.12v-1.566M535.473 148.12v-1.566M546.003 148.12v-2.61"/></g><g><use x="537.507" y="162.12" xlink:href="#f"/><use x="544.181" y="162.12" xlink:href="#g"/><use x="547.515" y="162.12" xlink:href="#k"/></g><g fill="none" stroke="#656565" stroke-miterlimit="3.25" stroke-width=".5"><path d="M556.543 148.12v-1.566M567.083 148.12v-1.566M577.623 148.12v-1.566M588.163 148.12v-2.61"/></g><g><use x="579.659" y="162.12" xlink:href="#l"/><use x="586.333" y="162.12" xlink:href="#g"/><use x="589.667" y="162.12" xlink:href="#f"/></g><path d="M373.003 143.51h1.566M373.003 136.99h2.61" fill="none" stroke="#656565" stroke-miterlimit="3.25" stroke-width=".5"/><g><use x="347.008" y="140.994" xlink:href="#f"/><use x="353.681" y="140.994" xlink:href="#g"/><use x="357.015" y="140.994" xlink:href="#m"/><use x="363.689" y="140.994" xlink:href="#h"/></g><g fill="none" stroke="#656565" stroke-miterlimit="3.25" stroke-width=".5"><path d="M373.003 130.48h1.566M373.003 123.97h1.566M373.003 117.46h1.566M373.003 110.94h2.61"/></g><g><use x="347.008" y="114.942" xlink:href="#f"/><use x="353.681" y="114.942" xlink:href="#g"/><use x="357.015" y="114.942" xlink:href="#m"/><use x="363.689" y="114.942" xlink:href="#i"/></g><g fill="none" stroke="#656565" stroke-miterlimit="3.25" stroke-width=".5"><path d="M373.003 104.43h1.566M373.003 97.92h1.566M373.003 91.402h1.566M373.003 84.891h2.61"/></g><g><use x="347.008" y="88.891" xlink:href="#f"/><use x="353.681" y="88.891" xlink:href="#g"/><use x="357.015" y="88.891" xlink:href="#m"/><use x="363.689" y="88.891" xlink:href="#j"/></g><g fill="none" stroke="#656565" stroke-miterlimit="3.25" stroke-width=".5"><path d="M373.003 78.379h1.566M373.003 71.863h1.566M373.003 65.352h1.566M373.003 58.84h2.61"/></g><g><use x="347.008" y="62.839" xlink:href="#f"/><use x="353.681" y="62.839" xlink:href="#g"/><use x="357.015" y="62.839" xlink:href="#m"/><use x="363.689" y="62.839" xlink:href="#k"/></g><g fill="none" stroke="#656565" stroke-miterlimit="3.25" stroke-width=".5"><path d="M373.003 52.328h1.566M373.003 45.812h1.566M373.003 39.301h1.566M373.003 32.789h2.61"/></g><g><use x="347.008" y="36.788" xlink:href="#l"/><use x="353.681" y="36.788" xlink:href="#g"/><use x="357.015" y="36.788" xlink:href="#f"/><use x="363.689" y="36.788" xlink:href="#f"/></g><g fill="none" stroke="#656565" stroke-miterlimit="3.25"><g stroke-width=".5"><path d="M373.003 26.273h1.566M373.003 19.762h1.566M373.003 13.25h1.566"/></g><g stroke-width=".1"><path d="M377.393 12.434v2.195M419.553 12.434v2.195M461.703 12.434v2.195M503.853 12.434v2.195M546.003 12.434v2.195M588.163 12.434v2.195M387.933 12.434V14M398.473 12.434V14M409.013 12.434V14M430.093 12.434V14M440.623 12.434V14M451.163 12.434V14M472.243 12.434V14M482.773 12.434V14M493.313 12.434V14M514.393 12.434V14M524.933 12.434V14M535.473 12.434V14M556.543 12.434V14M567.083 12.434V14M577.623 12.434V14M592.553 136.99h-2.195M592.553 110.94h-2.195M592.553 84.891h-2.195M592.553 58.84h-2.195M592.553 32.789h-2.195M592.553 143.51h-1.566M592.553 130.48h-1.566M592.553 123.97h-1.566M592.553 117.46h-1.566M592.553 104.43h-1.566M592.553 97.92h-1.566M592.553 91.402h-1.566M592.553 78.379h-1.566M592.553 71.863h-1.566M592.553 65.352h-1.566M592.553 52.328h-1.566M592.553 45.812h-1.566M592.553 39.301h-1.566M592.553 26.273h-1.566M592.553 19.762h-1.566M592.553 13.25h-1.566"/></g></g><g><use x="478.279" y="182.12" xlink:href="#n"/></g><g><use x="481.279" y="184.12" xlink:href="#e"/></g></svg>