<svg width="724.12" height="228.6" viewBox="0 0 543.094 171.45" xmlns="http://www.w3.org/2000/svg" xmlns:xlink="http://www.w3.org/1999/xlink"><defs><symbol id="c" overflow="visible"><path d="M4.469 0H3.414v-6.719a5.488 5.488 0 0 1-.996.727 7.154 7.154 0 0 1-1.113.543v-1.02a6.295 6.295 0 0 0 1.547-1.008c.441-.394.757-.777.937-1.148h.68z"/></symbol><symbol id="d" overflow="visible"><path d="M1.09 0v-1.203h1.199V0z"/></symbol><symbol id="e" overflow="visible"><path d="M.5-4.234C.5-5.25.602-6.07.813-6.688c.207-.62.519-1.097.93-1.433.413-.336.929-.504 1.554-.504.46 0 .867.094 1.215.277.347.188.636.453.863.805.227.348.402.773.531 1.277.13.5.196 1.18.196 2.032 0 1.007-.106 1.82-.313 2.437-.207.621-.516 1.098-.93 1.438-.41.335-.93.507-1.562.507-.828 0-1.477-.297-1.95-.89C.782-1.457.5-2.625.5-4.234zm1.082 0c0 1.41.164 2.347.496 2.812.328.469.734.703 1.219.703s.894-.234 1.223-.703c.332-.469.496-1.406.496-2.812 0-1.414-.164-2.356-.496-2.82-.329-.466-.739-.696-1.23-.696-.485 0-.876.203-1.165.613-.363.524-.543 1.489-.543 2.903z"/></symbol><symbol id="f" overflow="visible"><path d="M.5-2.25l1.105-.094c.083.54.274.946.57 1.215.302.273.661.41 1.083.41.508 0 .937-.195 1.289-.578s.527-.89.527-1.523c0-.602-.168-1.075-.508-1.422-.335-.348-.777-.524-1.324-.524-.34 0-.648.078-.922.235a1.74 1.74 0 0 0-.644.601l-.988-.133.828-4.41h4.273v1.008H2.36L1.9-5.156c.515-.36 1.054-.54 1.624-.54.75 0 1.383.258 1.899.782.515.52.773 1.187.773 2 0 .777-.226 1.453-.68 2.015C4.966-.203 4.212.148 3.259.148c-.781 0-1.418-.218-1.914-.656C.85-.945.57-1.528.5-2.25z"/></symbol><symbol id="g" overflow="visible"><path d="M6.04-1.016V0H.362C.355-.254.398-.5.484-.734c.145-.387.38-.766.696-1.141.32-.375.781-.809 1.383-1.3.933-.766 1.562-1.372 1.89-1.821.328-.445.492-.871.492-1.27 0-.418-.148-.77-.449-1.054-.297-.29-.687-.43-1.168-.43-.508 0-.914.148-1.219.453s-.46.727-.46 1.266l-1.087-.11c.075-.808.352-1.425.836-1.847.485-.426 1.137-.637 1.953-.637.825 0 1.477.227 1.957.687a2.25 2.25 0 0 1 .723 1.696c0 .343-.07.683-.21 1.015-.141.332-.376.68-.704 1.047-.324.367-.867.875-1.625 1.516-.633.531-1.039.89-1.219 1.078-.18.191-.328.383-.445.57z"/></symbol><symbol id="h" overflow="visible"><path d="M.504-2.266l1.055-.14c.12.597.328 1.027.617 1.289.293.266.644.398 1.066.398.496 0 .914-.172 1.254-.515.344-.344.512-.774.512-1.282 0-.484-.156-.882-.473-1.195-.316-.316-.719-.472-1.207-.472-.2 0-.445.039-.742.117l.117-.926c.07.008.125.012.168.012.45 0 .856-.118 1.215-.352.36-.234.539-.598.539-1.082 0-.387-.133-.71-.395-.96-.261-.255-.597-.384-1.011-.384-.41 0-.754.13-1.028.387-.273.258-.449.645-.527 1.16L.61-6.398c.13-.707.422-1.254.88-1.645.456-.386 1.027-.582 1.706-.582.47 0 .899.102 1.293.301.395.203.696.477.907.824.207.348.312.719.312 1.11 0 .37-.098.707-.3 1.011-.2.305-.493.547-.884.727.508.117.903.36 1.184.73.281.368.422.828.422 1.383 0 .75-.273 1.387-.82 1.91-.547.52-1.239.782-2.075.782-.753 0-1.378-.223-1.878-.676C.859-.973.574-1.554.504-2.265z"/></symbol><symbol id="i" overflow="visible"><path d="M3.879 0v-2.055H.152v-.968L4.07-8.59h.864v5.567h1.16v.968h-1.16V0zm0-3.023v-3.875L1.187-3.023z"/></symbol><symbol id="j" overflow="visible"><path d="M4.852-.766c-.391.332-.766.563-1.13.704-.359.136-.745.203-1.16.203-.683 0-1.21-.168-1.578-.5-.367-.336-.55-.762-.55-1.282a1.733 1.733 0 0 1 .754-1.441c.222-.152.476-.27.757-.348.207-.054.52-.105.938-.156.851-.101 1.476-.223 1.883-.363.004-.145.004-.238.004-.278 0-.43-.098-.73-.301-.906-.27-.238-.668-.36-1.2-.36-.496 0-.863.09-1.097.263-.238.175-.414.48-.524.925l-1.03-.14c.093-.442.245-.801.46-1.07.215-.274.524-.481.93-.63a4.217 4.217 0 0 1 1.414-.218c.531 0 .96.062 1.297.187.332.125.574.282.73.473.157.187.266.43.328.719.036.18.051.5.051.968v1.407c0 .98.024 1.601.07 1.863.044.258.133.508.266.746H5.063a2.25 2.25 0 0 1-.211-.766zm-.086-2.359c-.383.156-.961.289-1.727.398-.434.063-.738.133-.918.211a.958.958 0 0 0-.418.344.91.91 0 0 0-.144.5c0 .281.105.516.32.703.21.188.523.281.933.281.407 0 .766-.085 1.086-.265a1.64 1.64 0 0 0 .696-.727c.113-.238.172-.593.172-1.054z"/></symbol><symbol id="s" overflow="visible"><path d="M5.969-6.484l-1.047.078c-.094-.414-.227-.711-.399-.899a1.398 1.398 0 0 0-1.054-.453c-.336 0-.633.094-.883.281-.332.243-.594.594-.79 1.063-.19.465-.288 1.125-.296 1.984.254-.386.563-.672.93-.86a2.513 2.513 0 0 1 1.156-.28c.703 0 1.3.258 1.797.773.492.52.742 1.188.742 2.008 0 .539-.117 1.039-.352 1.504-.23.46-.55.816-.957 1.062a2.617 2.617 0 0 1-1.382.371c-.88 0-1.598-.324-2.153-.972C.727-1.47.453-2.535.453-4.02c0-1.66.305-2.867.918-3.62.535-.657 1.254-.985 2.16-.985.676 0 1.23.187 1.664.57.43.38.688.899.774 1.57zM1.664-2.781c0 .363.078.71.23 1.039.157.332.372.586.649.762.277.171.566.261.871.261.445 0 .828-.18 1.148-.539.32-.36.485-.851.485-1.469 0-.593-.16-1.058-.477-1.402a1.565 1.565 0 0 0-1.195-.512c-.477 0-.883.172-1.21.512-.333.344-.5.793-.5 1.348z"/></symbol><symbol id="t" overflow="visible"><path d="M2.121-4.656c-.437-.16-.762-.39-.973-.688C.938-5.64.832-5.996.832-6.41c0-.625.223-1.152.676-1.574.449-.426 1.047-.64 1.789-.64.75 0 1.355.218 1.812.651.457.438.688.965.688 1.59 0 .399-.106.746-.316 1.043-.208.293-.528.52-.95.684.528.172.926.445 1.203.828.274.383.414.844.414 1.375a2.47 2.47 0 0 1-.78 1.852c-.52.5-1.204.75-2.052.75s-1.53-.254-2.05-.754c-.52-.504-.782-1.13-.782-1.88 0-.558.145-1.027.426-1.402.285-.378.688-.636 1.211-.77zm-.21-1.79c0 .407.128.739.394.997.261.258.601.387 1.015.387.407 0 .742-.13 1-.383.262-.258.39-.57.39-.942 0-.386-.132-.71-.401-.976a1.364 1.364 0 0 0-.997-.395c-.402 0-.738.13-1.003.387a1.245 1.245 0 0 0-.399.926zm-.34 3.97c0 .3.07.59.214.87.14.282.356.5.637.653.281.156.582.234.906.234.504 0 .922-.164 1.25-.488s.492-.738.492-1.238c0-.508-.172-.926-.507-1.258-.34-.332-.762-.5-1.27-.5-.496 0-.906.164-1.234.492-.325.328-.489.742-.489 1.235z"/></symbol><symbol id="u" overflow="visible"><path d="M4.852-2.281l1.039.137c-.114.714-.407 1.273-.871 1.68-.47.402-1.043.605-1.723.605-.852 0-1.535-.278-2.05-.836-.52-.555-.778-1.352-.778-2.39 0-.673.11-1.263.336-1.766.222-.504.558-.883 1.015-1.133.453-.254.95-.38 1.485-.38.675 0 1.226.173 1.656.513.43.343.707.828.828 1.457l-1.023.16c-.098-.418-.274-.735-.52-.946-.25-.21-.55-.316-.902-.316-.531 0-.961.191-1.293.57-.332.383-.496.985-.496 1.809 0 .836.156 1.445.476 1.82.32.38.742.57 1.258.57.414 0 .758-.124 1.035-.382.278-.254.453-.64.528-1.172z"/></symbol><symbol id="k" overflow="visible"><path d="M-3.856-8.148a4.003 4.003 0 0 1 1.875.468c.297.153.575.336.833.555.257.219.484.469.68.742.195.278.35.586.46.914.113.332.176.688.184 1.063l2.207.46v1.079L.176-3.328c-.004.36-.059.687-.168.992-.106.3-.262.555-.461.774a2.107 2.107 0 0 1-.75.5c-.3.117-.645.18-1.035.18-.38 0-.743-.044-1.094-.13a4.148 4.148 0 0 1-.98-.363 3.745 3.745 0 0 1-.829-.578A3.639 3.639 0 0 1-6.2-3.644a3.95 3.95 0 0 1-.152-1.067l-2.238-.476v-1.079l2.238.477c.008-.387.07-.727.192-1.023a2.02 2.02 0 0 1 .504-.743c.214-.199.476-.347.78-.445a3.214 3.214 0 0 1 1.02-.148zm.098 1.128c-.543 0-.953.114-1.23.336-.282.227-.442.59-.485 1.094l4.77.985a2.217 2.217 0 0 0-.149-.758 2.335 2.335 0 0 0-.363-.613 2.377 2.377 0 0 0-.523-.465 3.022 3.022 0 0 0-.633-.325 3.486 3.486 0 0 0-.692-.19 3.866 3.866 0 0 0-.695-.063zm-1.656 2.508c.035.41.133.774.289 1.09.16.317.367.582.625.797s.563.375.906.484c.348.11.73.164 1.145.164.547 0 .96-.125 1.242-.378.281-.254.43-.645.445-1.172z"/></symbol><symbol id="l" overflow="visible"><path d="M-.762-4.531H0v4.258a1.384 1.384 0 0 1-.55-.09c-.29-.11-.575-.285-.856-.524s-.606-.582-.977-1.035c-.574-.7-1.027-1.172-1.363-1.418-.336-.246-.652-.371-.953-.371-.313 0-.578.113-.793.34-.215.223-.32.515-.32.875 0 .379.113.683.34.914.23.23.546.344.949.348l-.082.812c-.606-.055-1.07-.266-1.387-.629-.317-.363-.477-.851-.477-1.465 0-.617.172-1.105.516-1.464s.765-.543 1.273-.543c.258 0 .512.054.758.16.25.105.512.281.79.523.273.246.651.653 1.132 1.223.398.473.668.777.812.914.141.133.286.242.426.332z"/></symbol><symbol id="m" overflow="visible"><path d="M8.098 0H.07l3.297-8.59h1.227zM6.422-1.02L4.535-5.987c-.101-.274-.199-.547-.3-.82a8.352 8.352 0 0 1-.25-.84c-.067.285-.145.57-.231.843-.09.278-.184.555-.285.828L1.649-1.02z"/></symbol><symbol id="n" overflow="visible"><path d="M8.148-3.856A4.003 4.003 0 0 1 7.68-1.98a4.347 4.347 0 0 1-.555.833 4.082 4.082 0 0 1-.742.68 3.526 3.526 0 0 1-.914.46 3.503 3.503 0 0 1-1.063.184l-.46 2.207H2.866L3.328.176a3.003 3.003 0 0 1-.992-.168 2.228 2.228 0 0 1-.774-.461 2.107 2.107 0 0 1-.5-.75 2.83 2.83 0 0 1-.18-1.035c0-.38.044-.743.13-1.094.082-.348.203-.676.363-.98.156-.305.352-.583.578-.829A3.639 3.639 0 0 1 3.644-6.2a3.95 3.95 0 0 1 1.067-.152l.476-2.238h1.079l-.477 2.238c.387.008.727.07 1.023.192.293.117.54.285.743.504.199.214.347.476.445.78.101.306.148.645.148 1.02zm-1.128.098c0-.543-.114-.953-.336-1.23-.227-.282-.59-.442-1.094-.485l-.985 4.77c.278-.008.532-.059.758-.149.23-.093.434-.215.613-.363.18-.152.336-.324.465-.523.133-.196.239-.407.325-.633.085-.223.152-.453.19-.692.044-.234.063-.468.063-.695zM4.512-5.414c-.41.035-.774.133-1.09.289-.317.16-.582.367-.797.625s-.375.563-.484.906c-.11.348-.164.73-.164 1.145 0 .547.125.96.378 1.242.254.281.645.43 1.172.445z"/></symbol><symbol id="o" overflow="visible"><path d="M4.531-.762V0H.273a1.384 1.384 0 0 1 .09-.55c.11-.29.285-.575.524-.856s.582-.606 1.035-.977c.7-.574 1.172-1.027 1.418-1.363.246-.336.371-.652.371-.953 0-.313-.113-.578-.34-.793-.223-.215-.515-.32-.875-.32-.379 0-.683.113-.914.34-.23.23-.344.546-.348.949l-.812-.082c.055-.606.266-1.07.629-1.387.363-.317.851-.477 1.465-.477.617 0 1.105.172 1.464.516s.543.765.543 1.273c0 .258-.054.512-.16.758-.105.25-.281.512-.523.79-.246.273-.653.651-1.223 1.132-.473.398-.777.668-.914.812a2.87 2.87 0 0 0-.332.426z"/></symbol><symbol id="p" overflow="visible"><path d="M2.727 0l1.586-7.61h-2.82l.206-.98h6.762l-.203.98H5.46L3.875 0z"/></symbol><clipPath id="a"><path d="M101 80h206v69H101z"/></clipPath><clipPath id="b"><path d="M143 118h164v31H143z"/></clipPath><clipPath id="q"><path d="M408 29h187v120H408z"/></clipPath><clipPath id="r"><path d="M467 67h128v82H467z"/></clipPath></defs><g clip-path="url(#a)" transform="translate(-53.796 -10.81)"><path d="M108.773 148.12l.441-3.332.063-.453.062-.445.125-.883.25-1.707.504-3.223.063-.387.062-.382.125-.75.25-1.465.504-2.774 1.004-4.98.133-.625.137-.61.273-1.191.543-2.254.07-.273.067-.266.136-.531.274-1.031.543-1.957.066-.235.07-.234.137-.461.27-.898.547-1.711 1.086-3.102.066-.168.062-.168.13-.332.253-.652.508-1.243 1.016-2.28.062-.134.063-.136.129-.262.254-.516.507-.992 1.016-1.832.07-.117.067-.113.136-.23.278-.45.55-.863 1.102-1.582.066-.09.07-.094.138-.183.277-.36.55-.687 1.102-1.266.067-.074.066-.07.137-.145.27-.281.538-.547 1.082-1 .067-.059.07-.062.133-.113.273-.23.54-.438 1.081-.813.063-.047.062-.043.125-.09.254-.171.504-.332 1.008-.621.125-.07.129-.075.25-.14.504-.274 1.008-.508.07-.031.066-.035.41-.188.547-.242 1.094-.441.07-.028.067-.023.41-.152.547-.192 1.094-.351.062-.02.067-.02.125-.039.257-.07.508-.144.067-.016.062-.016.129-.035.254-.066.512-.125.125-.032.129-.03.253-.06.512-.109 1.02-.203.25-.047.254-.043.5-.086.062-.007.063-.012.375-.059.5-.074.125-.016.125-.02 1-.124.75-.082.07-.008.066-.008.137-.011.27-.028.542-.047.07-.004.067-.007.137-.008.27-.024.542-.039.07-.004.067-.003.137-.008.27-.016.07-.004.066-.004.137-.007.27-.016.066-.004h.07l.137-.008.27-.012.066-.003.07-.004.137-.004.27-.012h.062l.066-.004.125-.004.254-.008h.062l.063-.003.129-.004.25-.004h.066l.063-.004h.125l.066-.004h.063l.125-.004h.254l.062-.004h.254l.062-.004h1.586l.063.004h.254l.066.004h.274l.07.004h.137l.07.004h.066l.137.004.277.004h.067l.07.004.41.011h.07l.067.004.14.004.274.008h.066l.07.004.137.004.274.011.55.02.071.004.066.004.137.004.277.011.547.028.067.004.07.003.133.008.27.012.538.031 1.079.067.066.004.07.003.133.008 1.887.137.062.008.063.004.129.011.25.02.504.039 1.003.09 2.012.187.067.004.07.008.137.016.27.027.546.055 1.09.113 2.183.242 4.07.492 4.41.578 4.333.606 4.043.586 4.379.648 4.094.621 4.007.61 4.352.668 4.059.625 4.402.672 4.32.656 4.027.605 4.372.653 4.078.597 4 .582 4.336.621 4.05.57 4.387.61 4.098.559 4.02.539 4.355.574 4.07.523 4.406.563 4.328.539 4.035.492 4.38.524 4.085.48 4.004.465 4.348.492 4.054.45.282.03.285.032.566.062 1.13.125.073.008.07.004.423.047.566.063.14.015.145.016.563.062.074.004.21.024" fill="none" stroke="#5c7fb3" stroke-linecap="square" stroke-miterlimit="3.25" stroke-width="1.6"/></g><g clip-path="url(#b)" transform="translate(-53.796 -10.81)"><path d="M150.643 148.12l.074-.07.504-.48 1.016-.923 2.027-1.722.066-.055.07-.055.137-.113.274-.219.55-.426 1.098-.828 2.196-1.543.066-.043.07-.047.133-.09.27-.175.539-.348 1.078-.672 2.156-1.257 4.023-2.06 4.364-1.886 4.07-1.484 4.41-1.363 4.332-1.13 4.043-.898 4.379-.824 4.094-.656 4.008-.547 4.351-.504.063-.008.066-.008.125-.012.254-.027 1.523-.152 2.028-.188.14-.016.41-.035 1.653-.14 2.199-.168.066-.008.067-.004.137-.012.808-.059 1.082-.074 2.16-.137.25-.015.254-.016.504-.027 1.008-.059 2.012-.105.07-.004.066-.004.137-.008.273-.012.547-.027 1.094-.05 2.184-.095.062-.004h.067l.125-.008.254-.008.511-.02 1.02-.038h.062l.067-.004.125-.004.258-.012.507-.016 1.02-.035h.062l.063-.004.875-.027 1-.027h.062l.063-.004.375-.012.5-.012 1-.027h.133l.41-.012.539-.011 1.086-.024.066-.004h.07l.137-.004.27-.004.543-.012 1.082-.019h.066l.063-.004h.125l.253-.004.508-.012 1.012-.015h.125l.125-.004h.254l.508-.008 1.011-.016h.274l.273-.004.551-.008h.137l.136-.004h.274l.55-.008h.274l.274-.004.546-.004h.141l.137-.004h.273l.547-.004h.129l.129-.004h.254l.515-.004h.512l.512-.004h.254l.258-.004h1.023l.066-.004h5.555l.067.004h1.16l.133.004h.82l.066.004h.477l.543.004h.258l.253.004h.508l1.016.008h.254l.254.004.508.004 1.019.008h.137l.136.004h.278l.55.008 1.102.008 2.203.023h.067l.07.004h.133l.27.004.542.004 1.082.016 2.164.027 4.036.063 4.379.074 4.085.078 4.004.082 4.348.094 4.055.094.07.004h.07l.14.004.286.008.566.011 1.13.028.074.004h.07l.422.011.566.012.07.004h.07l.145.004.281.008h.07l.071.004.14.004h.145l.07.004h.07" fill="none" stroke="#e19c23" stroke-linecap="square" stroke-miterlimit="3.25" stroke-width="1.6"/></g><g fill="none" stroke="#636363" stroke-miterlimit="3.25" stroke-width=".5"><g stroke-linecap="square"><path d="M252.277 137.31H37.587M37.587 137.31V4.62M37.587 4.624h214.69M252.277 4.624v132.69"/></g><path d="M41.887 137.31v-2.543"/></g><g transform="translate(-53.796 -10.81)"><use x="87.18" y="162.12" width="100%" height="100%" xlink:href="#c"/><use x="93.854" y="162.12" width="100%" height="100%" xlink:href="#d"/><use x="97.188" y="162.12" width="100%" height="100%" xlink:href="#e"/></g><g fill="none" stroke="#636363" stroke-miterlimit="3.25" stroke-width=".5"><path d="M48.757 137.31v-1.527M55.627 137.31v-1.527M62.497 137.31v-1.527M69.367 137.31v-1.527M76.237 137.31v-2.543"/></g><g transform="translate(-53.796 -10.81)"><use x="121.53" y="162.12" width="100%" height="100%" xlink:href="#c"/><use x="128.204" y="162.12" width="100%" height="100%" xlink:href="#d"/><use x="131.538" y="162.12" width="100%" height="100%" xlink:href="#f"/></g><g fill="none" stroke="#636363" stroke-miterlimit="3.25" stroke-width=".5"><path d="M83.097 137.31v-1.527M89.977 137.31v-1.527M96.847 137.31v-1.527M103.717 137.31v-1.527M110.587 137.31v-2.543"/></g><g transform="translate(-53.796 -10.81)"><use x="155.88" y="162.12" width="100%" height="100%" xlink:href="#g"/><use x="162.554" y="162.12" width="100%" height="100%" xlink:href="#d"/><use x="165.888" y="162.12" width="100%" height="100%" xlink:href="#e"/></g><g fill="none" stroke="#636363" stroke-miterlimit="3.25" stroke-width=".5"><path d="M117.457 137.31v-1.527M124.327 137.31v-1.527M131.197 137.31v-1.527M138.067 137.31v-1.527M144.937 137.31v-2.543"/></g><g transform="translate(-53.796 -10.81)"><use x="190.23" y="162.12" width="100%" height="100%" xlink:href="#g"/><use x="196.904" y="162.12" width="100%" height="100%" xlink:href="#d"/><use x="200.238" y="162.12" width="100%" height="100%" xlink:href="#f"/></g><g fill="none" stroke="#636363" stroke-miterlimit="3.25" stroke-width=".5"><path d="M151.807 137.31v-1.527M158.677 137.31v-1.527M165.547 137.31v-1.527M172.417 137.31v-1.527M179.287 137.31v-2.543"/></g><g transform="translate(-53.796 -10.81)"><use x="224.581" y="162.12" width="100%" height="100%" xlink:href="#h"/><use x="231.254" y="162.12" width="100%" height="100%" xlink:href="#d"/><use x="234.588" y="162.12" width="100%" height="100%" xlink:href="#e"/></g><g fill="none" stroke="#636363" stroke-miterlimit="3.25" stroke-width=".5"><path d="M186.157 137.31v-1.527M193.027 137.31v-1.527M199.897 137.31v-1.527M206.767 137.31v-1.527M213.637 137.31v-2.543"/></g><g transform="translate(-53.796 -10.81)"><use x="258.931" y="162.12" width="100%" height="100%" xlink:href="#h"/><use x="265.605" y="162.12" width="100%" height="100%" xlink:href="#d"/><use x="268.939" y="162.12" width="100%" height="100%" xlink:href="#f"/></g><g fill="none" stroke="#636363" stroke-miterlimit="3.25" stroke-width=".5"><path d="M220.507 137.31v-1.527M227.377 137.31v-1.527M234.247 137.31v-1.527M241.117 137.31v-1.527M247.987 137.31v-2.543"/></g><g transform="translate(-53.796 -10.81)"><use x="293.281" y="162.12" width="100%" height="100%" xlink:href="#i"/><use x="299.955" y="162.12" width="100%" height="100%" xlink:href="#d"/><use x="303.289" y="162.12" width="100%" height="100%" xlink:href="#e"/></g><path d="M37.587 137.31h2.543" fill="none" stroke="#636363" stroke-miterlimit="3.25" stroke-width=".5"/><g transform="translate(-53.796 -10.81)"><use x="71.386" y="152.12" width="100%" height="100%" xlink:href="#e"/><use x="78.06" y="152.12" width="100%" height="100%" xlink:href="#d"/><use x="81.394" y="152.12" width="100%" height="100%" xlink:href="#e"/></g><g fill="none" stroke="#636363" stroke-miterlimit="3.25" stroke-width=".5"><path d="M37.587 132h1.523M37.587 126.69h1.523M37.587 121.39h1.523M37.587 116.08h1.523M37.587 110.77h2.543"/></g><g transform="translate(-53.796 -10.81)"><use x="71.386" y="125.583" width="100%" height="100%" xlink:href="#e"/><use x="78.06" y="125.583" width="100%" height="100%" xlink:href="#d"/><use x="81.394" y="125.583" width="100%" height="100%" xlink:href="#c"/></g><g fill="none" stroke="#636363" stroke-miterlimit="3.25" stroke-width=".5"><path d="M37.587 105.47h1.523M37.587 100.16h1.523M37.587 94.85h1.523M37.587 89.54h1.523M37.587 84.24h2.543"/></g><g transform="translate(-53.796 -10.81)"><use x="71.386" y="99.046" width="100%" height="100%" xlink:href="#e"/><use x="78.06" y="99.046" width="100%" height="100%" xlink:href="#d"/><use x="81.394" y="99.046" width="100%" height="100%" xlink:href="#g"/></g><g fill="none" stroke="#636363" stroke-miterlimit="3.25" stroke-width=".5"><path d="M37.587 78.928h1.523M37.587 73.62h1.523M37.587 68.315h1.523M37.587 63.006h1.523M37.587 57.698h2.543"/></g><g transform="translate(-53.796 -10.81)"><use x="71.386" y="72.509" width="100%" height="100%" xlink:href="#e"/><use x="78.06" y="72.509" width="100%" height="100%" xlink:href="#d"/><use x="81.394" y="72.509" width="100%" height="100%" xlink:href="#h"/></g><g fill="none" stroke="#636363" stroke-miterlimit="3.25" stroke-width=".5"><path d="M37.587 52.393h1.523M37.587 47.085h1.523M37.587 41.776h1.523M37.587 36.471h1.523M37.587 31.163h2.543"/></g><g transform="translate(-53.796 -10.81)"><use x="71.386" y="45.972" width="100%" height="100%" xlink:href="#e"/><use x="78.06" y="45.972" width="100%" height="100%" xlink:href="#d"/><use x="81.394" y="45.972" width="100%" height="100%" xlink:href="#i"/></g><g fill="none" stroke="#636363" stroke-miterlimit="3.25" stroke-width=".5"><path d="M37.587 25.854h1.523M37.587 20.545h1.523M37.587 15.241h1.523M37.587 9.932h1.523M37.587 4.624h2.543"/></g><g transform="translate(-53.796 -10.81)"><use x="71.386" y="19.435" width="100%" height="100%" xlink:href="#e"/><use x="78.06" y="19.435" width="100%" height="100%" xlink:href="#d"/><use x="81.394" y="19.435" width="100%" height="100%" xlink:href="#f"/></g><g fill="none" stroke="#636363" stroke-miterlimit="3.25" stroke-width=".1"><path d="M41.887 4.624v2.148M110.587 4.624v2.148M179.287 4.624v2.148M247.987 4.624v2.148M55.627 4.624v1.527M69.367 4.624v1.527M83.097 4.624v1.527M96.847 4.624v1.527M124.327 4.624v1.527M138.067 4.624v1.527M151.807 4.624v1.527M165.547 4.624v1.527M193.027 4.624v1.527M206.767 4.624v1.527M220.507 4.624v1.527M234.247 4.624v1.527M252.277 137.31h-2.148M252.277 110.77h-2.148M252.277 84.24h-2.148M252.277 57.698h-2.148M252.277 31.163h-2.148M252.277 4.624h-2.148M252.277 132h-1.523M252.277 126.69h-1.523M252.277 121.39h-1.523M252.277 116.08h-1.523M252.277 105.47h-1.523M252.277 100.16h-1.523M252.277 94.85h-1.523M252.277 89.54h-1.523M252.277 78.928h-1.523M252.277 73.62h-1.523M252.277 68.315h-1.523M252.277 63.006h-1.523M252.277 52.393h-1.523M252.277 47.085h-1.523M252.277 41.776h-1.523M252.277 36.471h-1.523M252.277 25.854h-1.523M252.277 20.545h-1.523M252.277 15.241h-1.523M252.277 9.932h-1.523"/></g><g transform="translate(-53.796 -10.81)"><use x="195.23" y="182.12" width="100%" height="100%" xlink:href="#j"/><use x="62.386" y="88.778" width="100%" height="100%" xlink:href="#k"/><use x="64.386" y="80.778" width="100%" height="100%" xlink:href="#l"/></g><path d="M110.587 118.9V85.396" fill="none" stroke="#000" stroke-miterlimit="3.25"/><g transform="translate(-53.796 -10.81)"><path d="M166.643 128.92l-.258.125-.617.277-.371.145-.371.129-.352.086-.293.03-.265-.03-.344-.086-.387-.13-.39-.144-.676-.277-.285-.125 2.347 8.586zM162.123 97l.258-.125.613-.277.371-.145.375-.129.348-.086.293-.03.265.03.344.086.387.13.394.144.676.277.285.125-2.351-8.59z" stroke="#000" stroke-linecap="square" stroke-miterlimit="3.25" stroke-width=".03"/><use x="139.64" y="116.622" width="100%" height="100%" xlink:href="#m"/><use x="148.089" y="116.622" width="100%" height="100%" xlink:href="#n"/><use x="155.64" y="119.122" width="100%" height="100%" xlink:href="#o"/><use x="288.781" y="33.069" width="100%" height="100%" xlink:href="#p"/><use x="296.111" y="35.069" width="100%" height="100%" xlink:href="#o"/></g><g clip-path="url(#q)" transform="translate(-53.796 -10.81)"><path d="M416.163 148.12l.707-2.813.125-.484.125-.48.254-.95.504-1.859 1.008-3.562 2.015-6.551.07-.211.067-.207.137-.418.273-.82.547-1.61 1.094-3.09 2.187-5.695.063-.156.066-.16.125-.309.258-.621.508-1.215 1.023-2.348 2.04-4.382.062-.13.062-.124.125-.258.254-.504.5-.992 1-1.926 2-3.625 4.344-6.941 4.055-5.555 4.39-5.207 4.313-4.457 4.023-3.668 4.363-3.535 4.07-2.953 4.411-2.875 4.332-2.547 4.043-2.16 4.379-2.137 4.094-1.828 4.007-1.657 4.352-1.656 4.059-1.433 4.402-1.442 4.32-1.312 4.028-1.145 4.37-1.16 4.079-1.016 4-.937 4.336-.957 4.05-.844 4.387-.863 4.098-.762 4.02-.707 4.355-.73 4.07-.649 4.406-.664 4.328-.62 4.036-.556 4.378-.574 4.086-.508 4.004-.48 4.348-.5 4.055-.445.28-.032.286-.027.566-.062 1.13-.118.074-.007.492-.055.566-.059.14-.015.145-.012.422-.047.14-.012.075-.007.21-.024" fill="none" stroke="#5c7fb3" stroke-linecap="square" stroke-miterlimit="3.25" stroke-width="1.6"/></g><g clip-path="url(#r)" transform="translate(-53.796 -10.81)"><path d="M474.813 148.12l.895-1.328 4.378-5.942 4.094-5.078 4.008-4.597 4.352-4.602 4.058-3.98 4.403-4 4.32-3.649 4.027-3.18 4.371-3.222 4.078-2.824 4-2.602 4.336-2.664 4.051-2.34 4.387-2.394 4.097-2.118 4.02-1.968 4.355-2.028 4.07-1.797 4.407-1.851 4.328-1.727 4.035-1.535 4.379-1.59 4.086-1.422 4.004-1.332 4.347-1.382 4.055-1.239.07-.02.07-.023.141-.043.286-.082.566-.168 1.129-.332.074-.023.07-.02.14-.043.282-.082.567-.164.14-.039.145-.043.281-.078.07-.023.211-.059.074-.02.07-.023.141-.039" fill="none" stroke="#e19c23" stroke-linecap="square" stroke-miterlimit="3.25" stroke-width="1.6"/></g><g fill="none" stroke="#636363" stroke-miterlimit="3.25" stroke-width=".5"><g stroke-linecap="square"><path d="M539.777 137.31h-214.69M325.087 137.31V4.62M325.087 4.624h214.69M539.777 4.624v132.69"/></g><path d="M329.387 137.31v-2.543"/></g><g transform="translate(-53.796 -10.81)"><use x="374.68" y="162.12" width="100%" height="100%" xlink:href="#e"/><use x="381.354" y="162.12" width="100%" height="100%" xlink:href="#d"/><use x="384.688" y="162.12" width="100%" height="100%" xlink:href="#e"/></g><g fill="none" stroke="#636363" stroke-miterlimit="3.25" stroke-width=".5"><path d="M339.687 137.31v-1.527M349.997 137.31v-1.527M360.297 137.31v-1.527M370.597 137.31v-2.543"/></g><g transform="translate(-53.796 -10.81)"><use x="415.9" y="162.12" width="100%" height="100%" xlink:href="#e"/><use x="422.574" y="162.12" width="100%" height="100%" xlink:href="#d"/><use x="425.908" y="162.12" width="100%" height="100%" xlink:href="#g"/></g><g fill="none" stroke="#636363" stroke-miterlimit="3.25" stroke-width=".5"><path d="M380.907 137.31v-1.527M391.217 137.31v-1.527M401.517 137.31v-1.527M411.827 137.31v-2.543"/></g><g transform="translate(-53.796 -10.81)"><use x="457.12" y="162.12" width="100%" height="100%" xlink:href="#e"/><use x="463.794" y="162.12" width="100%" height="100%" xlink:href="#d"/><use x="467.128" y="162.12" width="100%" height="100%" xlink:href="#i"/></g><g fill="none" stroke="#636363" stroke-miterlimit="3.25" stroke-width=".5"><path d="M422.127 137.31v-1.527M432.437 137.31v-1.527M442.737 137.31v-1.527M453.047 137.31v-2.543"/></g><g transform="translate(-53.796 -10.81)"><use x="498.34" y="162.12" width="100%" height="100%" xlink:href="#e"/><use x="505.014" y="162.12" width="100%" height="100%" xlink:href="#d"/><use x="508.348" y="162.12" width="100%" height="100%" xlink:href="#s"/></g><g fill="none" stroke="#636363" stroke-miterlimit="3.25" stroke-width=".5"><path d="M463.347 137.31v-1.527M473.657 137.31v-1.527M483.957 137.31v-1.527M494.267 137.31v-2.543"/></g><g transform="translate(-53.796 -10.81)"><use x="539.561" y="162.12" width="100%" height="100%" xlink:href="#e"/><use x="546.235" y="162.12" width="100%" height="100%" xlink:href="#d"/><use x="549.568" y="162.12" width="100%" height="100%" xlink:href="#t"/></g><g fill="none" stroke="#636363" stroke-miterlimit="3.25" stroke-width=".5"><path d="M504.567 137.31v-1.527M514.877 137.31v-1.527M525.177 137.31v-1.527M535.487 137.31v-2.543"/></g><g transform="translate(-53.796 -10.81)"><use x="580.781" y="162.12" width="100%" height="100%" xlink:href="#c"/><use x="587.455" y="162.12" width="100%" height="100%" xlink:href="#d"/><use x="590.789" y="162.12" width="100%" height="100%" xlink:href="#e"/></g><path d="M325.087 137.31h2.543" fill="none" stroke="#636363" stroke-miterlimit="3.25" stroke-width=".5"/><g transform="translate(-53.796 -10.81)"><use x="358.886" y="152.12" width="100%" height="100%" xlink:href="#e"/><use x="365.56" y="152.12" width="100%" height="100%" xlink:href="#d"/><use x="368.894" y="152.12" width="100%" height="100%" xlink:href="#e"/></g><g fill="none" stroke="#636363" stroke-miterlimit="3.25" stroke-width=".5"><path d="M325.087 132h1.523M325.087 126.69h1.523M325.087 121.39h1.523M325.087 116.08h1.523M325.087 110.77h2.543"/></g><g transform="translate(-53.796 -10.81)"><use x="358.886" y="125.583" width="100%" height="100%" xlink:href="#e"/><use x="365.56" y="125.583" width="100%" height="100%" xlink:href="#d"/><use x="368.894" y="125.583" width="100%" height="100%" xlink:href="#c"/></g><g fill="none" stroke="#636363" stroke-miterlimit="3.25" stroke-width=".5"><path d="M325.087 105.47h1.523M325.087 100.16h1.523M325.087 94.85h1.523M325.087 89.54h1.523M325.087 84.24h2.543"/></g><g transform="translate(-53.796 -10.81)"><use x="358.886" y="99.046" width="100%" height="100%" xlink:href="#e"/><use x="365.56" y="99.046" width="100%" height="100%" xlink:href="#d"/><use x="368.894" y="99.046" width="100%" height="100%" xlink:href="#g"/></g><g fill="none" stroke="#636363" stroke-miterlimit="3.25" stroke-width=".5"><path d="M325.087 78.928h1.523M325.087 73.62h1.523M325.087 68.315h1.523M325.087 63.006h1.523M325.087 57.698h2.543"/></g><g transform="translate(-53.796 -10.81)"><use x="358.886" y="72.509" width="100%" height="100%" xlink:href="#e"/><use x="365.56" y="72.509" width="100%" height="100%" xlink:href="#d"/><use x="368.894" y="72.509" width="100%" height="100%" xlink:href="#h"/></g><g fill="none" stroke="#636363" stroke-miterlimit="3.25" stroke-width=".5"><path d="M325.087 52.393h1.523M325.087 47.085h1.523M325.087 41.776h1.523M325.087 36.471h1.523M325.087 31.163h2.543"/></g><g transform="translate(-53.796 -10.81)"><use x="358.886" y="45.972" width="100%" height="100%" xlink:href="#e"/><use x="365.56" y="45.972" width="100%" height="100%" xlink:href="#d"/><use x="368.894" y="45.972" width="100%" height="100%" xlink:href="#i"/></g><g fill="none" stroke="#636363" stroke-miterlimit="3.25" stroke-width=".5"><path d="M325.087 25.854h1.523M325.087 20.545h1.523M325.087 15.241h1.523M325.087 9.932h1.523M325.087 4.624h2.543"/></g><g transform="translate(-53.796 -10.81)"><use x="358.886" y="19.435" width="100%" height="100%" xlink:href="#e"/><use x="365.56" y="19.435" width="100%" height="100%" xlink:href="#d"/><use x="368.894" y="19.435" width="100%" height="100%" xlink:href="#f"/></g><g fill="none" stroke="#636363" stroke-miterlimit="3.25" stroke-width=".1"><path d="M329.387 4.624v2.148M370.597 4.624v2.148M411.827 4.624v2.148M453.047 4.624v2.148M494.267 4.624v2.148M535.487 4.624v2.148M339.687 4.624v1.527M349.997 4.624v1.527M360.297 4.624v1.527M380.907 4.624v1.527M391.217 4.624v1.527M401.517 4.624v1.527M422.127 4.624v1.527M432.437 4.624v1.527M442.737 4.624v1.527M463.347 4.624v1.527M473.657 4.624v1.527M483.957 4.624v1.527M504.567 4.624v1.527M514.877 4.624v1.527M525.177 4.624v1.527M539.777 137.31h-2.148M539.777 110.77h-2.148M539.777 84.24h-2.148M539.777 57.698h-2.148M539.777 31.163h-2.148M539.777 4.624h-2.148M539.777 132h-1.523M539.777 126.69h-1.523M539.777 121.39h-1.523M539.777 116.08h-1.523M539.777 105.47h-1.523M539.777 100.16h-1.523M539.777 94.85h-1.523M539.777 89.54h-1.523M539.777 78.928h-1.523M539.777 73.62h-1.523M539.777 68.315h-1.523M539.777 63.006h-1.523M539.777 52.393h-1.523M539.777 47.085h-1.523M539.777 41.776h-1.523M539.777 36.471h-1.523M539.777 25.854h-1.523M539.777 20.545h-1.523M539.777 15.241h-1.523M539.777 9.932h-1.523"/></g><g transform="translate(-53.796 -10.81)"><use x="483.23" y="182.12" width="100%" height="100%" xlink:href="#u"/><use x="349.886" y="88.778" width="100%" height="100%" xlink:href="#k"/><use x="351.886" y="80.778" width="100%" height="100%" xlink:href="#l"/><use x="576.281" y="33.069" width="100%" height="100%" xlink:href="#p"/><use x="583.611" y="35.069" width="100%" height="100%" xlink:href="#o"/></g></svg>