<svg width="724.12" height="228.6" viewBox="0 0 543.094 171.45" xmlns="http://www.w3.org/2000/svg" xmlns:xlink="http://www.w3.org/1999/xlink"><defs><symbol id="c" overflow="visible"><path d="M.5-4.234C.5-5.25.602-6.07.813-6.688c.207-.62.519-1.097.93-1.433.413-.336.929-.504 1.554-.504.46 0 .867.094 1.215.277.347.188.636.453.863.805.227.348.402.773.531 1.277.13.5.196 1.18.196 2.032 0 1.007-.106 1.82-.313 2.437-.207.621-.516 1.098-.93 1.438-.41.335-.93.507-1.562.507-.828 0-1.477-.297-1.95-.89C.782-1.457.5-2.625.5-4.234zm1.082 0c0 1.41.164 2.347.496 2.812.328.469.734.703 1.219.703s.894-.234 1.223-.703c.332-.469.496-1.406.496-2.812 0-1.414-.164-2.356-.496-2.82-.329-.466-.739-.696-1.23-.696-.485 0-.876.203-1.165.613-.363.524-.543 1.489-.543 2.903z"/></symbol><symbol id="d" overflow="visible"><path d="M1.09 0v-1.203h1.199V0z"/></symbol><symbol id="e" overflow="visible"><path d="M6.04-1.016V0H.362C.355-.254.398-.5.484-.734c.145-.387.38-.766.696-1.141.32-.375.781-.809 1.383-1.3.933-.766 1.562-1.372 1.89-1.821.328-.445.492-.871.492-1.27 0-.418-.148-.77-.449-1.054-.297-.29-.687-.43-1.168-.43-.508 0-.914.148-1.219.453s-.46.727-.46 1.266l-1.087-.11c.075-.808.352-1.425.836-1.847.485-.426 1.137-.637 1.953-.637.825 0 1.477.227 1.957.687a2.25 2.25 0 0 1 .723 1.696c0 .343-.07.683-.21 1.015-.141.332-.376.68-.704 1.047-.324.367-.867.875-1.625 1.516-.633.531-1.039.89-1.219 1.078-.18.191-.328.383-.445.57z"/></symbol><symbol id="f" overflow="visible"><path d="M3.879 0v-2.055H.152v-.968L4.07-8.59h.864v5.567h1.16v.968h-1.16V0zm0-3.023v-3.875L1.187-3.023z"/></symbol><symbol id="g" overflow="visible"><path d="M5.969-6.484l-1.047.078c-.094-.414-.227-.711-.399-.899a1.398 1.398 0 0 0-1.054-.453c-.336 0-.633.094-.883.281-.332.243-.594.594-.79 1.063-.19.465-.288 1.125-.296 1.984.254-.386.563-.672.93-.86a2.513 2.513 0 0 1 1.156-.28c.703 0 1.3.258 1.797.773.492.52.742 1.188.742 2.008 0 .539-.117 1.039-.352 1.504-.23.46-.55.816-.957 1.062a2.617 2.617 0 0 1-1.382.371c-.88 0-1.598-.324-2.153-.972C.727-1.47.453-2.535.453-4.02c0-1.66.305-2.867.918-3.62.535-.657 1.254-.985 2.16-.985.676 0 1.23.187 1.664.57.43.38.688.899.774 1.57zM1.664-2.781c0 .363.078.71.23 1.039.157.332.372.586.649.762.277.171.566.261.871.261.445 0 .828-.18 1.148-.539.32-.36.485-.851.485-1.469 0-.593-.16-1.058-.477-1.402a1.565 1.565 0 0 0-1.195-.512c-.477 0-.883.172-1.21.512-.333.344-.5.793-.5 1.348z"/></symbol><symbol id="h" overflow="visible"><path d="M2.121-4.656c-.437-.16-.762-.39-.973-.688C.938-5.64.832-5.996.832-6.41c0-.625.223-1.152.676-1.574.449-.426 1.047-.64 1.789-.64.75 0 1.355.218 1.812.651.457.438.688.965.688 1.59 0 .399-.106.746-.316 1.043-.208.293-.528.52-.95.684.528.172.926.445 1.203.828.274.383.414.844.414 1.375a2.47 2.47 0 0 1-.78 1.852c-.52.5-1.204.75-2.052.75s-1.53-.254-2.05-.754c-.52-.504-.782-1.13-.782-1.88 0-.558.145-1.027.426-1.402.285-.378.688-.636 1.211-.77zm-.21-1.79c0 .407.128.739.394.997.261.258.601.387 1.015.387.407 0 .742-.13 1-.383.262-.258.39-.57.39-.942 0-.386-.132-.71-.401-.976a1.364 1.364 0 0 0-.997-.395c-.402 0-.738.13-1.003.387a1.245 1.245 0 0 0-.399.926zm-.34 3.97c0 .3.07.59.214.87.14.282.356.5.637.653.281.156.582.234.906.234.504 0 .922-.164 1.25-.488s.492-.738.492-1.238c0-.508-.172-.926-.507-1.258-.34-.332-.762-.5-1.27-.5-.496 0-.906.164-1.234.492-.325.328-.489.742-.489 1.235z"/></symbol><symbol id="i" overflow="visible"><path d="M4.469 0H3.414v-6.719a5.488 5.488 0 0 1-.996.727 7.154 7.154 0 0 1-1.113.543v-1.02a6.295 6.295 0 0 0 1.547-1.008c.441-.394.757-.777.937-1.148h.68z"/></symbol><symbol id="j" overflow="visible"><path d="M.504-2.266l1.055-.14c.12.597.328 1.027.617 1.289.293.266.644.398 1.066.398.496 0 .914-.172 1.254-.515.344-.344.512-.774.512-1.282 0-.484-.156-.882-.473-1.195-.316-.316-.719-.472-1.207-.472-.2 0-.445.039-.742.117l.117-.926c.07.008.125.012.168.012.45 0 .856-.118 1.215-.352.36-.234.539-.598.539-1.082 0-.387-.133-.71-.395-.96-.261-.255-.597-.384-1.011-.384-.41 0-.754.13-1.028.387-.273.258-.449.645-.527 1.16L.61-6.398c.13-.707.422-1.254.88-1.645.456-.386 1.027-.582 1.706-.582.47 0 .899.102 1.293.301.395.203.696.477.907.824.207.348.312.719.312 1.11 0 .37-.098.707-.3 1.011-.2.305-.493.547-.884.727.508.117.903.36 1.184.73.281.368.422.828.422 1.383 0 .75-.273 1.387-.82 1.91-.547.52-1.239.782-2.075.782-.753 0-1.378-.223-1.878-.676C.859-.973.574-1.554.504-2.265z"/></symbol><symbol id="k" overflow="visible"><path d="M.5-2.25l1.105-.094c.083.54.274.946.57 1.215.302.273.661.41 1.083.41.508 0 .937-.195 1.289-.578s.527-.89.527-1.523c0-.602-.168-1.075-.508-1.422-.335-.348-.777-.524-1.324-.524-.34 0-.648.078-.922.235a1.74 1.74 0 0 0-.644.601l-.988-.133.828-4.41h4.273v1.008H2.36L1.9-5.156c.515-.36 1.054-.54 1.624-.54.75 0 1.383.258 1.899.782.515.52.773 1.187.773 2 0 .777-.226 1.453-.68 2.015C4.966-.203 4.212.148 3.259.148c-.781 0-1.418-.218-1.914-.656C.85-.945.57-1.528.5-2.25z"/></symbol><symbol id="l" overflow="visible"><path d="M.367-1.86l1.047-.163c.059.418.219.742.488.96.266.223.641.336 1.121.336.485 0 .844-.097 1.079-.296.234-.196.351-.43.351-.696a.639.639 0 0 0-.312-.562c-.145-.094-.5-.211-1.078-.356-.774-.195-1.31-.363-1.606-.508-.3-.14-.527-.34-.68-.59a1.558 1.558 0 0 1-.23-.835c0-.278.062-.535.187-.77.13-.238.301-.433.52-.59.164-.12.387-.222.672-.308.281-.082.586-.125.91-.125.488 0 .918.07 1.285.21.371.141.645.333.817.571.175.242.296.562.367.965l-1.031.14c-.047-.32-.184-.57-.41-.75-.223-.18-.544-.27-.95-.27-.484 0-.832.083-1.039.24-.207.16-.312.35-.312.562 0 .136.046.261.132.37a.923.923 0 0 0 .403.282c.105.04.418.129.933.27.746.199 1.266.363 1.559.488.297.129.527.312.695.555.168.242.254.542.254.902 0 .351-.105.683-.308.992-.207.313-.504.55-.887.723A3.277 3.277 0 0 1 3.03.14c-.808 0-1.425-.168-1.851-.504C.758-.7.484-1.195.367-1.86z"/></symbol><symbol id="m" overflow="visible"><path d="M-3.856-8.148a4.003 4.003 0 0 1 1.875.468c.297.153.575.336.833.555.257.219.484.469.68.742.195.278.35.586.46.914.113.332.176.688.184 1.063l2.207.46v1.079L.176-3.328c-.004.36-.059.687-.168.992-.106.3-.262.555-.461.774a2.107 2.107 0 0 1-.75.5c-.3.117-.645.18-1.035.18-.38 0-.743-.044-1.094-.13a4.148 4.148 0 0 1-.98-.363 3.745 3.745 0 0 1-.829-.578A3.639 3.639 0 0 1-6.2-3.644a3.95 3.95 0 0 1-.152-1.067l-2.238-.476v-1.079l2.238.477c.008-.387.07-.727.192-1.023a2.02 2.02 0 0 1 .504-.743c.214-.199.476-.347.78-.445a3.214 3.214 0 0 1 1.02-.148zm.098 1.128c-.543 0-.953.114-1.23.336-.282.227-.442.59-.485 1.094l4.77.985a2.217 2.217 0 0 0-.149-.758 2.335 2.335 0 0 0-.363-.613 2.377 2.377 0 0 0-.523-.465 3.022 3.022 0 0 0-.633-.325 3.486 3.486 0 0 0-.692-.19 3.866 3.866 0 0 0-.695-.063zm-1.656 2.508c.035.41.133.774.289 1.09.16.317.367.582.625.797s.563.375.906.484c.348.11.73.164 1.145.164.547 0 .96-.125 1.242-.378.281-.254.43-.645.445-1.172z"/></symbol><symbol id="n" overflow="visible"><path d="M-.762-4.531H0v4.258a1.384 1.384 0 0 1-.55-.09c-.29-.11-.575-.285-.856-.524s-.606-.582-.977-1.035c-.574-.7-1.027-1.172-1.363-1.418-.336-.246-.652-.371-.953-.371-.313 0-.578.113-.793.34-.215.223-.32.515-.32.875 0 .379.113.683.34.914.23.23.546.344.949.348l-.082.812c-.606-.055-1.07-.266-1.387-.629-.317-.363-.477-.851-.477-1.465 0-.617.172-1.105.516-1.464s.765-.543 1.273-.543c.258 0 .512.054.758.16.25.105.512.281.79.523.273.246.651.653 1.132 1.223.398.473.668.777.812.914.141.133.286.242.426.332z"/></symbol><symbol id="o" overflow="visible"><path d="M2.727 0l1.586-7.61h-2.82l.206-.98h6.762l-.203.98H5.46L3.875 0z"/></symbol><symbol id="p" overflow="visible"><path d="M4.531-.762V0H.273a1.384 1.384 0 0 1 .09-.55c.11-.29.285-.575.524-.856s.582-.606 1.035-.977c.7-.574 1.172-1.027 1.418-1.363.246-.336.371-.652.371-.953 0-.313-.113-.578-.34-.793-.223-.215-.515-.32-.875-.32-.379 0-.683.113-.914.34-.23.23-.344.546-.348.949l-.812-.082c.055-.606.266-1.07.629-1.387.363-.317.851-.477 1.465-.477.617 0 1.105.172 1.464.516s.543.765.543 1.273c0 .258-.054.512-.16.758-.105.25-.281.512-.523.79-.246.273-.653.651-1.223 1.132-.473.398-.777.668-.914.812a2.87 2.87 0 0 0-.332.426z"/></symbol><clipPath id="a"><path d="M90 74h182v75H90z"/></clipPath><clipPath id="b"><path d="M90 74h106v75H90z"/></clipPath><clipPath id="q"><path d="M378 15h217v134H378z"/></clipPath><clipPath id="r"><path d="M378 15h116v134H378z"/></clipPath></defs><g clip-path="url(#a)" transform="translate(-53.796 -10.81)"><path d="M95.683 81.777h.82l.067.004h.629l.066.004h.188l.253.004h.254l.25.004h.13l.124.004.254.003h.125l.13.004.25.004.507.008h.066l.07.004h.137l.274.008.547.011h.07l.066.004.14.004.274.004.547.016.07.004h.067l.137.004.273.011.55.016 1.095.043h.066l.063.004.129.004.257.011 1.536.07.125.009.128.003.258.016.512.023 1.023.06.5.03.504.032 1.004.066.25.016.25.02.504.034 1.004.075.066.007.067.004.136.012.274.02.543.042 1.09.094 2.175.203.067.008.062.004.13.012.253.027.508.05 1.016.106 2.03.23 4.407.56 4.324.64 4.031.676 4.375.816 4.082.844 4.004.902 4.344 1.067 4.055 1.074 4.39 1.25 4.313 1.316 4.023 1.309 4.364 1.5 4.07 1.484 4.41 1.692 4.332 1.754 4.043 1.714 4.379 1.942 4.094 1.898 4.008 1.934 4.351 2.187 4.059 2.117 4.402 2.383 4.32 2.43 4.028 2.344 4.37 2.629 4.079 2.53 4 2.563 4.336 2.86 4.05 2.75 4.387 3.07 4.098 2.945 4.02 2.965 4.355 3.301 4.07 3.16.344.278" fill="none" stroke="#5c7fb3" stroke-linecap="square" stroke-miterlimit="3.25" stroke-width="1.6"/></g><g clip-path="url(#b)" transform="translate(-53.796 -10.81)"><path d="M95.683 81.777h.82l.067.004h.629l.066.004h.188l.253.004h.254l.25.004h.13l.124.004.254.003h.125l.13.004.25.004.507.008.066.004h.07l.137.004.274.004.547.015h.07l.066.004.14.004.821.024h.07l.067.003.137.004.273.012.55.02 1.095.043.066.003.063.004.129.004.257.012 1.536.082.125.008.386.023.512.032 1.023.07.25.015.25.02.504.04 1.004.081.125.008.375.035.504.043 1.004.098.133.015.136.012.274.027.543.059 1.09.121.066.008.07.008.137.015.27.035.547.067 1.085.14.067.012.062.008.13.016.253.035 1.524.222.062.012.063.008.128.02.254.039.508.082 1.016.171.07.012.066.012.137.023.278.047.55.102 1.102.207 2.203.453.133.031.137.031.27.059.538.121 1.082.258 2.164.555.063.015.062.02.125.031.254.07.504.141 1.008.293 2.015.625.07.02.067.023.137.047.273.09.547.183 1.094.38 2.25.843.066.023.125.051.258.102.508.207 1.023.425 2.04.907 4.003 2.011 4.344 2.57 4.055 2.813 4.39 3.574 4.313 4.118 4.023 4.468 4.364 5.645 4.07 6.137 4.41 7.757 4.332 8.934 4.043 9.723.106.297" fill="none" stroke="#e19c23" stroke-linecap="square" stroke-miterlimit="3.25" stroke-width="1.6"/></g><g fill="none" stroke="#636363" stroke-miterlimit="3.25" stroke-width=".5"><g stroke-linecap="square"><path d="M252.277 137.31H37.587M37.587 137.31V4.62M37.587 4.624h214.69M252.277 4.624v132.69"/></g><path d="M41.887 137.31v-2.543"/></g><g transform="translate(-53.796 -10.81)"><use x="87.18" y="162.12" width="100%" height="100%" xlink:href="#c"/><use x="93.854" y="162.12" width="100%" height="100%" xlink:href="#d"/><use x="97.188" y="162.12" width="100%" height="100%" xlink:href="#c"/></g><g fill="none" stroke="#636363" stroke-miterlimit="3.25" stroke-width=".5"><path d="M52.187 137.31v-1.527M62.497 137.31v-1.527M72.797 137.31v-1.527M83.097 137.31v-2.543"/></g><g transform="translate(-53.796 -10.81)"><use x="128.4" y="162.12" width="100%" height="100%" xlink:href="#c"/><use x="135.074" y="162.12" width="100%" height="100%" xlink:href="#d"/><use x="138.408" y="162.12" width="100%" height="100%" xlink:href="#e"/></g><g fill="none" stroke="#636363" stroke-miterlimit="3.25" stroke-width=".5"><path d="M93.407 137.31v-1.527M103.717 137.31v-1.527M114.017 137.31v-1.527M124.327 137.31v-2.543"/></g><g transform="translate(-53.796 -10.81)"><use x="169.62" y="162.12" width="100%" height="100%" xlink:href="#c"/><use x="176.294" y="162.12" width="100%" height="100%" xlink:href="#d"/><use x="179.628" y="162.12" width="100%" height="100%" xlink:href="#f"/></g><g fill="none" stroke="#636363" stroke-miterlimit="3.25" stroke-width=".5"><path d="M134.627 137.31v-1.527M144.937 137.31v-1.527M155.237 137.31v-1.527M165.547 137.31v-2.543"/></g><g transform="translate(-53.796 -10.81)"><use x="210.84" y="162.12" width="100%" height="100%" xlink:href="#c"/><use x="217.514" y="162.12" width="100%" height="100%" xlink:href="#d"/><use x="220.848" y="162.12" width="100%" height="100%" xlink:href="#g"/></g><g fill="none" stroke="#636363" stroke-miterlimit="3.25" stroke-width=".5"><path d="M175.847 137.31v-1.527M186.157 137.31v-1.527M196.457 137.31v-1.527M206.767 137.31v-2.543"/></g><g transform="translate(-53.796 -10.81)"><use x="252.061" y="162.12" width="100%" height="100%" xlink:href="#c"/><use x="258.735" y="162.12" width="100%" height="100%" xlink:href="#d"/><use x="262.068" y="162.12" width="100%" height="100%" xlink:href="#h"/></g><g fill="none" stroke="#636363" stroke-miterlimit="3.25" stroke-width=".5"><path d="M217.067 137.31v-1.527M227.377 137.31v-1.527M237.677 137.31v-1.527M247.987 137.31v-2.543"/></g><g transform="translate(-53.796 -10.81)"><use x="293.281" y="162.12" width="100%" height="100%" xlink:href="#i"/><use x="299.955" y="162.12" width="100%" height="100%" xlink:href="#d"/><use x="303.289" y="162.12" width="100%" height="100%" xlink:href="#c"/></g><path d="M37.587 137.31h2.543" fill="none" stroke="#636363" stroke-miterlimit="3.25" stroke-width=".5"/><g transform="translate(-53.796 -10.81)"><use x="71.386" y="152.12" width="100%" height="100%" xlink:href="#c"/><use x="78.06" y="152.12" width="100%" height="100%" xlink:href="#d"/><use x="81.394" y="152.12" width="100%" height="100%" xlink:href="#c"/></g><g fill="none" stroke="#636363" stroke-miterlimit="3.25" stroke-width=".5"><path d="M37.587 132h1.523M37.587 126.69h1.523M37.587 121.39h1.523M37.587 116.08h1.523M37.587 110.77h2.543"/></g><g transform="translate(-53.796 -10.81)"><use x="71.386" y="125.583" width="100%" height="100%" xlink:href="#c"/><use x="78.06" y="125.583" width="100%" height="100%" xlink:href="#d"/><use x="81.394" y="125.583" width="100%" height="100%" xlink:href="#i"/></g><g fill="none" stroke="#636363" stroke-miterlimit="3.25" stroke-width=".5"><path d="M37.587 105.47h1.523M37.587 100.16h1.523M37.587 94.85h1.523M37.587 89.54h1.523M37.587 84.24h2.543"/></g><g transform="translate(-53.796 -10.81)"><use x="71.386" y="99.046" width="100%" height="100%" xlink:href="#c"/><use x="78.06" y="99.046" width="100%" height="100%" xlink:href="#d"/><use x="81.394" y="99.046" width="100%" height="100%" xlink:href="#e"/></g><g fill="none" stroke="#636363" stroke-miterlimit="3.25" stroke-width=".5"><path d="M37.587 78.928h1.523M37.587 73.62h1.523M37.587 68.315h1.523M37.587 63.006h1.523M37.587 57.698h2.543"/></g><g transform="translate(-53.796 -10.81)"><use x="71.386" y="72.509" width="100%" height="100%" xlink:href="#c"/><use x="78.06" y="72.509" width="100%" height="100%" xlink:href="#d"/><use x="81.394" y="72.509" width="100%" height="100%" xlink:href="#j"/></g><g fill="none" stroke="#636363" stroke-miterlimit="3.25" stroke-width=".5"><path d="M37.587 52.393h1.523M37.587 47.085h1.523M37.587 41.776h1.523M37.587 36.471h1.523M37.587 31.163h2.543"/></g><g transform="translate(-53.796 -10.81)"><use x="71.386" y="45.972" width="100%" height="100%" xlink:href="#c"/><use x="78.06" y="45.972" width="100%" height="100%" xlink:href="#d"/><use x="81.394" y="45.972" width="100%" height="100%" xlink:href="#f"/></g><g fill="none" stroke="#636363" stroke-miterlimit="3.25" stroke-width=".5"><path d="M37.587 25.854h1.523M37.587 20.545h1.523M37.587 15.241h1.523M37.587 9.932h1.523M37.587 4.624h2.543"/></g><g transform="translate(-53.796 -10.81)"><use x="71.386" y="19.435" width="100%" height="100%" xlink:href="#c"/><use x="78.06" y="19.435" width="100%" height="100%" xlink:href="#d"/><use x="81.394" y="19.435" width="100%" height="100%" xlink:href="#k"/></g><g fill="none" stroke="#636363" stroke-miterlimit="3.25" stroke-width=".1"><path d="M41.887 4.624v2.148M83.097 4.624v2.148M124.327 4.624v2.148M165.547 4.624v2.148M206.767 4.624v2.148M247.987 4.624v2.148M52.187 4.624v1.527M62.497 4.624v1.527M72.797 4.624v1.527M93.407 4.624v1.527M103.717 4.624v1.527M114.017 4.624v1.527M134.627 4.624v1.527M144.937 4.624v1.527M155.237 4.624v1.527M175.847 4.624v1.527M186.157 4.624v1.527M196.457 4.624v1.527M217.067 4.624v1.527M227.377 4.624v1.527M237.677 4.624v1.527M252.277 137.31h-2.148M252.277 110.77h-2.148M252.277 84.24h-2.148M252.277 57.698h-2.148M252.277 31.163h-2.148M252.277 4.624h-2.148M252.277 132h-1.523M252.277 126.69h-1.523M252.277 121.39h-1.523M252.277 116.08h-1.523M252.277 105.47h-1.523M252.277 100.16h-1.523M252.277 94.85h-1.523M252.277 89.54h-1.523M252.277 78.928h-1.523M252.277 73.62h-1.523M252.277 68.315h-1.523M252.277 63.006h-1.523M252.277 52.393h-1.523M252.277 47.085h-1.523M252.277 41.776h-1.523M252.277 36.471h-1.523M252.277 25.854h-1.523M252.277 20.545h-1.523M252.277 15.241h-1.523M252.277 9.932h-1.523"/></g><g transform="translate(-53.796 -10.81)"><use x="195.73" y="182.12" width="100%" height="100%" xlink:href="#l"/><use x="62.386" y="88.778" width="100%" height="100%" xlink:href="#m"/><use x="64.386" y="80.778" width="100%" height="100%" xlink:href="#n"/></g><path d="M124.327 105.63V95.212" fill="none" stroke="#000" stroke-miterlimit="3.25"/><g transform="translate(-53.796 -10.81)"><path d="M180.383 115.65l-.254.125-.617.277-.371.145-.375.129-.348.086-.293.03-.265-.03-.344-.086-.387-.13-.394-.144-.676-.277-.285-.125 2.351 8.59zM175.863 106.82l.258-.125.617-.273.371-.149.375-.125.348-.09.293-.03.265.03.344.09.387.125.394.149.672.273.285.125-2.347-8.586z" stroke="#000" stroke-linecap="square" stroke-miterlimit="3.25" stroke-width=".03"/><use x="288.781" y="33.069" width="100%" height="100%" xlink:href="#o"/><use x="296.111" y="35.069" width="100%" height="100%" xlink:href="#p"/></g><g clip-path="url(#q)" transform="translate(-53.796 -10.81)"><path d="M383.183 15.434h.316l.063.004h.758l.129.004h.316l.063.004h.125l.253.004h.125l.13.004.25.003h.128l.125.004.254.004h.125l.13.004.25.004.507.012.066.004h.07l.41.011.548.02h.07l.066.004.14.004.274.007.547.024h.07l.067.004.137.004.273.011.55.024 1.095.055.066.003.063.004.129.008.257.012 1.536.094.125.007.128.012.258.016.512.035 1.023.078.125.008.125.012.25.02.504.042 1.004.086.063.008.062.004.375.035.504.047 1.004.101.133.016.136.012.274.03.543.06 1.09.125 2.176.269.066.008.062.008.13.015.253.035.508.067 1.016.144 2.03.305 4.407.746 4.324.852 4.031.898 4.375 1.094 4.082 1.125 4.004 1.203 4.344 1.422 4.055 1.434 4.39 1.668 4.313 1.753 4.023 1.739 4.364 2.004 4.07 1.976 4.41 2.258 4.332 2.336 4.043 2.285 4.379 2.594 4.094 2.527 4.008 2.582 4.351 2.914 4.059 2.825 4.402 3.18 4.32 3.238 4.028 3.125 4.37 3.503 4.079 3.38 4 3.41 4.336 3.816 4.05 3.668 4.387 4.09 4.098 3.93 4.02 3.953 4.355 4.398 4.07 4.219 4.406 4.683 4.329 4.715 4.035 4.508 4.379 5 4.086 4.777 4.003 4.786 4.348 5.304 4.055 5.055.07.09.07.086.141.18.285.359.567.715 1.128 1.437.075.09.492.629.566.726.14.18.145.18.282.363.07.094.07.09.14.183.075.09.14.18.071.093" fill="none" stroke="#5c7fb3" stroke-linecap="square" stroke-miterlimit="3.25" stroke-width="1.6"/></g><g clip-path="url(#r)" transform="translate(-53.796 -10.81)"><path d="M383.183 15.434h.316l.063.004h.758l.129.004h.316l.063.004h.125l.253.004h.125l.13.004.25.003h.128l.125.004.254.004h.063l.062.004h.13l.25.008.507.012h.066l.07.004.41.011.548.02h.07l.066.004.14.004.274.011.547.02.07.004.067.004.137.007.273.012.55.027 1.095.06.066.003.063.004.386.023.512.035 1.023.075.125.007.13.012.257.02.512.043 1.023.093.063.004.062.008.375.035.504.051 1.004.11.125.015.125.012.25.031.504.059 1.004.129.066.007.067.012.136.016.274.039.543.078 1.09.16.066.012.07.012.137.02.27.042.546.09 1.086.191.067.012.062.012.13.023.76.14 1.016.204.125.023.13.028.253.054.508.106 1.016.226.07.016.066.02.137.03.277.063.551.133 1.102.277 2.203.606.133.039.136.039.809.246 1.082.34 2.164.738.25.094.254.09.504.187 1.008.391 2.015.832.07.031.067.031.137.06.82.362 1.094.508 2.187 1.09.063.035.066.035.125.067.258.133.508.277 1.023.566 2.04 1.211 4.003 2.68 4.344 3.426 4.055 3.754 4.39 4.761 4.313 5.489 4.023 5.957 4.364 7.527 4.07 8.183 4.41 10.344 4.332 11.914 4.043 12.965 4.379 16.441 4.094 18.02 1.973 10.16" fill="none" stroke="#e19c23" stroke-linecap="square" stroke-miterlimit="3.25" stroke-width="1.6"/></g><g fill="none" stroke="#636363" stroke-miterlimit="3.25" stroke-width=".5"><g stroke-linecap="square"><path d="M539.777 137.31h-214.69M325.087 137.31V4.62M325.087 4.624h214.69M539.777 4.624v132.69"/></g><path d="M329.387 137.31v-2.543"/></g><g transform="translate(-53.796 -10.81)"><use x="374.68" y="162.12" width="100%" height="100%" xlink:href="#c"/><use x="381.354" y="162.12" width="100%" height="100%" xlink:href="#d"/><use x="384.688" y="162.12" width="100%" height="100%" xlink:href="#c"/></g><g fill="none" stroke="#636363" stroke-miterlimit="3.25" stroke-width=".5"><path d="M339.687 137.31v-1.527M349.997 137.31v-1.527M360.297 137.31v-1.527M370.597 137.31v-2.543"/></g><g transform="translate(-53.796 -10.81)"><use x="415.9" y="162.12" width="100%" height="100%" xlink:href="#c"/><use x="422.574" y="162.12" width="100%" height="100%" xlink:href="#d"/><use x="425.908" y="162.12" width="100%" height="100%" xlink:href="#e"/></g><g fill="none" stroke="#636363" stroke-miterlimit="3.25" stroke-width=".5"><path d="M380.907 137.31v-1.527M391.217 137.31v-1.527M401.517 137.31v-1.527M411.827 137.31v-2.543"/></g><g transform="translate(-53.796 -10.81)"><use x="457.12" y="162.12" width="100%" height="100%" xlink:href="#c"/><use x="463.794" y="162.12" width="100%" height="100%" xlink:href="#d"/><use x="467.128" y="162.12" width="100%" height="100%" xlink:href="#f"/></g><g fill="none" stroke="#636363" stroke-miterlimit="3.25" stroke-width=".5"><path d="M422.127 137.31v-1.527M432.437 137.31v-1.527M442.737 137.31v-1.527M453.047 137.31v-2.543"/></g><g transform="translate(-53.796 -10.81)"><use x="498.34" y="162.12" width="100%" height="100%" xlink:href="#c"/><use x="505.014" y="162.12" width="100%" height="100%" xlink:href="#d"/><use x="508.348" y="162.12" width="100%" height="100%" xlink:href="#g"/></g><g fill="none" stroke="#636363" stroke-miterlimit="3.25" stroke-width=".5"><path d="M463.347 137.31v-1.527M473.657 137.31v-1.527M483.957 137.31v-1.527M494.267 137.31v-2.543"/></g><g transform="translate(-53.796 -10.81)"><use x="539.561" y="162.12" width="100%" height="100%" xlink:href="#c"/><use x="546.235" y="162.12" width="100%" height="100%" xlink:href="#d"/><use x="549.568" y="162.12" width="100%" height="100%" xlink:href="#h"/></g><g fill="none" stroke="#636363" stroke-miterlimit="3.25" stroke-width=".5"><path d="M504.567 137.31v-1.527M514.877 137.31v-1.527M525.177 137.31v-1.527M535.487 137.31v-2.543"/></g><g transform="translate(-53.796 -10.81)"><use x="580.781" y="162.12" width="100%" height="100%" xlink:href="#i"/><use x="587.455" y="162.12" width="100%" height="100%" xlink:href="#d"/><use x="590.789" y="162.12" width="100%" height="100%" xlink:href="#c"/></g><path d="M325.087 137.31h2.543" fill="none" stroke="#636363" stroke-miterlimit="3.25" stroke-width=".5"/><g transform="translate(-53.796 -10.81)"><use x="358.886" y="152.12" width="100%" height="100%" xlink:href="#c"/><use x="365.56" y="152.12" width="100%" height="100%" xlink:href="#d"/><use x="368.894" y="152.12" width="100%" height="100%" xlink:href="#c"/></g><g fill="none" stroke="#636363" stroke-miterlimit="3.25" stroke-width=".5"><path d="M325.087 132h1.523M325.087 126.69h1.523M325.087 121.39h1.523M325.087 116.08h1.523M325.087 110.77h2.543"/></g><g transform="translate(-53.796 -10.81)"><use x="358.886" y="125.583" width="100%" height="100%" xlink:href="#c"/><use x="365.56" y="125.583" width="100%" height="100%" xlink:href="#d"/><use x="368.894" y="125.583" width="100%" height="100%" xlink:href="#i"/></g><g fill="none" stroke="#636363" stroke-miterlimit="3.25" stroke-width=".5"><path d="M325.087 105.47h1.523M325.087 100.16h1.523M325.087 94.85h1.523M325.087 89.54h1.523M325.087 84.24h2.543"/></g><g transform="translate(-53.796 -10.81)"><use x="358.886" y="99.046" width="100%" height="100%" xlink:href="#c"/><use x="365.56" y="99.046" width="100%" height="100%" xlink:href="#d"/><use x="368.894" y="99.046" width="100%" height="100%" xlink:href="#e"/></g><g fill="none" stroke="#636363" stroke-miterlimit="3.25" stroke-width=".5"><path d="M325.087 78.928h1.523M325.087 73.62h1.523M325.087 68.315h1.523M325.087 63.006h1.523M325.087 57.698h2.543"/></g><g transform="translate(-53.796 -10.81)"><use x="358.886" y="72.509" width="100%" height="100%" xlink:href="#c"/><use x="365.56" y="72.509" width="100%" height="100%" xlink:href="#d"/><use x="368.894" y="72.509" width="100%" height="100%" xlink:href="#j"/></g><g fill="none" stroke="#636363" stroke-miterlimit="3.25" stroke-width=".5"><path d="M325.087 52.393h1.523M325.087 47.085h1.523M325.087 41.776h1.523M325.087 36.471h1.523M325.087 31.163h2.543"/></g><g transform="translate(-53.796 -10.81)"><use x="358.886" y="45.972" width="100%" height="100%" xlink:href="#c"/><use x="365.56" y="45.972" width="100%" height="100%" xlink:href="#d"/><use x="368.894" y="45.972" width="100%" height="100%" xlink:href="#f"/></g><g fill="none" stroke="#636363" stroke-miterlimit="3.25" stroke-width=".5"><path d="M325.087 25.854h1.523M325.087 20.545h1.523M325.087 15.241h1.523M325.087 9.932h1.523M325.087 4.624h2.543"/></g><g transform="translate(-53.796 -10.81)"><use x="358.886" y="19.435" width="100%" height="100%" xlink:href="#c"/><use x="365.56" y="19.435" width="100%" height="100%" xlink:href="#d"/><use x="368.894" y="19.435" width="100%" height="100%" xlink:href="#k"/></g><g fill="none" stroke="#636363" stroke-miterlimit="3.25" stroke-width=".1"><path d="M329.387 4.624v2.148M370.597 4.624v2.148M411.827 4.624v2.148M453.047 4.624v2.148M494.267 4.624v2.148M535.487 4.624v2.148M339.687 4.624v1.527M349.997 4.624v1.527M360.297 4.624v1.527M380.907 4.624v1.527M391.217 4.624v1.527M401.517 4.624v1.527M422.127 4.624v1.527M432.437 4.624v1.527M442.737 4.624v1.527M463.347 4.624v1.527M473.657 4.624v1.527M483.957 4.624v1.527M504.567 4.624v1.527M514.877 4.624v1.527M525.177 4.624v1.527M539.777 137.31h-2.148M539.777 110.77h-2.148M539.777 84.24h-2.148M539.777 57.698h-2.148M539.777 31.163h-2.148M539.777 4.624h-2.148M539.777 132h-1.523M539.777 126.69h-1.523M539.777 121.39h-1.523M539.777 116.08h-1.523M539.777 105.47h-1.523M539.777 100.16h-1.523M539.777 94.85h-1.523M539.777 89.54h-1.523M539.777 78.928h-1.523M539.777 73.62h-1.523M539.777 68.315h-1.523M539.777 63.006h-1.523M539.777 52.393h-1.523M539.777 47.085h-1.523M539.777 41.776h-1.523M539.777 36.471h-1.523M539.777 25.854h-1.523M539.777 20.545h-1.523M539.777 15.241h-1.523M539.777 9.932h-1.523"/></g><g transform="translate(-53.796 -10.81)"><use x="483.23" y="182.12" width="100%" height="100%" xlink:href="#l"/><use x="349.886" y="88.778" width="100%" height="100%" xlink:href="#m"/><use x="351.886" y="80.778" width="100%" height="100%" xlink:href="#n"/><use x="576.281" y="33.069" width="100%" height="100%" xlink:href="#o"/><use x="583.611" y="35.069" width="100%" height="100%" xlink:href="#p"/></g></svg>