<svg width="470.16" height="190.6pt" viewBox="0 0 352.625 190.6" xmlns="http://www.w3.org/2000/svg" xmlns:xlink="http://www.w3.org/1999/xlink"><defs><symbol id="a" overflow="visible"><path d="M-.125 2.383l1.8-8.606h.981l-.183.867c.363-.378.687-.64.976-.789.285-.144.59-.218.91-.218a1.9 1.9 0 0 1 1.477.648c.39.43.586 1.05.586 1.856 0 .648-.11 1.238-.32 1.77-.215.534-.48.964-.793 1.284a3.423 3.423 0 0 1-.95.72c-.32.151-.648.226-.984.226-.746 0-1.324-.38-1.734-1.137L.938 2.383zm2.102-4.926c0 .465.03.785.097.965a1.315 1.315 0 0 0 1.254.851c.61 0 1.102-.343 1.477-1.027.375-.687.562-1.387.562-2.101 0-.528-.125-.934-.379-1.223a1.205 1.205 0 0 0-.941-.43c-.27 0-.516.07-.75.215-.23.14-.441.355-.64.637-.196.285-.36.632-.489 1.039-.129.41-.191.77-.191 1.074z"/></symbol><symbol id="b" overflow="visible"><path d="M3.352 0h-.79v-5.04c-.19.18-.44.364-.75.544a5.395 5.395 0 0 1-.831.41v-.766c.44-.207.828-.46 1.16-.757.332-.293.566-.582.703-.86h.508z"/></symbol><symbol id="c" overflow="visible"><path d="M4.531-.762V0H.273a1.384 1.384 0 0 1 .09-.55c.11-.29.285-.575.524-.856s.582-.606 1.035-.977c.7-.574 1.172-1.027 1.418-1.363.246-.336.371-.652.371-.953 0-.313-.113-.578-.34-.793-.223-.215-.515-.32-.875-.32-.379 0-.683.113-.914.34-.23.23-.344.546-.348.949l-.812-.082c.055-.606.266-1.07.629-1.387.363-.317.851-.477 1.465-.477.617 0 1.105.172 1.464.516s.543.765.543 1.273c0 .258-.054.512-.16.758-.105.25-.281.512-.523.79-.246.273-.653.651-1.223 1.132-.473.398-.777.668-.914.812a2.87 2.87 0 0 0-.332.426z"/></symbol><symbol id="d" overflow="visible"><path d="M.379-1.7l.789-.105c.09.446.246.77.465.97.219.194.484.296.797.296.37 0 .687-.129.941-.387.258-.258.387-.578.387-.96 0-.364-.117-.66-.356-.9-.238-.234-.539-.35-.906-.35-.148 0-.336.027-.558.085l.09-.691c.05.004.093.008.124.008.336 0 .641-.09.91-.266s.407-.445.407-.812a.96.96 0 0 0-.297-.72c-.195-.19-.45-.288-.758-.288-.309 0-.566.097-.77.293-.206.191-.34.48-.394.87l-.793-.14c.098-.531.316-.941.66-1.234s.77-.438 1.278-.438c.351 0 .675.074.972.227.297.152.52.355.68.617.156.262.234.54.234.832 0 .277-.074.531-.226.758-.149.23-.368.41-.664.547.382.086.68.27.89.547s.317.62.317 1.039c0 .562-.207 1.039-.618 1.43-.41.39-.925.585-1.554.585-.567 0-1.035-.168-1.41-.504C.644-.727.43-1.164.379-1.699z"/></symbol><symbol id="e" overflow="visible"><path d="M.5-2.25l1.105-.094c.083.54.274.946.57 1.215.302.273.661.41 1.083.41.508 0 .937-.195 1.289-.578s.527-.89.527-1.523c0-.602-.168-1.075-.508-1.422-.335-.348-.777-.524-1.324-.524-.34 0-.648.078-.922.235a1.74 1.74 0 0 0-.644.601l-.988-.133.828-4.41h4.273v1.008H2.36L1.9-5.156c.515-.36 1.054-.54 1.624-.54.75 0 1.383.258 1.899.782.515.52.773 1.187.773 2 0 .777-.226 1.453-.68 2.015C4.966-.203 4.212.148 3.259.148c-.781 0-1.418-.218-1.914-.656C.85-.945.57-1.528.5-2.25z"/></symbol><symbol id="f" overflow="visible"><path d="M4.469 0H3.414v-6.719a5.488 5.488 0 0 1-.996.727 7.154 7.154 0 0 1-1.113.543v-1.02a6.295 6.295 0 0 0 1.547-1.008c.441-.394.757-.777.937-1.148h.68z"/></symbol><symbol id="g" overflow="visible"><path d="M.5-4.234C.5-5.25.602-6.07.813-6.688c.207-.62.519-1.097.93-1.433.413-.336.929-.504 1.554-.504.46 0 .867.094 1.215.277.347.188.636.453.863.805.227.348.402.773.531 1.277.13.5.196 1.18.196 2.032 0 1.007-.106 1.82-.313 2.437-.207.621-.516 1.098-.93 1.438-.41.335-.93.507-1.562.507-.828 0-1.477-.297-1.95-.89C.782-1.457.5-2.625.5-4.234zm1.082 0c0 1.41.164 2.347.496 2.812.328.469.734.703 1.219.703s.894-.234 1.223-.703c.332-.469.496-1.406.496-2.812 0-1.414-.164-2.356-.496-2.82-.329-.466-.739-.696-1.23-.696-.485 0-.876.203-1.165.613-.363.524-.543 1.489-.543 2.903z"/></symbol><symbol id="h" overflow="visible"><path d="M6.04-1.016V0H.362C.355-.254.398-.5.484-.734c.145-.387.38-.766.696-1.141.32-.375.781-.809 1.383-1.3.933-.766 1.562-1.372 1.89-1.821.328-.445.492-.871.492-1.27 0-.418-.148-.77-.449-1.054-.297-.29-.687-.43-1.168-.43-.508 0-.914.148-1.219.453s-.46.727-.46 1.266l-1.087-.11c.075-.808.352-1.425.836-1.847.485-.426 1.137-.637 1.953-.637.825 0 1.477.227 1.957.687a2.25 2.25 0 0 1 .723 1.696c0 .343-.07.683-.21 1.015-.141.332-.376.68-.704 1.047-.324.367-.867.875-1.625 1.516-.633.531-1.039.89-1.219 1.078-.18.191-.328.383-.445.57z"/></symbol><symbol id="i" overflow="visible"><path d="M.504-2.266l1.055-.14c.12.597.328 1.027.617 1.289.293.266.644.398 1.066.398.496 0 .914-.172 1.254-.515.344-.344.512-.774.512-1.282 0-.484-.156-.882-.473-1.195-.316-.316-.719-.472-1.207-.472-.2 0-.445.039-.742.117l.117-.926c.07.008.125.012.168.012.45 0 .856-.118 1.215-.352.36-.234.539-.598.539-1.082 0-.387-.133-.71-.395-.96-.261-.255-.597-.384-1.011-.384-.41 0-.754.13-1.028.387-.273.258-.449.645-.527 1.16L.61-6.398c.13-.707.422-1.254.88-1.645.456-.386 1.027-.582 1.706-.582.47 0 .899.102 1.293.301.395.203.696.477.907.824.207.348.312.719.312 1.11 0 .37-.098.707-.3 1.011-.2.305-.493.547-.884.727.508.117.903.36 1.184.73.281.368.422.828.422 1.383 0 .75-.273 1.387-.82 1.91-.547.52-1.239.782-2.075.782-.753 0-1.378-.223-1.878-.676C.859-.973.574-1.554.504-2.265z"/></symbol><symbol id="j" overflow="visible"><path d="M1.09 0v-1.203h1.199V0z"/></symbol><symbol id="k" overflow="visible"><path d="M3.879 0v-2.055H.152v-.968L4.07-8.59h.864v5.567h1.16v.968h-1.16V0zm0-3.023v-3.875L1.187-3.023z"/></symbol><symbol id="l" overflow="visible"><path d="M5.969-6.484l-1.047.078c-.094-.414-.227-.711-.399-.899a1.398 1.398 0 0 0-1.054-.453c-.336 0-.633.094-.883.281-.332.243-.594.594-.79 1.063-.19.465-.288 1.125-.296 1.984.254-.386.563-.672.93-.86a2.513 2.513 0 0 1 1.156-.28c.703 0 1.3.258 1.797.773.492.52.742 1.188.742 2.008 0 .539-.117 1.039-.352 1.504-.23.46-.55.816-.957 1.062a2.617 2.617 0 0 1-1.382.371c-.88 0-1.598-.324-2.153-.972C.727-1.47.453-2.535.453-4.02c0-1.66.305-2.867.918-3.62.535-.657 1.254-.985 2.16-.985.676 0 1.23.187 1.664.57.43.38.688.899.774 1.57zM1.664-2.781c0 .363.078.71.23 1.039.157.332.372.586.649.762.277.171.566.261.871.261.445 0 .828-.18 1.148-.539.32-.36.485-.851.485-1.469 0-.593-.16-1.058-.477-1.402a1.565 1.565 0 0 0-1.195-.512c-.477 0-.883.172-1.21.512-.333.344-.5.793-.5 1.348z"/></symbol><symbol id="m" overflow="visible"><path d="M2.121-4.656c-.437-.16-.762-.39-.973-.688C.938-5.64.832-5.996.832-6.41c0-.625.223-1.152.676-1.574.449-.426 1.047-.64 1.789-.64.75 0 1.355.218 1.812.651.457.438.688.965.688 1.59 0 .399-.106.746-.316 1.043-.208.293-.528.52-.95.684.528.172.926.445 1.203.828.274.383.414.844.414 1.375a2.47 2.47 0 0 1-.78 1.852c-.52.5-1.204.75-2.052.75s-1.53-.254-2.05-.754c-.52-.504-.782-1.13-.782-1.88 0-.558.145-1.027.426-1.402.285-.378.688-.636 1.211-.77zm-.21-1.79c0 .407.128.739.394.997.261.258.601.387 1.015.387.407 0 .742-.13 1-.383.262-.258.39-.57.39-.942 0-.386-.132-.71-.401-.976a1.364 1.364 0 0 0-.997-.395c-.402 0-.738.13-1.003.387a1.245 1.245 0 0 0-.399.926zm-.34 3.97c0 .3.07.59.214.87.14.282.356.5.637.653.281.156.582.234.906.234.504 0 .922-.164 1.25-.488s.492-.738.492-1.238c0-.508-.172-.926-.507-1.258-.34-.332-.762-.5-1.27-.5-.496 0-.906.164-1.234.492-.325.328-.489.742-.489 1.235z"/></symbol></defs><g fill="none" stroke-miterlimit="3.25"><g stroke-linecap="square" stroke-width="1.6"><path d="M19.5 79.027l.09-.277.086-.274.18-.55.351-1.09.707-2.156 1.418-4.168.09-.254.086-.254.176-.504.355-.996.707-1.942 1.418-3.683.094-.238.098-.239.19-.468.384-.922.77-1.774.093-.215.098-.214.191-.422.383-.82.77-1.567.093-.188.098-.183.191-.367.383-.715.766-1.336.097-.156.098-.16.191-.305.383-.594.766-1.094.09-.12.09-.118.18-.23.359-.438.18-.21.179-.2.355-.383.09-.094.09-.09.18-.171.36-.325.089-.078.09-.074.176-.144.359-.27.09-.063.27-.175.09-.055.269-.152.086-.047.09-.047.179-.086.18-.078.27-.106.09-.027.089-.031.09-.028.27-.07.085-.02.27-.046.18-.024.179-.015.09-.004.086-.004h.175l.09.004.086.004.09.007.086.008.09.008.086.012.09.015.085.016.09.016.086.02.09.019.176.047.085.027.09.027.172.063.09.031.086.035.176.078.09.04.085.042.176.09.352.2.09.054.085.059.176.117.352.258.09.07.085.07.176.149.352.316.086.082.09.086.175.172.352.375.703.824.187.242.192.254.383.528.761 1.148.094.152.098.153.187.316.383.653.762 1.398.094.184.097.183.188.375.383.774.761 1.632 1.524 3.602.18.445.175.457.356.922.71 1.91 1.426 4.059 2.844 8.941 6.164 21.508.094.336.098.336.187.672.379 1.34.758 2.668 1.512 5.254 3.027 9.996.086.281.09.278.175.55.356 1.098.703 2.148 1.414 4.121.086.25.09.246.176.497.351.972.707 1.903 1.41 3.605.098.234.094.235.191.46.383.91.766 1.763 1.53 3.285.099.195.093.195.192.383.382.754.766 1.445 1.531 2.672.09.149.09.144.176.29.359.566.715 1.09.09.128.086.133.18.258.359.508.714.969.086.117.09.117.18.23.355.45.715.863 1.43 1.57.351.352.352.344.7.656.085.078.09.078.172.152.351.301.7.57.09.067.085.07.176.133.352.258.699.492.086.059.09.058.175.117.348.223.703.418.188.11.191.105.379.203.762.375.093.047.094.043.191.086.38.164.761.305.094.039.097.035.188.066.379.133.098.031.093.028.192.062.379.113.093.028.098.027.187.05.383.098.188.047.191.043.38.082.089.02.09.015.175.036.356.062.086.016.09.011.175.028.356.05.09.012.09.008.175.024.09.008.086.011.18.016.086.008.27.023.085.004.09.008.176.008.09.008.09.004.085.004.18.008h.086l.09.004h.09l.089.004h.617l.09-.004h.09l.086-.004h.09l.18-.008.085-.004.09-.004.09-.008.086-.004.09-.004.09-.008.085-.008.09-.004.176-.015.097-.008.098-.012.191-.02.094-.011.098-.008.191-.027.098-.012.094-.012.195-.027.383-.063.098-.015.093-.016.192-.035.386-.078.094-.02.098-.02.191-.042.387-.094.094-.023.097-.028.192-.05.382-.11.196-.054.191-.059.383-.125.098-.035.093-.031.196-.07.383-.141.77-.313.093-.039.093-.043.188-.082.379-.176.754-.375.187-.101.192-.102.375-.21.754-.454.097-.059.094-.058.187-.121.38-.254.753-.531 1.508-1.2.09-.078.086-.074.176-.156.351-.317.707-.664.086-.085.09-.086.527-.54.703-.753.086-.098.09-.098.176-.199.351-.41.704-.852 1.41-1.863.187-.266.192-.273.382-.559.762-1.168 1.527-2.547.098-.171.094-.168.191-.344.383-.703.762-1.457 1.527-3.16.09-.196.086-.195.18-.395.355-.804.715-1.66 1.422-3.544.09-.234.09-.23.179-.47.355-.952.711-1.965 1.426-4.156.098-.29.094-.296.195-.59.387-1.203.77-2.465 1.542-5.187 3.09-11.305 6.062-24.535.09-.368.086-.363.18-.734.351-1.457.707-2.91 1.415-5.747.09-.355.09-.352.175-.707.352-1.406.707-2.773 1.414-5.383.097-.356.094-.355.191-.703.387-1.395.766-2.722 1.531-5.149.098-.308.093-.305.192-.605.387-1.196.765-2.297 1.531-4.226.09-.23.27-.68.359-.887.715-1.68.09-.203.09-.2.175-.394.36-.77.714-1.44.18-.344.18-.332.36-.645.714-1.2.18-.28.176-.274.359-.52.715-.952.09-.106.085-.105.176-.207.352-.391.086-.094.265-.265.352-.332.086-.079.086-.074.175-.148.09-.07.086-.067.176-.133.09-.062.086-.059.175-.117.352-.211.086-.047.09-.047.175-.086.086-.039.09-.039.172-.074.09-.031.086-.032.09-.027.085-.027.09-.028.086-.023.09-.02.086-.02.09-.019.172-.03.09-.013.085-.011.09-.008.086-.004.09-.008h.086l.09-.004h.085l.09.004.086.004.086.008.09.008.086.008.097.015.188.031.098.02.093.023.098.024.094.023.093.032.098.027.094.035.191.07.094.04.094.042.191.086.098.051.093.047.192.11.093.054.094.059.192.125.093.062.098.07.187.141.383.309.094.082.098.082.187.175.383.38.094.097.097.102.188.21.383.446.187.234.192.246.382.512.758 1.133.18.281.176.29.355.605.711 1.293.09.168.09.171.175.352.356.719.71 1.523.09.2.087.203.18.406.355.832.71 1.754 1.419 3.836.195.554.191.563.383 1.144.774 2.38 1.539 5.112 3.078 11.473.094.375.097.375.188.758.379 1.528.754 3.101 1.511 6.38 3.024 13.198 5.64 24.227.098.39.094.387.191.77.383 1.527.766 3 1.527 5.742.098.348.093.344.192.687.382 1.356.766 2.637 1.527 4.972.18.555.176.547.36 1.078.71 2.09 1.43 3.906.18.46.175.458.36.898.71 1.73 1.43 3.2.086.188.09.183.172.363.352.715.699 1.367 1.398 2.524.09.144.086.149.176.289.347.57.7 1.09 1.402 1.984.094.13.093.124.192.246.379.48.757.915.098.11.094.109.191.215.38.417.757.797.094.094.097.094.188.187.379.364.761.687 1.52 1.23.086.067.09.066.175.13.356.253.707.48.09.055.09.059.175.113.356.219.707.414.09.05.086.048.18.097.35.188.712.36 1.414.636.098.04.093.038.196.074.382.153.766.277.098.035.097.031.192.067.383.125.77.23.093.028.097.027.192.055.383.101.77.192.093.023.098.023.19.043.384.082.77.157.179.03.18.036.355.063.09.015.09.012.18.031.359.055.09.011.09.016.18.023.359.051.714.086.09.012.09.008.18.02.36.035.179.015.176.016.539.047.18.011.09.004.09.008.179.012.09.004.09.008.18.008.355.02.09.004.085.004.176.004.09.004.086.004.176.004.09.004.085.004h.09l.086.004h.09l.086.004h.176l.09.004h.261l.09.004h.438l.09-.004h.35l.087-.004h.09l.086-.004h.09l.085-.004h.09l.086-.004.176-.004.09-.004.086-.004.175-.004.09-.004.086-.004.176-.008.09-.004.086-.004.175-.012.09-.004.086-.004.176-.012.09-.004.086-.008.176-.012.351-.027.094-.008.097-.008.192-.015.379-.036.097-.008.094-.008.191-.02.38-.042.097-.012.094-.012.574-.07.762-.11.093-.01.098-.016.191-.032.38-.062.761-.14.098-.016.093-.02.575-.117.761-.172.09-.023.086-.02.18-.043.355-.09.711-.191.09-.027.09-.024.176-.05.355-.11.711-.227.09-.027.09-.031.18-.059.355-.125.71-.265 1.423-.594.195-.086.191-.09.387-.18.77-.386.097-.05.094-.052.195-.105.387-.211.77-.45.097-.058.094-.059.195-.12.383-.247.773-.515 1.543-1.153.188-.156.191-.152.38-.32.753-.673.098-.085.094-.086.187-.18.379-.363.758-.766.093-.098.094-.101.192-.203.378-.414.758-.871 1.512-1.91.09-.122.09-.117.175-.242.352-.496.707-1.035 1.414-2.247.086-.148.09-.152.176-.301.351-.617.707-1.29 1.414-2.785.094-.199.098-.199.191-.406.383-.828.766-1.727 1.53-3.734.099-.246.093-.247.192-.5.382-1.02.766-2.116 1.531-4.54.09-.277.27-.843.355-1.141.715-2.356 1.43-4.984 2.863-11.035.086-.36.086-.363.176-.722.351-1.465.7-2.98 1.402-6.16 2.804-12.954 6.086-28.922.086-.406.09-.41.176-.813.355-1.62.711-3.192 1.418-6.176.09-.379.09-.375.176-.742.355-1.477.711-2.886 1.418-5.489.098-.367.101-.367.196-.727.398-1.43.79-2.757.1-.336.098-.332.2-.66.394-1.293.793-2.485.098-.3.101-.297.196-.59.398-1.156.793-2.2.195-.53.2-.52.402-1.012.102-.246.097-.246.2-.484.097-.239.102-.238.097-.234.098-.23" stroke="#eb6133"/><path d="M19.5 156.97l.09-.012.086-.016.18-.027.085-.016.09-.012.176-.035.18-.031.175-.035.352-.078.09-.024.09-.02.176-.046.355-.094.707-.219.09-.027.086-.031.176-.063.355-.129.707-.289.18-.078.176-.078.355-.168.707-.36.094-.054.097-.05.192-.11.383-.223.77-.48.093-.063.098-.062.191-.133.383-.27.77-.574.093-.078.098-.074.191-.156.383-.32.766-.676 1.535-1.516.09-.094.27-.293.359-.394.714-.836 1.434-1.824.18-.242.18-.247.359-.503.715-1.047 1.433-2.27.086-.148.09-.149.176-.297.351-.605.703-1.258 1.403-2.695.09-.18.085-.176.176-.36.352-.726.703-1.5 1.406-3.187.188-.453.19-.457.384-.926.761-1.906 1.524-4.031 3.047-8.895.09-.277.09-.274.175-.554.356-1.118.71-2.273 1.426-4.68 2.844-9.777 6.164-21.625.094-.32.098-.32.187-.637.38-1.266.757-2.488 1.512-4.79.187-.577.191-.575.38-1.132.753-2.204 1.516-4.128.086-.227.09-.227.175-.453.356-.883.703-1.695.09-.207.086-.203.18-.402.35-.79.708-1.5.086-.18.265-.53.352-.684.707-1.289.09-.152.086-.153.176-.3.355-.575.703-1.066.098-.137.094-.133.191-.261.383-.496.097-.122.094-.117.192-.226.382-.43.098-.102.094-.097.191-.192.383-.359.098-.086.093-.082.192-.156.383-.293.097-.067.094-.062.191-.125.098-.055.094-.058.191-.106.098-.047.094-.047.191-.09.098-.038.093-.04.192-.066.098-.031.093-.031.094-.028.098-.023.093-.024.098-.02.094-.019.097-.015.094-.012.098-.012.094-.008.097-.007.094-.004.098-.004h.093l.098.004.18.008.086.007.27.035.089.016.09.02.09.015.09.024.085.023.09.024.09.027.27.094.09.035.085.039.18.078.18.086.18.098.085.05.09.051.18.11.359.246.086.066.09.066.18.141.355.309.09.078.27.258.355.367.09.094.09.101.179.2.355.429.715.941.09.125.086.125.176.258.351.535.7 1.153.085.152.09.156.172.313.352.644.699 1.375.09.18.085.18.176.367.352.754.699 1.586 1.402 3.472.188.5.191.508.38 1.04.76 2.152 1.52 4.613 3.04 10.258.18.633.175.636.355 1.286.707 2.601 1.418 5.32 2.836 10.903.196.742.191.742.383 1.48.77 2.954 1.539 5.832 3.074 11.148.093.324.094.328.188.648.379 1.29.753 2.523 1.508 4.82.098.293.281.867.38 1.137.753 2.21 1.508 4.173.09.234.085.23.176.462.352.902.707 1.754 1.406 3.289.086.195.09.196.176.382.351.758.703 1.461 1.41 2.715.094.172.094.176.191.34.383.667.762 1.282.097.156.094.152.192.305.382.594.762 1.136.098.137.094.137.19.265.384.528.761 1 1.528 1.812.09.098.085.098.18.191.356.375.714.719.086.086.09.086.18.167.355.329.711.629.36.296.355.286.711.543 1.426.972.098.063.093.058.196.117.386.23.77.43.097.051.098.047.192.102.386.191.77.356.098.043.097.039.192.082.386.156.774.29.094.034.097.032.192.066.386.125.774.227.187.054.192.047.379.094.187.047.191.043.38.082.093.02.098.015.187.039.38.066.093.016.098.016.187.03.379.055.094.012.097.016.188.023.094.008.097.012.188.023.094.008.097.012.281.023.098.008.281.024.098.004.094.008.094.004.093.008.098.004.281.011.098.004.094.004h.093l.094.004h.098l.093.004h.715l.086-.004h.09l.086-.004h.09l.09-.004.085-.004.18-.008.086-.004.09-.004.086-.004.18-.011.085-.004.09-.008.176-.012.09-.008.085-.008.18-.016.352-.035.09-.008.09-.011.175-.02.352-.047.18-.023.175-.028.352-.058.09-.016.09-.011.175-.036.352-.066.707-.152.097-.02.094-.023.191-.047.387-.098.094-.027.098-.027.191-.051.383-.114.094-.027.097-.031.192-.059.382-.129.766-.273.098-.04.093-.034.192-.075.387-.16.765-.336.094-.043.098-.047.191-.09.383-.19.765-.403.36-.203.36-.207.714-.446.18-.117.176-.117.359-.242.715-.512.09-.066.09-.07.179-.133.36-.282.714-.59 1.43-1.3.09-.086.261-.262.352-.355.703-.746 1.402-1.637.086-.11.09-.109.176-.222.348-.454.703-.945 1.402-2.059.098-.144.094-.152.19-.301.38-.613.762-1.286 1.523-2.8.094-.188.097-.184.188-.378.383-.77.761-1.602 1.52-3.46.09-.211.09-.215.175-.43.356-.879.71-1.812 1.423-3.871.09-.254.085-.254.18-.512.355-1.04.711-2.136 1.418-4.523.196-.64.191-.641.383-1.305.773-2.68 1.54-5.625 3.078-12.207 6.046-26.184.09-.387.086-.386.18-.774.351-1.539.704-3.066 1.41-6.028.09-.37.085-.372.176-.738.356-1.469.703-2.894 1.41-5.594.098-.367.093-.367.192-.731.383-1.441.765-2.813 1.528-5.297.097-.316.094-.317.191-.62.383-1.223.766-2.356 1.527-4.324.18-.469.176-.465.359-.902.71-1.719.09-.207.27-.61.356-.784.715-1.48.18-.352.175-.344.36-.664.71-1.239.18-.289.18-.285.355-.543.715-.996.086-.113.09-.113.172-.22.351-.413.086-.098.09-.098.172-.19.352-.36.085-.082.09-.086.176-.16.348-.301.086-.07.09-.07.175-.134.348-.242.09-.058.086-.055.175-.102.086-.05.09-.047.172-.09.09-.043.086-.04.175-.077.086-.035.09-.036.172-.058.09-.031.086-.028.09-.023.085-.024.086-.02.09-.019.086-.02.09-.015.086-.016.086-.011.09-.012.171-.016.09-.007.086-.004h.277l.098.004.094.003.093.008.094.012.098.012.093.011.094.016.098.02.093.02.188.046.098.023.187.059.098.031.093.035.192.075.094.039.093.043.192.09.093.046.094.051.191.11.38.234.093.066.098.067.187.136.38.301.097.082.093.082.192.172.379.363.187.196.192.203.379.43.761.957.086.117.09.12.176.25.355.52.707 1.118.18.297.176.304.355.63.707 1.343.09.176.086.18.18.359.351.742.711 1.562 1.414 3.465.098.25.094.254.195.512.383 1.047.766 2.187 1.539 4.75.093.313.098.316.191.637.383 1.293.77 2.672 1.535 5.68.18.687.18.7.355 1.405.719 2.875 1.433 5.985 2.867 12.68 5.625 25.84.094.43.098.425.191.856.38 1.703.76 3.363 1.528 6.527.094.399.097.398.192.79.379 1.562.762 3.062 1.527 5.84.09.328.086.328.18.649.355 1.281.71 2.496 1.423 4.707.09.281.27.832.355 1.094.71 2.114 1.422 3.937.098.25.098.254.191.496.387.973.77 1.867.097.227.094.226.195.441.387.868.77 1.66.097.2.093.198.196.395.383.765.773 1.465 1.543 2.66.094.153.093.148.192.297.379.582.754 1.102.097.133.094.132.188.258.378.508.758.96.094.118.094.113.191.227.379.437.758.836 1.512 1.496.18.165.175.156.352.308.707.582.09.07.085.071.176.137.356.27.707.507.086.063.09.058.175.121.352.23.707.442 1.414.79.094.05.097.047.192.098.383.187.765.352.094.043.098.043.191.082.383.156.765.3.098.036.094.035.191.07.383.137.766.25 1.53.45.18.046.18.043.356.09.715.168.09.02.09.023.179.039.355.074.715.14.18.032.18.035.355.063.719.117.086.016.09.011.18.028.359.05.714.098.086.012.086.008.176.023.352.04.085.01.09.009.176.02.348.039.09.008.085.008.176.019.352.031.699.059.09.008.086.004.176.015.351.024.086.004.09.008.176.012.347.019.09.004.086.004.176.012.351.015.086.004.09.004.172.008.352.012.093.004.098.004.187.008h.098l.094.004.191.004.188.008h.097l.094.004h.191l.094.004h.094l.097.004h.286l.093.004h1.047l.094-.004h.285l.098-.004h.187l.098-.004h.094l.093-.004.192-.004h.093l.098-.004.188-.004.097-.004.094-.004.191-.004.188-.008.191-.008h.094l.098-.004.187-.012.383-.015.086-.004.09-.004.176-.012.355-.02.09-.003.09-.008.176-.012.355-.024.09-.004.086-.008.18-.011.355-.028.707-.062.18-.016.175-.02.356-.034.71-.078.087-.012.09-.008.175-.024.356-.043.71-.097.098-.012.102-.016.195-.027.399-.062.789-.13.101-.019.098-.015.2-.036.394-.074.793-.156.097-.023.102-.02.195-.043.399-.09.792-.187.098-.024.098-.027.2-.05.394-.102.101-.028.098-.027.2-.055.097-.027.101-.031.196-.055" stroke="#e19c23"/><path d="M19.5 98.51l.09.288.086.285.18.579.351 1.152.707 2.305 1.418 4.566 2.832 8.856.094.293.097.289.192.578.383 1.144.77 2.258 1.534 4.34.094.262.098.261.191.524.383 1.03.766 2.013 1.535 3.824.18.43.18.425.359.836.714 1.63 1.434 3.065.09.184.09.18.18.363.359.711.715 1.379 1.433 2.566.086.153.09.148.176.293.351.578.703 1.113 1.403 2.063.09.121.085.121.176.242.352.47.703.898 1.406 1.644.188.211.19.203.384.399.761.757.094.094.098.09.187.176.383.347.762.657.094.078.097.078.188.152.383.297.761.559.094.066.098.066.191.13.379.25.762.468.18.102.175.101.356.195.71.36.18.086.176.082.356.16.714.293.086.031.09.035.18.067.355.125.086.027.09.031.18.059.355.105.086.028.09.023.18.05.355.094.086.02.09.023.18.04.355.078.094.019.097.02.192.035.097.015.098.02.191.031.098.016.094.011.195.028.094.011.098.016.191.02.195.023.094.008.195.015.094.008.195.016.094.004.098.008.097.004.094.004.195.008h.094l.098.004h.098l.093.004h.29l.097-.004h.098l.093-.004.098-.004h.098l.093-.004.098-.008.098-.004.094-.004.195-.016.094-.008.097-.008.192-.015.097-.008.098-.012.192-.023.097-.012.094-.012.195-.023.383-.063.094-.015.097-.016.188-.035.379-.074.094-.02.093-.023.192-.043.379-.094.187-.047.191-.054.375-.11.758-.25.188-.07.191-.07.38-.149.753-.324.098-.043.093-.047.188-.09.379-.187.758-.403.086-.05.09-.051.175-.102.356-.21.703-.454.09-.058.085-.063.18-.121.352-.25.707-.531.086-.067.09-.07.175-.14.352-.294.707-.613 1.41-1.355.098-.102.093-.098.192-.203.383-.414.765-.867.098-.113.094-.114.191-.23.383-.473.765-.988.098-.129.094-.129.191-.261.383-.536.766-1.117 1.53-2.437.09-.149.09-.152.176-.309.36-.62.715-1.302 1.43-2.789.085-.183.09-.184.18-.371.355-.758.715-1.562 1.43-3.34.09-.211.085-.215.176-.433.352-.88.699-1.808 1.398-3.816 2.805-8.438.094-.3.093-.31.192-.613.379-1.238.761-2.531 1.52-5.258 3.039-11.14 5.673-21.699.195-.726.575-2.157.77-2.84 1.538-5.511.094-.336.098-.332.191-.668.383-1.316.77-2.575 1.538-4.882.188-.57.187-.567.38-1.113.753-2.145.094-.262.094-.257.191-.512.375-1.008.754-1.918.098-.234.093-.23.188-.454.379-.887.754-1.675.093-.204.094-.199.188-.39.378-.758.754-1.422.09-.16.086-.153.176-.304.351-.59.09-.145.086-.14.176-.274.355-.531.086-.129.09-.125.176-.246.351-.469.704-.851.085-.098.09-.098.176-.183.352-.352.09-.082.085-.082.176-.156.352-.29.09-.066.085-.066.176-.125.09-.059.086-.058.176-.113.09-.051.085-.051.176-.094.09-.047.086-.043.18-.078.187-.078.098-.035.093-.031.098-.032.094-.03.097-.028.094-.024.094-.02.098-.023.093-.015.098-.016.187-.023.098-.008.094-.008.098-.004h.191l.187.008.098.008.094.008.098.011.093.016.098.016.187.039.098.023.094.024.191.058.098.031.094.036.191.074.094.039.097.043.192.094.187.101.192.113.383.247.093.066.098.07.191.149.38.32.097.082.094.09.191.18.383.39.09.098.086.098.18.203.355.425.715.942.086.129.09.129.179.261.355.547.711 1.184.09.156.27.48.355.669.711 1.418 1.426 3.183.098.23.093.235.196.473.386.972.77 2.04 1.543 4.44.195.587.192.597.386 1.211.774 2.504 1.543 5.309.187.68.192.68.379 1.382.757 2.82 1.516 5.848 3.031 12.281 5.656 23.164.098.379.094.375.191.754.387 1.492.766 2.937 1.53 5.672.098.344.094.34.192.684.386 1.347.766 2.637 1.531 5 .18.562.18.555.359 1.094.715 2.121 1.43 4 .09.238.089.235.18.472.36.926.714 1.785 1.43 3.328.09.196.085.191.176.38.352.75.703 1.437 1.402 2.656.086.156.09.156.176.305.347.605.703 1.157 1.403 2.117.097.137.094.132.192.266.378.516.762.98.098.121.094.117.191.23.379.45.762.86.093.101.098.102.188.203.382.394.762.742 1.52 1.336.09.074.09.07.175.141.355.274.711.523.18.125.176.121.355.239.711.449.09.055.086.05.18.106.355.207.711.387 1.418.683.195.086.192.082.383.16.773.297.094.035.097.036.192.07.387.129.77.246.093.027.097.027.192.055.387.106.097.027.094.023.191.051.387.094.098.023.094.024.195.043.383.082.77.148.093.016.098.015.187.035.379.059.094.016.093.011.188.028.379.05.093.012.098.012.188.023.093.008.094.012.191.02.094.011.281.024.38.03.093.009.098.008.187.011.094.008.094.004.191.012.375.016.098.004.281.011h.094l.097.004.094.004h.188l.093.004h.664l.094-.004h.188l.09-.004h.085l.09-.004h.09l.086-.004.09-.004.175-.008.086-.004.09-.004.176-.008.09-.004.086-.004.176-.011.09-.004.085-.008.176-.012.18-.016.176-.011.085-.008.09-.008.176-.016.352-.039.09-.008.085-.012.176-.02.356-.042.085-.012.09-.012.176-.023.352-.055.09-.011.085-.016.176-.027.356-.063.703-.133.097-.02.094-.022.192-.04.382-.085.766-.188.094-.023.097-.028.192-.05.379-.11.765-.234.098-.028.094-.03.574-.2.766-.281.093-.04.098-.034.187-.079.383-.16.766-.336.09-.043.09-.039.175-.086.36-.175.71-.368.09-.05.09-.047.18-.098.356-.203.714-.43.18-.11.176-.113.36-.234.71-.492 1.43-1.086.086-.07.09-.074.172-.145.351-.297.7-.629.085-.078.09-.082.176-.164.347-.34.7-.707.09-.094.085-.09.176-.187.348-.383.7-.797 1.401-1.742.188-.25.191-.258.38-.523.757-1.098 1.52-2.402.093-.16.098-.16.187-.324.38-.665.76-1.386 1.52-3.016.086-.183.09-.188.176-.379.355-.77.707-1.601 1.418-3.434.09-.222.086-.227.18-.457.351-.933.711-1.922 1.414-4.102.098-.289.094-.293.195-.586.383-1.195.766-2.469 1.539-5.238 3.07-11.637.36-1.453.355-1.47.719-2.991 1.433-6.172 2.867-12.906 5.625-25.746.094-.422.098-.422.191-.836.38-1.668.76-3.285 1.528-6.324.094-.383.098-.383.191-.762.379-1.5.764-2.92 1.528-5.512.09-.309.086-.305.18-.605.355-1.195.71-2.301.09-.281.09-.278.176-.55.356-1.083.71-2.082.18-.5.18-.496.355-.964.711-1.848 1.422-3.348.195-.414.192-.41.387-.793.77-1.48.097-.176.093-.172.196-.34.386-.656.77-1.211.098-.14.093-.141.196-.274.382-.523.098-.125.098-.121.191-.243.387-.457.098-.109.093-.105.196-.208.382-.394.098-.094.098-.09.191-.175.387-.329.187-.148.192-.145.187-.132.192-.125.093-.063.094-.058.187-.114.38-.199.097-.047.094-.043.187-.082.098-.039.281-.105.094-.028.098-.03.093-.028.188-.047.097-.024.188-.039.187-.03.098-.013.094-.011.187-.016.098-.004.187-.008h.094l.098.004.187.008.188.016.097.011.094.012.188.031.097.02.188.039.191.047.094.027.281.094.098.031.094.04.187.073.18.079.176.086.085.042.09.047.176.098.09.05.086.052.18.109.351.238.09.063.086.062.176.137.355.285.707.645.086.09.09.09.176.183.351.387.707.843.09.114.086.117.18.23.351.489.707 1.047.094.152.098.148.191.313.383.64.766 1.372.093.18.098.183.191.367.383.762.766 1.617.098.21.093.212.192.43.383.886.765 1.863 1.531 4.094.18.508.18.52.355 1.05.715 2.188 1.43 4.691L284.3 48.29l.086.348.086.352.176.703.351 1.422.7 2.902 1.402 6.035 2.804 12.797 6.086 28.961.086.414.09.414.176.82.355 1.641.711 3.238 1.418 6.293.18.766.176.766.355 1.511.711 2.961 1.418 5.672.098.383.101.379.196.758.398 1.488.79 2.887 1.585 5.406.098.324.101.317.196.636.398 1.242.793 2.387.098.293.097.285.2.57.394 1.118.102.277.097.27.2.543.097.265.102.266.195.523" stroke="#5c7fb3"/></g><path d="M314.02 15.781h4.082l.5.004.602.004.695.008.793.008.875.015.941.016.985.016 1 .015.996.012.972.008.97.007.98.004h7.218" stroke="#fdfdfd" stroke-linejoin="round" stroke-opacity=".667" stroke-width="4"/><path d="M314.02 15.781h4.082l.5.004.602.004.695.008.793.008.875.015.941.016.985.016 1 .015.996.012.972.008.97.007.98.004h7.218" stroke="#a8a8a8" stroke-linecap="square" stroke-width="1.25"/></g><path d="M351.62 9.398v13h-16v-13z" fill="#fdfdfd" fill-opacity=".667"/><use x="337.623" y="20.199" width="100%" height="100%" xlink:href="#a" transform="translate(-.5 -.3)"/><use x="344.623" y="22.199" width="100%" height="100%" xlink:href="#b" transform="translate(-.5 -.3)"/><path d="M314.02 171.8h4.082l.5-.005h.602l.695-.004.793-.004.875-.008.941-.008.985-.008 1-.004.996-.008.972-.004h.97l.98-.004h7.218" fill="none" stroke="#fdfdfd" stroke-linejoin="round" stroke-miterlimit="3.25" stroke-opacity=".667" stroke-width="4"/><path d="M314.02 171.8h4.082l.5-.005h.602l.695-.004.793-.004.875-.008.941-.008.985-.008 1-.004.996-.008.972-.004h.97l.98-.004h7.218" fill="none" stroke="#a8a8a8" stroke-linecap="square" stroke-miterlimit="3.25" stroke-width="1.25"/><path d="M352.62 165.24v13h-17v-13z" fill="#fdfdfd" fill-opacity=".667"/><use x="338.123" y="176.043" width="100%" height="100%" xlink:href="#a" transform="translate(-.5 -.3)"/><use x="345.123" y="178.043" width="100%" height="100%" xlink:href="#c" transform="translate(-.5 -.3)"/><path d="M314.02 146.93h4.082l.5-.005.602-.004.695-.004.793-.011.875-.012.941-.012.985-.012 1-.011.996-.012.972-.008.97-.004.98-.004h7.218" fill="none" stroke="#fdfdfd" stroke-linejoin="round" stroke-miterlimit="3.25" stroke-opacity=".667" stroke-width="4"/><path d="M314.02 146.93h4.082l.5-.005.602-.004.695-.004.793-.011.875-.012.941-.012.985-.012 1-.011.996-.012.972-.008.97-.004.98-.004h7.218" fill="none" stroke="#a8a8a8" stroke-linecap="square" stroke-miterlimit="3.25" stroke-width="1.25"/><path d="M352.62 140.33v13h-17v-13z" fill="#fdfdfd" fill-opacity=".667"/><use x="338.123" y="151.128" width="100%" height="100%" xlink:href="#a" transform="translate(-.5 -.3)"/><use x="345.123" y="153.128" width="100%" height="100%" xlink:href="#d" transform="translate(-.5 -.3)"/><g fill="none" stroke="#7f7f7f" stroke-miterlimit="3.25" stroke-width=".601"><path d="M19.5 176.45v-3.567M29.117 176.45v-2.141M38.73 176.45v-2.141M48.35 176.45v-2.141M57.97 176.45v-2.141M67.59 176.45v-3.567"/></g><use x="64.584" y="190.749" width="100%" height="100%" xlink:href="#e" transform="translate(-.5 -.3)"/><g fill="none" stroke="#7f7f7f" stroke-miterlimit="3.25" stroke-width=".601"><path d="M77.2 176.45v-2.141M86.82 176.45v-2.141M96.43 176.45v-2.141M106.05 176.45v-2.141M115.67 176.45v-3.567"/></g><g transform="translate(-.5 -.3)"><use x="109.668" y="190.749" width="100%" height="100%" xlink:href="#f"/><use x="116.342" y="190.749" width="100%" height="100%" xlink:href="#g"/></g><g fill="none" stroke="#7f7f7f" stroke-miterlimit="3.25" stroke-width=".601"><path d="M125.29 176.45v-2.141M134.9 176.45v-2.141M144.52 176.45v-2.141M154.14 176.45v-2.141M163.75 176.45v-3.567"/></g><g transform="translate(-.5 -.3)"><use x="157.752" y="190.749" width="100%" height="100%" xlink:href="#f"/><use x="164.426" y="190.749" width="100%" height="100%" xlink:href="#e"/></g><g fill="none" stroke="#7f7f7f" stroke-miterlimit="3.25" stroke-width=".601"><path d="M173.37 176.45v-2.141M182.98 176.45v-2.141M192.6 176.45v-2.141M202.22 176.45v-2.141M211.84 176.45v-3.567"/></g><g transform="translate(-.5 -.3)"><use x="205.836" y="190.749" width="100%" height="100%" xlink:href="#h"/><use x="212.51" y="190.749" width="100%" height="100%" xlink:href="#g"/></g><g fill="none" stroke="#7f7f7f" stroke-miterlimit="3.25" stroke-width=".601"><path d="M221.45 176.45v-2.141M231.07 176.45v-2.141M240.69 176.45v-2.141M250.3 176.45v-2.141M259.92 176.45v-3.567"/></g><g transform="translate(-.5 -.3)"><use x="253.921" y="190.749" width="100%" height="100%" xlink:href="#h"/><use x="260.594" y="190.749" width="100%" height="100%" xlink:href="#e"/></g><g fill="none" stroke="#7f7f7f" stroke-miterlimit="3.25" stroke-width=".601"><path d="M269.54 176.45v-2.141M279.15 176.45v-2.141M288.77 176.45v-2.141M298.39 176.45v-2.141M308 176.45v-3.567"/></g><g transform="translate(-.5 -.3)"><use x="302.005" y="190.749" width="100%" height="100%" xlink:href="#i"/><use x="308.679" y="190.749" width="100%" height="100%" xlink:href="#g"/></g><g fill="none" stroke="#7f7f7f" stroke-miterlimit="3.25" stroke-width=".601"><path d="M13.488 176.45h300.53M19.5 176.45h3.566M19.5 166.71h2.14M19.5 156.97h2.14M19.5 147.22h2.14M19.5 137.48h3.566"/></g><g transform="translate(-.5 -.3)"><use y="141.78" width="100%" height="100%" xlink:href="#g"/><use x="6.674" y="141.78" width="100%" height="100%" xlink:href="#j"/><use x="10.008" y="141.78" width="100%" height="100%" xlink:href="#h"/></g><g fill="none" stroke="#7f7f7f" stroke-miterlimit="3.25" stroke-width=".601"><path d="M19.5 127.74h2.14M19.5 118h2.14M19.5 108.25h2.14M19.5 98.51h3.566"/></g><g transform="translate(-.5 -.3)"><use y="102.812" width="100%" height="100%" xlink:href="#g"/><use x="6.674" y="102.812" width="100%" height="100%" xlink:href="#j"/><use x="10.008" y="102.812" width="100%" height="100%" xlink:href="#k"/></g><g fill="none" stroke="#7f7f7f" stroke-miterlimit="3.25" stroke-width=".601"><path d="M19.5 88.77h2.14M19.5 79.027h2.14M19.5 69.285h2.14M19.5 59.543h3.566"/></g><g transform="translate(-.5 -.3)"><use y="63.843" width="100%" height="100%" xlink:href="#g"/><use x="6.674" y="63.843" width="100%" height="100%" xlink:href="#j"/><use x="10.008" y="63.843" width="100%" height="100%" xlink:href="#l"/></g><g fill="none" stroke="#7f7f7f" stroke-miterlimit="3.25" stroke-width=".601"><path d="M19.5 49.801h2.14M19.5 40.058h2.14M19.5 30.316h2.14M19.5 20.574h3.566"/></g><g transform="translate(-.5 -.3)"><use y="24.875" width="100%" height="100%" xlink:href="#g"/><use x="6.674" y="24.875" width="100%" height="100%" xlink:href="#j"/><use x="10.008" y="24.875" width="100%" height="100%" xlink:href="#m"/></g><g fill="none" stroke="#7f7f7f" stroke-miterlimit="3.25" stroke-width=".601"><path d="M19.5 10.832h2.14M19.5 1.09h2.14M19.5 185.74V.01"/></g></svg>