<svg width="200.04" height="98.707" viewBox="0 0 150.03 74.03" xmlns="http://www.w3.org/2000/svg" xmlns:xlink="http://www.w3.org/1999/xlink"><defs><symbol id="a" overflow="visible"><path d="M9.516 0v-.402h-.297c-1.004 0-1.028-.145-1.028-.625v-6.825c0-.48.024-.625 1.028-.625h.297v-.402c-.586.04-1.313.04-1.91.04-.598 0-1.329 0-1.91-.04v.402h.296c1 0 1.027.145 1.027.625v3.028H2.99v-3.028c0-.48.027-.625 1.026-.625h.301v-.402c-.586.04-1.312.04-1.91.04s-1.328 0-1.914-.04v.402h.3c1 0 1.028.145 1.028.625v6.825c0 .48-.027.625-1.027.625H.492V0c.586-.04 1.316-.04 1.914-.04s1.324 0 1.91.04v-.402h-.3c-1 0-1.028-.145-1.028-.625v-3.395H7.02v3.395c0 .48-.027.625-1.027.625h-.297V0c.582-.04 1.313-.04 1.91-.04.598 0 1.325 0 1.91.04z"/></symbol><symbol id="b" overflow="visible"><path d="M9.45-4.367c0-2.473-1.805-4.512-4.095-4.512H.52v.402H.82c1 0 1.028.145 1.028.625v6.825c0 .48-.028.625-1.028.625h-.3V0h4.835C7.605 0 9.45-1.926 9.45-4.367zm-1.286 0c0 .531 0 1.898-.715 2.808-.676.883-1.613 1.157-2.43 1.157H3.613c-.61 0-.636-.09-.636-.536V-7.94c0-.446.027-.536.636-.536h1.39c1.263 0 2.044.664 2.395 1.133.57.754.766 1.688.766 2.977z"/></symbol><symbol id="c" overflow="visible"><path d="M11.676 0v-.402h-.3c-1 0-1.028-.145-1.028-.625v-6.825c0-.48.027-.625 1.027-.625h.301v-.402H9.488c-.269 0-.363 0-.453.234L6.121-1.273l-2.91-7.32c-.105-.259-.117-.286-.469-.286H.56v.402h.3c1 0 1.028.145 1.028.625v6.473c0 .352 0 .977-1.328.977V0c.715-.027.898-.039 1.535-.039.625 0 .816.012 1.52.04v-.403c-1.325 0-1.325-.625-1.325-.977v-6.953l.012-.016L5.5-.285c.062.168.116.285.273.285.14 0 .207-.117.257-.234l3.25-8.215.016.012v7.41c0 .48-.027.625-1.027.625h-.301V0C8.75-.039 9.62-.039 9.817-.039c.078 0 1.039 0 1.859.04z"/></symbol><symbol id="e" overflow="visible"><path d="M5.617 0v-.402H5.2c-1.207 0-1.246-.157-1.246-.637v-7.27c0-.324-.015-.347-.34-.347-.804.832-2 .832-2.402.832v.402c.246 0 1.04 0 1.738-.34v6.723c0 .48-.039.637-1.246.637h-.418V0c.469-.039 1.625-.039 2.16-.039.532 0 1.704 0 2.172.04z"/></symbol><symbol id="f" overflow="visible"><path d="M6.008-2.3H5.64c-.024.167-.13.937-.297 1.144-.078.117-.977.117-1.235.117H1.793l1.289-1.223c2.133-1.848 2.926-2.535 2.926-3.86 0-1.495-1.238-2.534-2.836-2.534-1.496 0-2.508 1.18-2.508 2.363 0 .652.559.715.676.715.285 0 .676-.207.676-.676 0-.39-.274-.676-.676-.676-.066 0-.106 0-.156.016a1.948 1.948 0 0 1 1.843-1.34c1.329 0 1.782 1.234 1.782 2.133 0 1.324-1 2.402-1.625 3.078L.804-.47C.665-.324.665-.3.665 0h4.977z"/></symbol><symbol id="g" overflow="visible"><path d="M6.148-4.16c0-.871-.039-1.988-.492-2.965-.574-1.223-1.562-1.531-2.316-1.531-.778 0-1.766.308-2.34 1.558-.414.899-.48 1.95-.48 2.938 0 .844.027 2.105.585 3.133C1.715.078 2.73.285 3.328.285c.844 0 1.809-.363 2.352-1.558.39-.871.469-1.848.469-2.887zm-1.117-.156c0 .804 0 1.898-.129 2.664C4.63-.168 3.664-.04 3.34-.04c-.39 0-1.324-.184-1.57-1.652-.133-.766-.133-1.883-.133-2.625 0-.883 0-1.91.156-2.625.262-1.157 1.094-1.391 1.535-1.391.492 0 1.313.258 1.559 1.469.144.715.144 1.726.144 2.547z"/></symbol><symbol id="h" overflow="visible"><path d="M2.547-.703c0-.375-.313-.7-.7-.7a.7.7 0 1 0 .7.7z"/></symbol><symbol id="i" overflow="visible"><path d="M6.008-2.602c0-1.57-1.121-2.859-2.535-2.859-.625 0-1.262.207-1.72.676v-2.559c.391.117.794.18 1.196.18 1.602 0 2.535-1.156 2.535-1.324 0-.118-.078-.168-.14-.168 0 0-.055 0-.168.062a4.724 4.724 0 0 1-1.758.352 4.547 4.547 0 0 1-1.742-.352c-.13-.062-.168-.062-.168-.062-.157 0-.157.129-.157.347v3.825c0 .234 0 .375.184.375.102 0 .14-.051.219-.168a2.061 2.061 0 0 1 1.691-.86c1.39 0 1.39 2.004 1.39 2.473 0 .402 0 1.207-.362 1.793a1.67 1.67 0 0 1-1.407.793A2.07 2.07 0 0 1 1.117-1.52s.094.024.184.024c.258 0 .636-.168.636-.637 0-.402-.285-.637-.636-.637-.274 0-.637.157-.637.676 0 1.184.988 2.38 2.43 2.38 1.574 0 2.914-1.274 2.914-2.888z"/></symbol><symbol id="d" overflow="visible"><path d="M7.516-2.977H.856v-.73h6.66z"/></symbol></defs><g transform="translate(-37.567 .015)"><path d="M37.582 16h150v1h-150z" stroke="#000" stroke-miterlimit="10" stroke-width=".03"/><path d="M63.582 0v74h-1V0z" stroke="#000" stroke-miterlimit="10" stroke-width=".03"/><use x="83.583" y="9.5" width="100%" height="100%" xlink:href="#a"/><use x="131.083" y="9.5" width="100%" height="100%" xlink:href="#b"/><use x="173.083" y="9.5" width="100%" height="100%" xlink:href="#c"/><use x="38.583" y="30.5" width="100%" height="100%" xlink:href="#a"/><use x="80.583" y="30.5" width="100%" height="100%" xlink:href="#d"/><use x="89.583" y="30.5" width="100%" height="100%" xlink:href="#e"/><use x="132.583" y="30.5" width="100%" height="100%" xlink:href="#f"/><use x="170.583" y="30.5" width="100%" height="100%" xlink:href="#g"/><use x="177.265" y="30.5" width="100%" height="100%" xlink:href="#h"/><use x="180.983" y="30.5" width="100%" height="100%" xlink:href="#i"/><use x="38.583" y="51.5" width="100%" height="100%" xlink:href="#b"/><use x="85.083" y="51.5" width="100%" height="100%" xlink:href="#g"/><use x="132.583" y="51.5" width="100%" height="100%" xlink:href="#e"/><use x="170.583" y="51.5" width="100%" height="100%" xlink:href="#g"/><use x="177.265" y="51.5" width="100%" height="100%" xlink:href="#h"/><use x="180.983" y="51.5" width="100%" height="100%" xlink:href="#i"/><use x="37.583" y="72.5" width="100%" height="100%" xlink:href="#c"/><use x="75.583" y="72.5" width="100%" height="100%" xlink:href="#d"/><use x="84.583" y="72.5" width="100%" height="100%" xlink:href="#g"/><use x="91.265" y="72.5" width="100%" height="100%" xlink:href="#h"/><use x="94.983" y="72.5" width="100%" height="100%" xlink:href="#i"/><use x="127.584" y="72.5" width="100%" height="100%" xlink:href="#e"/><use x="134.265" y="72.5" width="100%" height="100%" xlink:href="#h"/><use x="137.983" y="72.5" width="100%" height="100%" xlink:href="#i"/><use x="175.583" y="72.5" width="100%" height="100%" xlink:href="#e"/></g></svg>