<svg width="184.04" height="98.707" viewBox="0 0 138.03 74.03" xmlns="http://www.w3.org/2000/svg" xmlns:xlink="http://www.w3.org/1999/xlink"><defs><symbol id="a" overflow="visible"><path d="M9.516 0v-.402h-.297c-1.004 0-1.028-.145-1.028-.625v-6.825c0-.48.024-.625 1.028-.625h.297v-.402c-.586.04-1.313.04-1.91.04-.598 0-1.329 0-1.91-.04v.402h.296c1 0 1.027.145 1.027.625v3.028H2.99v-3.028c0-.48.027-.625 1.026-.625h.301v-.402c-.586.04-1.312.04-1.91.04s-1.328 0-1.914-.04v.402h.3c1 0 1.028.145 1.028.625v6.825c0 .48-.027.625-1.027.625H.492V0c.586-.04 1.316-.04 1.914-.04s1.324 0 1.91.04v-.402h-.3c-1 0-1.028-.145-1.028-.625v-3.395H7.02v3.395c0 .48-.027.625-1.027.625h-.297V0c.582-.04 1.313-.04 1.91-.04.598 0 1.325 0 1.91.04z"/></symbol><symbol id="b" overflow="visible"><path d="M9.45-4.367c0-2.473-1.805-4.512-4.095-4.512H.52v.402H.82c1 0 1.028.145 1.028.625v6.825c0 .48-.028.625-1.028.625h-.3V0h4.835C7.605 0 9.45-1.926 9.45-4.367zm-1.286 0c0 .531 0 1.898-.715 2.808-.676.883-1.613 1.157-2.43 1.157H3.613c-.61 0-.636-.09-.636-.536V-7.94c0-.446.027-.536.636-.536h1.39c1.263 0 2.044.664 2.395 1.133.57.754.766 1.688.766 2.977z"/></symbol><symbol id="c" overflow="visible"><path d="M9.777-1.156c0-.078 0-.235-.183-.235-.168 0-.168.118-.184.22-.062.82-.465 1.132-.871 1.132-.414 0-.559-.262-.66-.48-.117-.286-.235-1.172-.313-1.754-.105-.809-.222-1.68-1.664-2.133 1.235-.352 2.25-1.117 2.25-2.133 0-1.285-1.574-2.34-3.484-2.34H.519v.403H.82c1 0 1.028.144 1.028.625v6.824c0 .48-.028.625-1.028.625h-.3V0c.613-.039 1.261-.039 1.886-.039.621 0 1.274 0 1.899.04v-.403h-.301c-1 0-1.028-.145-1.028-.625v-3.25h1.56c.937 0 1.355.496 1.405.547.39.48.39.675.39 1.597 0 .871 0 1.446.622 1.938.613.48 1.394.48 1.535.48 1.094 0 1.29-1.129 1.29-1.441zM6.824-6.54c0 1.117-.57 1.938-2.34 1.938H2.977v-3.34c0-.34.027-.457.273-.508.117-.027.531-.027.805-.027 1.12 0 2.77 0 2.77 1.937z"/></symbol><symbol id="e" overflow="visible"><path d="M5.617 0v-.402H5.2c-1.207 0-1.246-.157-1.246-.637v-7.27c0-.324-.015-.347-.34-.347-.804.832-2 .832-2.402.832v.402c.246 0 1.04 0 1.738-.34v6.723c0 .48-.039.637-1.246.637h-.418V0c.469-.039 1.625-.039 2.16-.039.532 0 1.704 0 2.172.04z"/></symbol><symbol id="f" overflow="visible"><path d="M6.008-2.3H5.64c-.024.167-.13.937-.297 1.144-.078.117-.977.117-1.235.117H1.793l1.289-1.223c2.133-1.848 2.926-2.535 2.926-3.86 0-1.495-1.238-2.534-2.836-2.534-1.496 0-2.508 1.18-2.508 2.363 0 .652.559.715.676.715.285 0 .676-.207.676-.676 0-.39-.274-.676-.676-.676-.066 0-.106 0-.156.016a1.948 1.948 0 0 1 1.843-1.34c1.329 0 1.782 1.234 1.782 2.133 0 1.324-1 2.402-1.625 3.078L.804-.47C.665-.324.665-.3.665 0h4.977z"/></symbol><symbol id="g" overflow="visible"><path d="M6.148-4.16c0-.871-.039-1.988-.492-2.965-.574-1.223-1.562-1.531-2.316-1.531-.778 0-1.766.308-2.34 1.558-.414.899-.48 1.95-.48 2.938 0 .844.027 2.105.585 3.133C1.715.078 2.73.285 3.328.285c.844 0 1.809-.363 2.352-1.558.39-.871.469-1.848.469-2.887zm-1.117-.156c0 .804 0 1.898-.129 2.664C4.63-.168 3.664-.04 3.34-.04c-.39 0-1.324-.184-1.57-1.652-.133-.766-.133-1.883-.133-2.625 0-.883 0-1.91.156-2.625.262-1.157 1.094-1.391 1.535-1.391.492 0 1.313.258 1.559 1.469.144.715.144 1.726.144 2.547z"/></symbol><symbol id="h" overflow="visible"><path d="M2.547-.703c0-.375-.313-.7-.7-.7a.7.7 0 1 0 .7.7z"/></symbol><symbol id="i" overflow="visible"><path d="M6.11-4.277c0-3.524-1.56-4.38-2.731-4.38-1.492 0-2.82 1.208-2.82 2.911 0 1.652 1.195 2.898 2.664 2.898.949 0 1.468-.687 1.703-1.246v.285c0 3.172-1.442 3.731-2.184 3.731-.297 0-.96-.05-1.3-.48h.054c.102.027.61-.079.61-.598 0-.34-.235-.598-.598-.598s-.61.235-.61.621c0 .86.688 1.418 1.86 1.418 1.676 0 3.351-1.715 3.351-4.562zM4.901-5.473c0 .95-.43 2.301-1.652 2.301-.207 0-.844 0-1.262-.804-.246-.497-.246-1.133-.246-1.758 0-.621 0-1.274.274-1.766.39-.664.894-.832 1.363-.832.887 0 1.234.895 1.29 1.027.179.48.234 1.274.234 1.832z"/></symbol><symbol id="d" overflow="visible"><path d="M7.516-2.977H.856v-.73h6.66z"/></symbol></defs><g transform="translate(-37.567 .015)"><path d="M37.582 16h138v1h-138z" stroke="#000" stroke-miterlimit="10" stroke-width=".03"/><path d="M61.582 0v74h-1V0z" stroke="#000" stroke-miterlimit="10" stroke-width=".03"/><use x="76.583" y="9.5" width="100%" height="100%" xlink:href="#a"/><use x="119.084" y="9.5" width="100%" height="100%" xlink:href="#b"/><use x="162.083" y="9.5" width="100%" height="100%" xlink:href="#c"/><use x="37.583" y="30.5" width="100%" height="100%" xlink:href="#a"/><use x="73.583" y="30.5" width="100%" height="100%" xlink:href="#d"/><use x="82.583" y="30.5" width="100%" height="100%" xlink:href="#e"/><use x="120.584" y="30.5" width="100%" height="100%" xlink:href="#f"/><use x="159.083" y="30.5" width="100%" height="100%" xlink:href="#d"/><use x="168.083" y="30.5" width="100%" height="100%" xlink:href="#e"/><use x="37.583" y="51.5" width="100%" height="100%" xlink:href="#b"/><use x="78.083" y="51.5" width="100%" height="100%" xlink:href="#g"/><use x="120.584" y="51.5" width="100%" height="100%" xlink:href="#e"/><use x="158.583" y="51.5" width="100%" height="100%" xlink:href="#g"/><use x="165.265" y="51.5" width="100%" height="100%" xlink:href="#h"/><use x="168.983" y="51.5" width="100%" height="100%" xlink:href="#i"/><use x="37.583" y="72.5" width="100%" height="100%" xlink:href="#c"/><use x="73.583" y="72.5" width="100%" height="100%" xlink:href="#d"/><use x="82.583" y="72.5" width="100%" height="100%" xlink:href="#e"/><use x="115.584" y="72.5" width="100%" height="100%" xlink:href="#e"/><use x="122.265" y="72.5" width="100%" height="100%" xlink:href="#h"/><use x="125.983" y="72.5" width="100%" height="100%" xlink:href="#e"/><use x="163.583" y="72.5" width="100%" height="100%" xlink:href="#e"/></g></svg>