<svg width="253.373" height="100.031" viewBox="0 0 190.03 75.023" xmlns="http://www.w3.org/2000/svg" xmlns:xlink="http://www.w3.org/1999/xlink"><defs><symbol id="a" overflow="visible"><path d="M9.633-4.406c0-2.653-2.016-4.758-4.445-4.758S.742-7.047.742-4.406C.742-1.77 2.77.285 5.188.285S9.633-1.77 9.633-4.406zm-1.324-.196c0 3.356-1.809 4.497-3.121 4.497S2.066-1.246 2.066-4.602c0-3.171 1.86-4.199 3.122-4.199s3.12 1.028 3.12 4.2z"/></symbol><symbol id="b" overflow="visible"><path d="M9.84-8.477v-.402c-.453.04-.832.04-1.274.04l-1.468-.04v.402c.468 0 .714.207.714.508 0 .156-.039.223-.14.375l-2.227 3.5L3.004-7.89c-.078-.129-.117-.195-.117-.261 0-.313.48-.325.882-.325v-.402c-.53.04-1.324.04-1.882.04l-1.72-.04v.402H.39c.782 0 .961.106 1.196.47l2.86 4.456v2.524c0 .48-.024.625-1.028.625H3.12V0c.61-.04 1.262-.04 1.883-.04.625 0 1.273 0 1.898.04v-.402h-.297c-.988 0-1.027-.145-1.027-.614V-3.55l2.574-4.027c.258-.418.66-.887 1.688-.899z"/></symbol><symbol id="c" overflow="visible"><path d="M8.71-2.367c0-1.168-1.132-2.117-2.573-2.274 1.285-.261 2.195-1.078 2.195-2.043 0-1.14-1.246-2.195-2.965-2.195H.531v.402h.301c1 0 1.027.145 1.027.625v6.825c0 .48-.027.625-1.027.625h-.3V0h5.202c1.754 0 2.977-1.156 2.977-2.367zM7.087-6.684c0 1.004-.871 1.899-2.094 1.899H2.95v-3.156c0-.446.027-.536.64-.536h1.688c1.274 0 1.809 1.016 1.809 1.793zm.336 4.293c0 1-.777 1.989-2.117 1.989H3.59c-.613 0-.64-.09-.64-.535v-3.524h2.456c1.508 0 2.016 1.277 2.016 2.07z"/></symbol><symbol id="e" overflow="visible"><path d="M6.148-4.16c0-.871-.039-1.988-.492-2.965-.574-1.223-1.562-1.531-2.316-1.531-.778 0-1.766.308-2.34 1.558-.414.899-.48 1.95-.48 2.938 0 .844.027 2.105.585 3.133C1.715.078 2.73.285 3.328.285c.844 0 1.809-.363 2.352-1.558.39-.871.469-1.848.469-2.887zm-1.117-.156c0 .804 0 1.898-.129 2.664C4.63-.168 3.664-.04 3.34-.04c-.39 0-1.324-.184-1.57-1.652-.133-.766-.133-1.883-.133-2.625 0-.883 0-1.91.156-2.625.262-1.157 1.094-1.391 1.535-1.391.492 0 1.313.258 1.559 1.469.144.715.144 1.726.144 2.547z"/></symbol><symbol id="f" overflow="visible"><path d="M2.691-.027c0-.895-.34-1.375-.843-1.375-.457 0-.703.347-.703.699S1.39 0 1.848 0c.324 0 .52-.207.52-.207 0 .43 0 1.492-.99 2.43-.054.066-.054.129-.054.129 0 .066.078.156.172.156.14 0 1.195-1 1.195-2.535z"/></symbol><symbol id="i" overflow="visible"><path d="M5.617 0v-.402H5.2c-1.207 0-1.246-.157-1.246-.637v-7.27c0-.324-.015-.347-.34-.347-.804.832-2 .832-2.402.832v.402c.246 0 1.04 0 1.738-.34v6.723c0 .48-.039.637-1.246.637h-.418V0c.469-.039 1.625-.039 2.16-.039.532 0 1.704 0 2.172.04z"/></symbol><symbol id="d" overflow="visible"><path d="M3.781 1.973l-.156.238C2.48 1.484 1.684.645 1.227-.312.84-1.125.648-2.172.648-3.461c0-1.074.215-2.027.649-2.855a5.378 5.378 0 0 1 1.3-1.637c.337-.254.676-.508 1.016-.758l.145.223c-1.38 1.047-2.07 2.726-2.07 5.043 0 1.5.19 2.695.57 3.586A4.084 4.084 0 0 0 3.78 1.973z"/></symbol><symbol id="g" overflow="visible"><path d="M3.523-3.46c0 1.288-.191 2.335-.578 3.147C2.492.645 1.691 1.484.547 2.212l-.16-.238A4.1 4.1 0 0 0 1.917.14c.376-.891.563-2.086.563-3.586 0-2.317-.687-3.996-2.062-5.043l.14-.223c.34.25.676.504 1.016.758.555.473.988 1.02 1.309 1.637.426.828.64 1.78.64 2.855z"/></symbol><symbol id="h" overflow="visible"><path d="M7.516-2.977H.856v-.73h6.66z"/></symbol></defs><g transform="translate(-37.567 .015)"><path d="M37.582 16h190v1h-190z" stroke="#000" stroke-miterlimit="10" stroke-width=".03"/><path d="M61.582 0v74h-1V0z" stroke="#000" stroke-miterlimit="10" stroke-width=".03"/><use x="85.583" y="9.5" width="100%" height="100%" xlink:href="#a"/><use x="145.583" y="9.5" width="100%" height="100%" xlink:href="#b"/><use x="206.083" y="9.5" width="100%" height="100%" xlink:href="#c"/><use x="37.583" y="30.5" width="100%" height="100%" xlink:href="#a"/><use x="77.583" y="30.5" width="100%" height="100%" xlink:href="#d"/><use x="81.583" y="30.5" width="100%" height="100%" xlink:href="#e"/><use x="88.583" y="30.5" width="100%" height="100%" xlink:href="#f"/><use x="92.583" y="30.5" width="100%" height="100%" xlink:href="#e"/><use x="99.583" y="30.5" width="100%" height="100%" xlink:href="#g"/><use x="133.583" y="30.5" width="100%" height="100%" xlink:href="#d"/><use x="137.583" y="30.5" width="100%" height="100%" xlink:href="#h"/><use x="145.583" y="30.5" width="100%" height="100%" xlink:href="#i"/><use x="152.583" y="30.5" width="100%" height="100%" xlink:href="#f"/><use x="156.583" y="30.5" width="100%" height="100%" xlink:href="#i"/><use x="163.583" y="30.5" width="100%" height="100%" xlink:href="#g"/><use x="193.583" y="30.5" width="100%" height="100%" xlink:href="#d"/><use x="197.583" y="30.5" width="100%" height="100%" xlink:href="#i"/><use x="204.583" y="30.5" width="100%" height="100%" xlink:href="#f"/><use x="208.583" y="30.5" width="100%" height="100%" xlink:href="#h"/><use x="216.583" y="30.5" width="100%" height="100%" xlink:href="#i"/><use x="223.583" y="30.5" width="100%" height="100%" xlink:href="#g"/><use x="37.583" y="51.5" width="100%" height="100%" xlink:href="#b"/><use x="73.583" y="51.5" width="100%" height="100%" xlink:href="#d"/><use x="77.583" y="51.5" width="100%" height="100%" xlink:href="#i"/><use x="84.583" y="51.5" width="100%" height="100%" xlink:href="#f"/><use x="88.583" y="51.5" width="100%" height="100%" xlink:href="#h"/><use x="96.583" y="51.5" width="100%" height="100%" xlink:href="#i"/><use x="103.584" y="51.5" width="100%" height="100%" xlink:href="#g"/><use x="137.583" y="51.5" width="100%" height="100%" xlink:href="#d"/><use x="141.583" y="51.5" width="100%" height="100%" xlink:href="#e"/><use x="148.583" y="51.5" width="100%" height="100%" xlink:href="#f"/><use x="152.583" y="51.5" width="100%" height="100%" xlink:href="#e"/><use x="159.583" y="51.5" width="100%" height="100%" xlink:href="#g"/><use x="193.583" y="51.5" width="100%" height="100%" xlink:href="#d"/><use x="197.583" y="51.5" width="100%" height="100%" xlink:href="#h"/><use x="205.583" y="51.5" width="100%" height="100%" xlink:href="#i"/><use x="212.583" y="51.5" width="100%" height="100%" xlink:href="#f"/><use x="216.583" y="51.5" width="100%" height="100%" xlink:href="#i"/><use x="223.583" y="51.5" width="100%" height="100%" xlink:href="#g"/><use x="38.083" y="72.5" width="100%" height="100%" xlink:href="#c"/><use x="73.583" y="72.5" width="100%" height="100%" xlink:href="#d"/><use x="77.583" y="72.5" width="100%" height="100%" xlink:href="#h"/><use x="85.583" y="72.5" width="100%" height="100%" xlink:href="#i"/><use x="92.583" y="72.5" width="100%" height="100%" xlink:href="#f"/><use x="96.583" y="72.5" width="100%" height="100%" xlink:href="#i"/><use x="103.584" y="72.5" width="100%" height="100%" xlink:href="#g"/><use x="133.583" y="72.5" width="100%" height="100%" xlink:href="#d"/><use x="137.583" y="72.5" width="100%" height="100%" xlink:href="#i"/><use x="144.583" y="72.5" width="100%" height="100%" xlink:href="#f"/><use x="148.583" y="72.5" width="100%" height="100%" xlink:href="#h"/><use x="156.583" y="72.5" width="100%" height="100%" xlink:href="#i"/><use x="163.583" y="72.5" width="100%" height="100%" xlink:href="#g"/><use x="197.583" y="72.5" width="100%" height="100%" xlink:href="#d"/><use x="201.583" y="72.5" width="100%" height="100%" xlink:href="#e"/><use x="208.583" y="72.5" width="100%" height="100%" xlink:href="#f"/><use x="212.583" y="72.5" width="100%" height="100%" xlink:href="#e"/><use x="219.583" y="72.5" width="100%" height="100%" xlink:href="#g"/></g></svg>